<mxfile host="app.diagrams.net" modified="2023-10-31T16:10:51.797Z" agent="Mozilla/5.0 (X11; Ubuntu; Linux x86_64; rv:109.0) Gecko/20100101 Firefox/119.0" etag="_LUh0wykDvWlf06XqEjD" version="22.0.8" type="device">
  <diagram name="Page-1" id="WkYK-XMvtyP9tqEzVzxh">
    <mxGraphModel dx="1434" dy="722" grid="1" gridSize="10" guides="1" tooltips="1" connect="1" arrows="1" fold="1" page="1" pageScale="1" pageWidth="827" pageHeight="1169" math="0" shadow="0">
      <root>
        <mxCell id="0" />
        <mxCell id="1" parent="0" />
        <mxCell id="9fN0THQdX7Je8e2T6aCW-14" value="" style="rounded=0;whiteSpace=wrap;html=1;fillColor=#bac8d3;strokeColor=#23445d;" vertex="1" parent="1">
          <mxGeometry x="40" y="180" width="680" height="350" as="geometry" />
        </mxCell>
        <mxCell id="9fN0THQdX7Je8e2T6aCW-18" value="Your infrastructure" style="rounded=0;whiteSpace=wrap;html=1;labelPosition=center;verticalLabelPosition=bottom;align=center;verticalAlign=top;fillColor=#f5f5f5;fontColor=#333333;strokeColor=#666666;" vertex="1" parent="1">
          <mxGeometry x="390" y="300" width="320" height="180" as="geometry" />
        </mxCell>
        <mxCell id="9fN0THQdX7Je8e2T6aCW-4" value="User&#39;s device (e.g., Android phone)" style="rounded=0;whiteSpace=wrap;html=1;labelPosition=center;verticalLabelPosition=bottom;align=center;verticalAlign=top;fillColor=#f5f5f5;fontColor=#333333;strokeColor=#666666;" vertex="1" parent="1">
          <mxGeometry x="50" y="200" width="140" height="280" as="geometry" />
        </mxCell>
        <mxCell id="9fN0THQdX7Je8e2T6aCW-7" style="edgeStyle=orthogonalEdgeStyle;rounded=0;orthogonalLoop=1;jettySize=auto;html=1;startArrow=classic;startFill=1;" edge="1" parent="1" source="9fN0THQdX7Je8e2T6aCW-1" target="9fN0THQdX7Je8e2T6aCW-3">
          <mxGeometry relative="1" as="geometry" />
        </mxCell>
        <mxCell id="9fN0THQdX7Je8e2T6aCW-1" value="Awala Ping" style="shape=image;verticalLabelPosition=top;labelBackgroundColor=none;verticalAlign=bottom;aspect=fixed;imageAspect=0;image=data:image/svg+xml,PHN2ZyB4bWw6c3BhY2U9InByZXNlcnZlIiBzdHlsZT0iZW5hYmxlLWJhY2tncm91bmQ6bmV3IDAgMCAxNzUgMTc1OyIgdmlld0JveD0iMCAwIDE3NSAxNzUiIHk9IjBweCIgeD0iMHB4IiB4bWxuczp4bGluaz0iaHR0cDovL3d3dy53My5vcmcvMTk5OS94bGluayIgeG1sbnM9Imh0dHA6Ly93d3cudzMub3JnLzIwMDAvc3ZnIiB2ZXJzaW9uPSIxLjEiPiYjeGE7PHN0eWxlIHR5cGU9InRleHQvY3NzIj4mI3hhOwkuc3Qwe2ZpbGw6I0UwRTBFMDt9JiN4YTsJLnN0MXtmaWxsOiNGRkZGRkY7ZmlsbC1vcGFjaXR5OjAuMjt9JiN4YTsJLnN0MntmaWxsOiMyMTIxMjE7ZmlsbC1vcGFjaXR5OjAuMTt9JiN4YTsJLnN0M3tmaWxsOiM2MTYxNjE7fSYjeGE7CS5zdDR7ZmlsbDojRkZGRkZGO2ZpbGwtb3BhY2l0eTowLjE7fSYjeGE7CS5zdDV7ZmlsbDojMjEyMTIxO2ZpbGwtb3BhY2l0eTowLjI7fSYjeGE7CS5zdDZ7ZmlsbDp1cmwoI1NWR0lEXzJfKTt9JiN4YTsJLnN0N3tmaWxsOm5vbmU7fSYjeGE7CS5zdDh7b3BhY2l0eTowLjE1O30mI3hhOwkuc3Q5e2NsaXAtcGF0aDp1cmwoI1NWR0lEXzNfKTt9JiN4YTsJLnN0MTB7ZmlsbDpub25lO3N0cm9rZTojMDAwMDAwO3N0cm9rZS13aWR0aDowLjI1O3N0cm9rZS1taXRlcmxpbWl0OjEwO30mI3hhOwkuc3QxMXtvcGFjaXR5OjAuNDt9JiN4YTsJLnN0MTJ7Y2xpcC1wYXRoOnVybCgjU1ZHSURfNV8pO30mI3hhOwkuc3QxM3tmaWxsOiMwMDc0RkY7fSYjeGE7CS5zdDE0e2ZpbGw6I0RCNDQzNztmaWxsLW9wYWNpdHk6MC40O30mI3hhOwkuc3QxNXtmaWxsOiNGRkZGRkY7fSYjeGE7CS5zdDE2e2ZpbGw6I0REQUU4MDt9JiN4YTsJLnN0MTd7ZmlsbDojQzY5Qjc3O30mI3hhOwkuc3QxOHtmaWxsOiNFOEI3OEI7fSYjeGE7CS5zdDE5e2ZpbGw6I0VERDdCRTt9JiN4YTsJLnN0MjB7ZmlsbDojRjRERUMzO30mI3hhOwkuc3QyMXtmaWxsOm5vbmU7c3Ryb2tlOiNGRkZGRkY7c3Ryb2tlLXdpZHRoOjIuMjtzdHJva2UtbGluZWNhcDpyb3VuZDtzdHJva2UtbGluZWpvaW46cm91bmQ7c3Ryb2tlLW1pdGVybGltaXQ6MTA7fSYjeGE7CS5zdDIye2ZpbGw6bm9uZTtzdHJva2U6I0ZGRkZGRjtzdHJva2Utd2lkdGg6MjtzdHJva2UtbWl0ZXJsaW1pdDoxMDt9JiN4YTsJLnN0MjN7ZmlsbDpub25lO3N0cm9rZTojRkZGRkZGO3N0cm9rZS13aWR0aDoyLjI7c3Ryb2tlLW1pdGVybGltaXQ6MTA7fSYjeGE7CS5zdDI0e2ZpbGw6IzI3MjY0RDtzdHJva2U6I0ZGRkZGRjtzdHJva2Utd2lkdGg6Mi4yO3N0cm9rZS1taXRlcmxpbWl0OjEwO30mI3hhOwkuc3QyNXtmaWxsOiMyRUExRkY7fSYjeGE7CS5zdDI2e2ZpbGw6IzU1QkFGRjt9JiN4YTsJLnN0Mjd7ZmlsbDojRkFGQUZDO30mI3hhOwkuc3QyOHtvcGFjaXR5OjAuOTI7ZmlsbDojRjJGMkYyO30mI3hhOwkuc3QyOXtmaWxsOiNGM0ZBRkY7fSYjeGE7CS5zdDMwe2ZpbGw6Izk3RDBGRjt9JiN4YTsJLnN0MzF7b3BhY2l0eTowLjY7ZmlsbDojQ0NFREZGO30mI3hhOwkuc3QzMntvcGFjaXR5OjAuODtmaWxsOiNDQ0VERkY7fSYjeGE7CS5zdDMze2ZpbGw6I0NDRURGRjt9JiN4YTsJLnN0MzR7ZmlsbDojNjE0NTgwO30mI3hhOwkuc3QzNXtmaWxsOiM1RTQyN0M7fSYjeGE7CS5zdDM2e2ZpbGw6IzYwNDQ3Rjt9JiN4YTsJLnN0Mzd7ZGlzcGxheTpub25lO2ZpbGw6IzdDNTYzNzt9JiN4YTsJLnN0Mzh7ZmlsbDojRkZGRkZGO3N0cm9rZTojMjcyNTRFO3N0cm9rZS13aWR0aDoyLjU7c3Ryb2tlLWxpbmVjYXA6cm91bmQ7c3Ryb2tlLWxpbmVqb2luOnJvdW5kO3N0cm9rZS1taXRlcmxpbWl0OjEwO30mI3hhOwkmI3hhOwkJLnN0Mzl7b3BhY2l0eTowLjk0O2ZpbGw6I0ZGRkZGRjtzdHJva2U6IzI3MjU0RTtzdHJva2Utd2lkdGg6Mi41O3N0cm9rZS1saW5lY2FwOnJvdW5kO3N0cm9rZS1saW5lam9pbjpyb3VuZDtzdHJva2UtbWl0ZXJsaW1pdDoxMDt9JiN4YTsJLnN0NDB7ZmlsbDojMjcyNTRFO30mI3hhOwkuc3Q0MXtmaWxsOiNGRkZGRkY7c3Ryb2tlOiMyQjI2NTg7c3Ryb2tlLW1pdGVybGltaXQ6MTA7fSYjeGE7CS5zdDQye2ZpbGw6bm9uZTtzdHJva2U6I0ZGRkZGRjtzdHJva2Utd2lkdGg6MjtzdHJva2UtbGluZWNhcDpyb3VuZDtzdHJva2UtbGluZWpvaW46cm91bmQ7c3Ryb2tlLW1pdGVybGltaXQ6MTA7fSYjeGE7CS5zdDQze2ZpbGw6I0ZGRkZGRjtzdHJva2U6IzJEMjk1NztzdHJva2Utd2lkdGg6MS43O3N0cm9rZS1taXRlcmxpbWl0OjEwO30mI3hhOwkuc3Q0NHtmaWxsOiMyQTI4NTc7fSYjeGE7CS5zdDQ1e2ZpbGw6IzJEMjk1NztzdHJva2U6I0ZGRkZGRjtzdHJva2Utd2lkdGg6MS42O3N0cm9rZS1taXRlcmxpbWl0OjEwO30mI3hhOwkuc3Q0NntmaWxsOiM2NDY0NjQ7c3Ryb2tlOiNGOUY5RkE7c3Ryb2tlLXdpZHRoOjIuNTtzdHJva2UtbGluZWNhcDpyb3VuZDtzdHJva2UtbGluZWpvaW46cm91bmQ7c3Ryb2tlLW1pdGVybGltaXQ6MTA7fSYjeGE7CSYjeGE7CQkuc3Q0N3tvcGFjaXR5OjAuOTQ7ZmlsbDojNjQ2NDY0O3N0cm9rZTojRjlGOUZBO3N0cm9rZS13aWR0aDoyLjU7c3Ryb2tlLWxpbmVjYXA6cm91bmQ7c3Ryb2tlLWxpbmVqb2luOnJvdW5kO3N0cm9rZS1taXRlcmxpbWl0OjEwO30mI3hhOwkuc3Q0OHtmaWxsOiNGOUY5RkE7fSYjeGE7CS5zdDQ5e2ZpbGw6IzY0NjQ2NDt9JiN4YTsJLnN0NTB7ZmlsbDojNjQ2NDY0O3N0cm9rZTojRjlGOUZBO3N0cm9rZS1taXRlcmxpbWl0OjEwO30mI3hhOwkuc3Q1MXtmaWxsOm5vbmU7c3Ryb2tlOiM2NDY0NjQ7c3Ryb2tlLXdpZHRoOjI7c3Ryb2tlLWxpbmVjYXA6cm91bmQ7c3Ryb2tlLWxpbmVqb2luOnJvdW5kO3N0cm9rZS1taXRlcmxpbWl0OjEwO30mI3hhOwkuc3Q1MntmaWxsOiM2NDY0NjQ7c3Ryb2tlOiNGOUY5RkE7c3Ryb2tlLXdpZHRoOjEuNztzdHJva2UtbWl0ZXJsaW1pdDoxMDt9JiN4YTsJLnN0NTN7ZmlsbDojNjQ2NDY0O3N0cm9rZTojRjlGOUZBO3N0cm9rZS13aWR0aDoxLjY7c3Ryb2tlLW1pdGVybGltaXQ6MTA7fSYjeGE7CS5zdDU0e2ZpbGw6I0Y0RUZFOTt9JiN4YTsJLnN0NTV7ZmlsbDojRjEzNjRCO30mI3hhOwkuc3Q1NntmaWxsOiNFM0JDNzk7fSYjeGE7CS5zdDU3e2ZpbGw6I0QzMkY0Nzt9JiN4YTsJLnN0NTh7ZmlsbDojRjFDQTg5O30mI3hhOwkuc3Q1OXtmaWxsOiNFRUYwRUY7fSYjeGE7CS5zdDYwe2ZpbGw6I0ZGRkZGRjtzdHJva2U6IzJEMjk1NztzdHJva2Utd2lkdGg6MS42O3N0cm9rZS1taXRlcmxpbWl0OjEwO30mI3hhOwkuc3Q2MXtmaWxsOiNDOTlBNkI7fSYjeGE7CS5zdDYye2ZpbGw6I0FFODM1Qjt9JiN4YTsJLnN0NjN7ZmlsbDojRThCNjg3O30mI3hhOwkuc3Q2NHtmaWxsOiNBMDc0NTA7fSYjeGE7CS5zdDY1e29wYWNpdHk6MC44O2ZpbGw6I0U4RTNFMjt9JiN4YTsJLnN0NjZ7ZmlsbDpub25lO3N0cm9rZTojOTY2OTRCO3N0cm9rZS13aWR0aDowLjM7c3Ryb2tlLWxpbmVjYXA6cm91bmQ7c3Ryb2tlLWxpbmVqb2luOnJvdW5kO3N0cm9rZS1taXRlcmxpbWl0OjEwO30mI3hhOwkuc3Q2N3tmaWxsOiM1RTVFN0M7fSYjeGE7CS5zdDY4e2ZpbGw6I0Y3RjhGQTt9JiN4YTsJLnN0Njl7ZmlsbDojQTU3RTU4O30mI3hhOwkuc3Q3MHtmaWxsOiNCMjg5NjA7fSYjeGE7CS5zdDcxe29wYWNpdHk6MC45NDtmaWxsOiNCQzkzNkY7fSYjeGE7CS5zdDcye29wYWNpdHk6MC45O2ZpbGw6Izg0NjQ0RTt9JiN4YTsJLnN0NzN7b3BhY2l0eTowLjk0O2ZpbGw6I0U4RTNFMjt9JiN4YTsJLnN0NzR7ZmlsbDpub25lO3N0cm9rZTojODQ1QzQxO3N0cm9rZS13aWR0aDowLjE1O3N0cm9rZS1saW5lY2FwOnJvdW5kO3N0cm9rZS1saW5lam9pbjpyb3VuZDtzdHJva2UtbWl0ZXJsaW1pdDoxMDt9JiN4YTsJLnN0NzV7ZmlsbDpub25lO3N0cm9rZTojQUE5MzgzO3N0cm9rZS13aWR0aDowLjU7c3Ryb2tlLWxpbmVjYXA6cm91bmQ7c3Ryb2tlLWxpbmVqb2luOnJvdW5kO3N0cm9rZS1taXRlcmxpbWl0OjEwO30mI3hhOwkuc3Q3NntmaWxsOiMwMjY1QUY7fSYjeGE7CS5zdDc3e2ZpbGw6IzAwNEQ3Nzt9JiN4YTsJLnN0Nzh7ZmlsbDojNEQyMzkzO30mI3hhOwkuc3Q3OXtmaWxsOiM1RjQyN0M7fSYjeGE7CS5zdDgwe2ZpbGw6IzYyNDQ4MDt9JiN4YTsJLnN0ODF7ZmlsbDojRTFCNzg1O30mI3hhOwkuc3Q4MntvcGFjaXR5OjAuOTtmaWxsOiM4NDYyNDk7fSYjeGE7CS5zdDgze29wYWNpdHk6MC45NjtmaWxsOiNGN0Y4RkE7fSYjeGE7CS5zdDg0e2ZpbGw6I0Q4QUU3Qzt9JiN4YTsJLnN0ODV7ZmlsbDojRjJERUQxO30mI3hhOwkuc3Q4NntmaWxsOm5vbmU7c3Ryb2tlOiM4OTY1NEQ7c3Ryb2tlLXdpZHRoOjEuMjtzdHJva2UtbWl0ZXJsaW1pdDoxMDt9JiN4YTsJLnN0ODd7ZmlsbDpub25lO3N0cm9rZTojNUU1RTdDO3N0cm9rZS13aWR0aDo1LjU7c3Ryb2tlLWxpbmVjYXA6cm91bmQ7c3Ryb2tlLWxpbmVqb2luOnJvdW5kO3N0cm9rZS1taXRlcmxpbWl0OjEwO30mI3hhOwkuc3Q4OHtmaWxsOiNBM0EzQjI7fSYjeGE7CS5zdDg5e2ZpbGw6bm9uZTtzdHJva2U6IzFBNzNFODtzdHJva2UtbWl0ZXJsaW1pdDoxMDt9JiN4YTsJLnN0OTB7ZmlsbDojRDdBNTY4O30mI3hhOwkuc3Q5MXtmaWxsOm5vbmU7c3Ryb2tlOiM5MzlDQTM7c3Ryb2tlLXdpZHRoOjUuNTtzdHJva2UtbGluZWNhcDpyb3VuZDtzdHJva2UtbGluZWpvaW46cm91bmQ7c3Ryb2tlLW1pdGVybGltaXQ6MTA7fSYjeGE7CS5zdDkye2ZpbGw6IzFBNzNFODt9JiN4YTsJLnN0OTN7ZmlsbDpub25lO3N0cm9rZTojNDI4NUY0O3N0cm9rZS13aWR0aDoxLjI7c3Ryb2tlLW1pdGVybGltaXQ6MTA7fSYjeGE7CS5zdDk0e2ZpbGw6bm9uZTtzdHJva2U6I0ZGRkZGRjtzdHJva2Utd2lkdGg6NS41O3N0cm9rZS1saW5lY2FwOnJvdW5kO3N0cm9rZS1saW5lam9pbjpyb3VuZDtzdHJva2UtbWl0ZXJsaW1pdDoxMDt9JiN4YTsJLnN0OTV7ZmlsbDojRkZGRkZGO3N0cm9rZTojNDI4NUY0O3N0cm9rZS13aWR0aDoxLjU7c3Ryb2tlLW1pdGVybGltaXQ6MTA7fSYjeGE7CS5zdDk2e2ZpbGw6bm9uZTtzdHJva2U6IzFBNzNFODtzdHJva2Utd2lkdGg6MS44O3N0cm9rZS1taXRlcmxpbWl0OjEwO30mI3hhOwkuc3Q5N3tmaWxsOiNGRkZGRkY7c3Ryb2tlOiMxQTczRTg7c3Ryb2tlLXdpZHRoOjM7c3Ryb2tlLW1pdGVybGltaXQ6MTA7fSYjeGE7CS5zdDk4e2ZpbGw6bm9uZTtzdHJva2U6Izc3NzY3NztzdHJva2Utd2lkdGg6MjtzdHJva2UtbGluZWNhcDpyb3VuZDtzdHJva2UtbGluZWpvaW46cm91bmQ7c3Ryb2tlLW1pdGVybGltaXQ6MTA7fSYjeGE7CS5zdDk5e2ZpbGw6bm9uZTtzdHJva2U6I0E3OTZBODtzdHJva2Utd2lkdGg6MjtzdHJva2UtbGluZWNhcDpyb3VuZDtzdHJva2UtbGluZWpvaW46cm91bmQ7c3Ryb2tlLW1pdGVybGltaXQ6MTA7fSYjeGE7CS5zdDEwMHtmaWxsOm5vbmU7c3Ryb2tlOiM2NDY0NjQ7c3Ryb2tlLXdpZHRoOjI7c3Ryb2tlLW1pdGVybGltaXQ6MTA7fSYjeGE7CS5zdDEwMXtkaXNwbGF5Om5vbmU7fSYjeGE7CS5zdDEwMntkaXNwbGF5OmlubGluZTt9JiN4YTs8L3N0eWxlPiYjeGE7PGcgaWQ9ImJhY2siPiYjeGE7PC9nPiYjeGE7PGcgaWQ9ImJhY2tfeDJDX19lZGdlIj4mI3hhOzwvZz4mI3hhOzxnIGlkPSJmcm9udCI+JiN4YTs8L2c+JiN4YTs8ZyBpZD0iZnJvbnRfeDJDX19lZGdlIj4mI3hhOzwvZz4mI3hhOzxnIGlkPSJmaW5pc2giPiYjeGE7PC9nPiYjeGE7PGcgaWQ9ImJvcmRlciI+JiN4YTs8L2c+JiN4YTs8ZyBpZD0iZ3JpZCI+JiN4YTs8L2c+JiN4YTs8ZyBpZD0ia2V5bGluZXMiPiYjeGE7PC9nPiYjeGE7PGcgaWQ9InRyaW1fYXJlYSI+JiN4YTsJPHBhdGggZD0iTTE2Mi42LDEwNS4xbDE0LjUtNS4zdjE2LjdsLTMuOS0wLjVsLTQuMSwzLjhsLTYuNS0wLjNWMTA1LjF6IE0xNjIuNiwxMDUuMSIgY2xhc3M9InN0MzciLz4mI3hhOwk8Y2lyY2xlIHI9Ijg3LjUiIGN5PSI4Ny41IiBjeD0iODcuNSIgY2xhc3M9InN0NzYiLz4mI3hhOwk8cGF0aCBkPSJNMTE1LjIsOTMuNWMtMC4yLDEuMS0xLjYsOC43LDEuMSwxMS40YzYsNiwxNC4zLDExLjYsMTcuMiwxNC41YzIuOSwyLjksMS44LDcuMy0yLjMsMTEuMyYjeEE7JiM5OyYjOTtjLTQsNC04LjMsNS4zLTExLjMsMi4zYy0zLTMtOC41LTExLjItMTQuNS0xNy4yYy0yLjYtMi42LTkuNS0xLjUtMTEuMi0xLjJjLTQuMywxLjctOC44LDIuNS0xMy4zLDIuNmwzNi43LTM2LjcmI3hBOyYjOTsmIzk7QzExNy42LDg0LjgsMTE2LjgsODkuMywxMTUuMiw5My41eiIgY2xhc3M9InN0NTYiLz4mI3hhOwk8cGF0aCBkPSJNNTMuOCwxMDYuM2M1LjQsNS40LDEyLjEsOC44LDE5LDEwLjJMMTE3LDcyLjNjLTEuNC03LTQuOC0xMy42LTEwLjItMTljLTE0LjYtMTQuNi0zOC4xLTIwLjktNTYtMyYjeEE7JiM5OyYjOTtDMzIuOSw2OC4yLDM5LjIsOTEuNiw1My44LDEwNi4zeiIgY2xhc3M9InN0NTUiLz4mI3hhOwk8cGF0aCBkPSJNMTE3LjYsODAuNGMwLjEtMi0wLjctOC0wLjctOGwtNDQuMSw0NC4xYzAsMCw2LDAuNyw4LDAuN0wxMTcuNiw4MC40eiIgY2xhc3M9InN0NTUiLz4mI3hhOwk8Y2lyY2xlIHI9IjguMyIgY3k9IjEyNi4xIiBjeD0iNDcuMSIgY2xhc3M9InN0NzciLz4mI3hhOwk8Y2lyY2xlIHI9IjguMyIgY3k9IjEyMy40IiBjeD0iNDUiIGNsYXNzPSJzdDE1Ii8+JiN4YTsJPHBhdGggZD0iTTQ1LjUsMTMwLjJjLTQuNC0zLTUuNS04LjktMi41LTEzLjNjMC41LTAuNywxLTEuMywxLjYtMS44Yy0yLjUsMC4xLTQuOSwxLjQtNi40LDMuNiYjeEE7JiM5OyYjOTtjLTIuNiwzLjgtMS42LDksMi4yLDExLjZjMi4yLDEuNSw0LjksMS44LDcuMywxQzQ2LjksMTMxLDQ2LjIsMTMwLjYsNDUuNSwxMzAuMnoiIGNsYXNzPSJzdDU5Ii8+JiN4YTsJPHBhdGggZD0iTTk5LjEsOTguOWwzMS45LDMxLjljMC4xLDAsMC4xLTAuMSwwLjItMC4xYzQtNCw1LjItOC40LDIuMy0xMS4zYy0yLjktMi45LTExLjItOC41LTE3LjItMTQuNSYjeEE7JiM5OyYjOTtjLTIuOC0yLjgtMS4zLTEwLjQtMS4xLTExLjRjMS42LTQuMiwyLjQtOC42LDIuNS0xMy4xTDk5LjEsOTguOXoiIGNsYXNzPSJzdDU4Ii8+JiN4YTs8L2c+JiN4YTs8L3N2Zz4=;labelPosition=center;align=center;" vertex="1" parent="1">
          <mxGeometry x="80" y="230" width="80" height="80" as="geometry" />
        </mxCell>
        <mxCell id="9fN0THQdX7Je8e2T6aCW-9" style="edgeStyle=orthogonalEdgeStyle;rounded=0;orthogonalLoop=1;jettySize=auto;html=1;entryX=0;entryY=0.5;entryDx=0;entryDy=0;startArrow=classic;startFill=1;" edge="1" parent="1" source="9fN0THQdX7Je8e2T6aCW-3" target="9fN0THQdX7Je8e2T6aCW-8">
          <mxGeometry relative="1" as="geometry" />
        </mxCell>
        <mxCell id="9fN0THQdX7Je8e2T6aCW-3" value="Awala " style="shape=image;verticalLabelPosition=bottom;labelBackgroundColor=none;verticalAlign=top;aspect=fixed;imageAspect=0;image=data:image/png,iVBORw0KGgoAAAANSUhEUgAAAjYAAAHFCAYAAADhWLMfAAABjGlDQ1BHSU1QIGJ1aWx0LWluIHNSR0IAACiRfZE9SMNAHMVfU6UiFQU7iDhkqE4W/ELESatQhAqhVmjVweTSD6FJQ5Li4ii4Fhz8WKw6uDjr6uAqCIIfIG5uToouUuL/kkKLGA+O+/Hu3uPuHSDUSkyz2kYATbfNVCIuZrIrYugVQYTRg1FMy8wyZiUpCd/xdY8AX+9iPMv/3J+jS81ZDAiIxDPMMG3ideLJTdvgvE8cYUVZJT4nHjbpgsSPXFc8fuNccFngmREznZojjhCLhRZWWpgVTY14gjiqajrlCxmPVc5bnLVShTXuyV8YzunLS1ynOYAEFrAICSIUVLCBEmzEaNVJsZCi/biPv9/1S+RSyLUBRo55lKFBdv3gf/C7Wys/PuYlheNA+4vjfAwCoV2gXnWc72PHqZ8AwWfgSm/6yzVg6pP0alOLHgHd28DFdVNT9oDLHaDvyZBN2ZWCNIV8Hng/o2/KAr23QOeq11tjH6cPQJq6St4AB4fAUIGy13ze3dHa279nGv39AMUKcsiY8VKIAAAACXBIWXMAAC4jAAAuIwF4pT92AAATDHpUWHRSYXcgcHJvZmlsZSB0eXBlIGV4aWYAAGiB3ZprliwpjoT/s4pZAi8JWA4gOGd2MMufTx4RWffZdft0/erMmxlZ/sBBMpmZ8Arn//73hv/hS2LVUKV1HaqRrzrqyJM/enx9zed3ivX5/XytHfP76HfHw9eJzKHCZ3md6Pr6TJ/j7xs+n2nyl3wzUN/vE+v7E6O+PnP/YaD3g4rPyKdg74HGe6CSXyfSe4D5WlbU0dt3Szuvz/f9rzDwE/zX3Xn4MVmvcz/+d21Ez4TnlJxPSSXyO5f8mkDxnxTK5I/C78RFTLgofwvHZqklvWdCQH4Vp6+vZ0Y/ZOXrr/Sb4z8kpejreODA98HUr89fHk/y6+CHJ8TfPLnsryd/d7yVlH9czufnXuvh3vNa3axKSPW9qM9Snr+4kLDX8tymfDd+hL/b8z347gH0blJuccfF904jZdJyU02WZrrpPJ87baZY88mNz5w3ifJjvbQ88i4xkKfq3+nmVkax0knmJr2Fo/lrLul57nget1PnwZa4MicGSw6F4L/+ie/fDnSvQz6l2L9ixbyyB5xpeOb8N1eRkHQ/OJInwJ/vH788r4UMyhPmzgJnXK8hlqQ3thxH5Ul04UKIJb5qLTV7D0CIeLYwmVTIQNRUJGmKLeeWEnHs5GcyUM+l5kUKkkg2ZplrKUpyevZnc09Lz7VZ8uswnEUihGJqpGaUSa4qxAZ+Wu1gaEqRKiIqTboMmVq0qqhqUye/2UqrTZq21nobbfbSa5euvfUe+uhz5FEgRxk62uhjjDl56GTkyd2TC+ZceZVVlyxdbfU11tzAZ9ctW3fbPeyxp2UrBk+YWrNuw+ZJByideuToaaefceYFarfceuXqbbffcedX1lJ4pfWn7z/PWvpkLT+Z8gvbV9a4tbXPEMnpRDxnZCzXRMabZ8AJzHMWe6o1B0+d5yyOTFVIZpbiybHkGSOD9aQsN33l7q/MfZe3UOt/lLf8yVzw1P0TmQueut9k7ue8/SJr5mqzYwlPhrwMPaixUH5ccPrMfbqo/fFn+Hdv+G8eaM1h8VJDrY8iu0lJ0ou5G6m3FNt390msyx5wo9RN5vM81pHolpvWfgQQHHC4b292crGI8twytw8aIrp+bOuVcns8tZ2cF1AD/ZKl1Z0FUDfVVIV/iNCvpxv+swCN6xy5b8YfndSNiRSjGuso12s7qiSxegYmppgwXdG6gKm2tFq5ax/K7x7H6e0nL8vEqBS09sZuc25lzU2OWcerOKKl5majUrGXCjbFt3DpHWPV3B32tfVzCEWIZ65pda50KItm1M3Q0vfMbc9yplkkbLostSqXsm8D6WwcKZSsrNnchNoOPPZOPXgH0mZtoblxF70p78Zv5rKhs82DJnYBbYnU9+rkiaIlfbXMmSj/MG9fUsbliTuVk65heRbRGBwZm9Ur1oIi3Zt63cAoeqyPggnYTxvuYyjkT67NFDQ5xqzBH+dCZh1y4Lj25Ym4konNKfJkBMLpiwFbqrdq61OX3BDJyYz5ZmVhRI2M4i32gf1OuUZiKsYnkycmDqSlYk5AM8h0vtVdWbtYDMegmPKAXi60iIFPapF0kEnZG/dicfXtAc4dtkwMneYZXfPRdTIo0XFS0MwQjIMt6pO5LbEL63qwUAg7e8itZ8HMGXY/AlhOb6sZJcZAUBu8ltcNKZ6+0qo3VmQYgq+sEuSMls5dHhkZk4E057HvpPZkeMUysRYvfD/Ic5EV9tQ88GF9YtEEOM+RbifXBwinJ0OY/7//DF8HpqEFYzQAXk92H8gCj0rGFy7sIMJsLRnlwJl6OxhfdryqRNcAR1uxeoNTVNwAKphAJKQPq0QYTKMQaEO7cZZN6trl0gjGe5E7an4Ql8ERlatMxE1tIc+1EZU05m36ZHKDfyYA18AuuKbSqGmlNIAwZ6mzmPh3G5K9VupnTwFBeUM7RL9MaaWuVO3QhGBr04ae5jaiSeHeqJCBiowlcQ3YyixUV2uKvRkhAXupkxkwkKY1RLYQIOtTqOluvUIV7wvl8I+Zp7W1UfmBkKCjKp30wp2b4oSVD0iEU1F4K6NtZLpScpm5jOPaiCXQRmVN1PZGs7UDLmVRe32QjUsckp5V+9oLB8JC8u5QMGruJUbkpXcqUtKaqxbQTQ8Lz802AjkS3QYJDKG6FxcRBJsVyM6DHUIKLHvdzjRh8NPaggwGP551hm5XyVhgtqxkbdgU0okZ8VjxnEKoCqEiidlQFRwRjd7Z1xq6AajPLvBGgw6YCCUX4ip0o0//sbxuuLlwqVG8fEccRhqAi0EUY0L/IC8wQ2aPrsQEzwKSQJpB7MRGHNwL5Ob0vObZqze5tJeHIQdxHcBQ7YCLfPpoR2maJkwSaWsAYNjFa4s6dhbD3ODXKEZc1thgKLcFcctDfQ7T01MesszKVEzOAmSweN8XYsPcwLx3N1deKAk9ggOi938NLEAc4txMuzW91ij+vKssgdiZHGUIvOiqwu4YSHKCjhER9VAW5Mt5kbltUCltitdYhFERByfTwQLhQYiHFq60c04Nl8gwUIfVylnwpTJhLBzBMqWyAVUciXqgzxi7TW1MTDbZ5aGeqSnIW7w4f6LyiPDKP6vyMqxh8dLnw5Kz+Z194xOhzZ1ATMHGGyYkuOt1AwKUIBhEErKkBnC99yzCe7Ek7jYPqV54VWetjg02M9Qbt5t08JQYFpXAzeKS2LE4ffh2iMMUAoM304BNbqa2mQP20xQoNcmMHRFYZMMEQ3TDJFYJ8Srnwn49FRzwQhnA36GEEdLqPuNklgAMD9Tn+NPDcUpfsMyw90iBnPifSEe7/vAhzI+6xQrQEGDqSf88JJ2q0uSbQR26IKDCAm3PlDEMFE2gir33yzTodCKLsWsb0avtdMJD0AvUg3VuZYF4iUNtCsIPB3dQsw3xgTKxNUMrZGlEmjsXqg0OxG9qOIQxjWFYKY7f/x08YI/qYXNgOemQVWYVNlY/I+OXMjgR/FGuGKEJYE9UKIOhxiVLVD8cmEwnRA4Vgz5kATok9DQvoVgHFwTAaFOoNWY586bHaHctJr/npPpXJ8JZBqyE4wTJPAGijnUDnVp2OwFigqxqWbbaHjCpTrdg28MOan3voyopVvwJFtAJUJkza9KMkVorcwlgC8RGkVfLx8sEX2EssmyqNS2HjfdRxJ1qAeprkGq3GbDj3IJh9qYcqbkW8DK6lPqB4WGGw6MofU5Su+TxZHgT1alCvziwsVbaFrgdwzHHtnIGHoKKCuNpUQfCHMvEEDhH8iAlStc9BdOwRVmgA8DIO0caUmbqOg2FoZK4D+IZTK8yNQ5WCoqU01165Xema3KYRWV+TK+4oaRqUR9Xj9GA7YCbiEFNekOGzRG2tg79sRt/Zk6JCbbT0A5YPJ1F/eOyyeA6jUKuLS78X2WZPJV2G/8QhtPHfHUrMO5fPgWiopnEOO7j7Ewkn4E0//pMoDdNDji0NVPU+hqTrmRnqtURV26mu8TETwiFxoa+BwWl4lAinBZtwoEcQiLwrN1dH7aBqM69O5ivJJ2I0h5cCJGMkE0yCbng12FCuqbBP2j2IbsUMKtZYvnZguFscLasQWMfExp9eVwndWyK+D4gsowkHPI8dwB1BBSbcm/CdIEZgAgN3eWa5HaJEXDOzXcGoj57f3DMVipneOFQCwXYBkLFrdONCBVENrGdDTftkEArjDVAHBTJ3nDrvMuJG96eGCpEgkXi2y1X0r/Aa0IojLvzojVykLsRRSOo31kQYiYrG9bGXGzMkNJkxVy8CBcXZ2xPaIR08GR6UXoLmjgaFKRbveznRgFmF5okn9R6y/2ulBsQ+wCs+dzxkMhr9UYVscXc0c3R0YncgjjSgFI3m1ig1U8rimrs95++b4sgmG8i4Y9QB4It3OXj7i3fnPz+HL6p0AhQIBXmt9e4UOtr3OADfx5geSLrbcFqyDhzJm7NweCsDMthwOPTHcJPJCzPwWH4CTcBH7EgFAMve5RwilMEzRNg9b6C5KMOcxMtMOrWx50RMkjHZbkgb6635CYHWkqaSKHZwABrEmdmQQb6wvnhrbCLqCvKYdhfLOx+HLtjLlFd1/d+6P92D3hM77BOhMHBRkLPkVjuZYZIJ20Tbrivx/FB0ChdoqGgp6XO9mj0UHRKLDKkLNXLQjDAGJGJK8bPwitcEl37csapAWf4Govd48fxJU807uqd6vBXrt8E9B06HByvNDEH72efYcQo68+IGFVsq4blt7oQMIq8Bk2vUz+d2YLHQzVe6CroD+p6cbp66LKbQVD5SSd+EReRjRYW8uysclMzXbx/7uI7bBjzHEfdDNCv04Cz6ijoiYbszSuuIKk+XRHUSAnhNFxSMbBoE4hAYxnMp0Vmk4uKqku1+ZucdDGLwUAmdEunyzVgg46HpmJBNfQZcZOxWZ/txLgBUgR0GC5i/mXqSCQNn4aGvcJpZzjIWdPrgdVhWWEP8ohtEtosxvLtxk94M00T47rEm2eQ3ipgMG8Dy3MAgJzBE2bnF5s81K3zPVLmSceK8xsdGN6y0xuO4AfwOWNdpvERnJcSoGVk+j0Uvcf4xqS62ZTXvS+7Gcb8jN3nz6c/Z1Fu+rOBL6Rq65gD7UECyDUj40tbDOgCHgG5LBRXdRdA51/QOCrBgRwbldOA9ip0yyjZoVbRYoBuqLC/kqruLAPdLVwVCV6B191R4wOs4ri24oPg4IKvp3e+T1p1r4OVzhhG7BD0TYKX73dhj2nfcAic5DKNMIIwoQSutrgt2HRL198aFcQe/+TbHRlDhtQ1jkIiPK1oAJgZ1cRz0Z/R3FQaeR3UlrsHXw9Egn9S+jBwSqOERiM/eAgbtDjJN6UzzWJQcoPPmuKbN486end0H9L8Djv/+jOF9Gva/8mL/B0ZhG/ZIMmMrWPuaBR0T6gYxoN2jzsHuiHaRym++eDK4+l2V3cwkbQAYfmmV6ZvPYAXyXbadqcJU8811ZshiAA9xB+fTOMmdFoDJ2KkiTYOg5GzPB2kdFpFpv/0o7QuvlUJ1nhgrtV32VlppPQxcKjLGsAuPkoIK6Xi+34kWQLNhBcXmoNIDH+1xMSi1U81QEMGNVVm5HZVoWh/A8DnNfR3Q+nLd10CHYXiokgidqD5hj3Zx6sA/NQH9ZBcvGmUna7whWBnoHDP245WQD4LLaApEF9MPK4VpNHazILZp8RaY8RnphOH8QdwCI/IVt+aJdwv2cVBzeWeiD4qw2JK97oquH4KeAMSVgNAID3v8BCkk2NQTF8nMQemsqfRxzbn+5QFPLVhktf+ru8BYaP68C1ec2Kgfgomsxn9HLqWuB0+oGfZFfCDp47vHeZ70/nATIgrLO9NIPYIfyF1SKn0STJ9w/1tiYOU/LutvPKoMyFeT0d/sVx0l164dDNlZN/LxogmPGKboSgK7puuc2Fp4MrSDYeopwt98ym+JfDewN8efQiu5sSQqD9kQuuTnh0+2vUooGYVWZjEvRJulzEV9kjJNyhoDUDkVGVeWEa3AEtT87alpu0WGntAd+St4KU0zNF6+0KiSPyiZ+mPzSroJf5vXU8Wbmv79kM/Tp/PfinmqPlecEgEqty6aG4q3SjupbqVwjZRg6APGDY36t2N71HvTBNWxinr/T6iPvEOT1TT662Tecv1TcAnruTgtXxPrBy1SxAaUgzDXXLp24yAYBRcHTg6tgYETz/te/cT4wPoUeluVesqz/8WcbnhektxT8ZC0ADCtQZxXJrbar49Hzw+DEA1Az/zl3sjQ9VHhu/1gZp1hLwk8x100g5l03nAcG6SeTD4xEy0HZBrGg4aneL77tiMRosIT/q7B1IDUlyqpF04jiLYRB0qFWoSAulwh2/7kd5nRr4nftyO90ofwxoxZ+j/K5ZW92/e8vzB2yxcELb3mArKA75y9b1D31QBV/Sk8OPW7u970DSiOJKGWdI03+SiIpBkrb5tDbQeCYj05pT98C2zlDPWazi5eeXD6H1T4OZd0xI4mxp0HVmOF+JJFZnrLfp1R/P+FLi5mTvqwk7rAtRpVZC01ctaNyswuyO0JXQ3F2+gkS4brK470Ib72ijwNz/V3/dg0aVSOpcK3NAernpE8r6e/UIb4WmS0JoF0x8YFovvklK90OhhYShJDUiUycJYjPh2CCoKB61E8dFgcgafjSpBQdk5cVff3q3XX4FhrZEWQM2A3vI/9ipuhESZDIHGX46Mxj2OggkHBSDO9kW9Ez7+2jm9KJVwDvyXswQQoSQgGVTBN7whS3+XY7gXoNnjkB2uMYXiu3pNqm/8woiYNtBIsScUh7D7MqEjOMg6QdAG2ZWGsW5PioFsOUHdBfaBfy307Fjqg/ZgzQcrpUR9E7mywH62v1rBjmR88Evy67eaEv7Ia/zB52cgncf9QDXvS8k1HEgeFXFGMssi0wVYGiZfxd9V0kJS1pTp8rcB9O5hQn+Dvg5WWU2ft2DXhTrdPEFi9I2L5U/Lz/u4tJSsvnrOkn4xo39saf+1A4FlGziK/wcClVZO3A+2UQAAA8FpVFh0WE1MOmNvbS5hZG9iZS54bXAAAQBVVEYtOABYTUw6Y29tLmFkb2JlLnhtcABYhe1YzW7jNhC+5ykE7aVFQZH6tSRICdIk2zUQN0EctL1S1MhWo79KdCTn1XroI/UVSlJeR25Sbw9doAf75Jn55psZzgxpOLoYGsqegGsJrPIq1v/8/Q9dy9NY/9ldkEVzBev800sLy5cfH9nLEwtS/eL8LBrCoWxK4FQbyqLqwiHWaVonEIrvUo11TUH4U6z/srjXruoWNMdwDIJuhvzZ0s/PtKhNs/Dh+uOOQkixvua8CTHu+97obaNuV9gMggATC1sWEgjUbStOB1R1HyTFyHENHWvzhud1pUmZJvWGx7ou7NqOXFjZzcD3AaSs6Due4rkQHJGsAGCLEB8RC1kBnvoL62Kx9646Q1VrsLrEA22waRBclgceHb955sc9usdtA/gBunrTMrh5hop/mFI0xaabMmw6kCqVd5FmWCSleKY+P8wX9wfHuMrLRnlI9BSZsj2u2bSFwqQMQwGlSKQTzOYBnudZ9n490vImERHuePUKrM41vK7ZRgadX8e6zDdMa5anofoKVpaaAcmQl9gZcuwsQT7xLERm4Lg2eMSzvQnVvOo4rRhIKqExcsET2J6XEWIiL/Ud5GTUR4HrzxBYHvUS5niWl00o7tpcbAItpllJqlRQ+ZYZWBmkiCSWj5zAdVCSuAGiphsIKpsmzFVUsg/h5f081i2DvGruC8qzui1j/TavNsOr4TEvYcmpPDTTM13Xm/mO6fpi+v1X0E/QdmLIJadJDMtSlpSFHwUjFcOWl3QFuKlWyiDbIosRJVCu3MzPVYZXLVBet491XcS65NYkpVopLdotS3hbM+WowJAq47hx39MVHrH4GPgN03Jd99W/43mF7lkuW97X7dNde5f8Cowf53kPvGd6EHddx9vt/AtF/Q0XjQPySejqdjtxXcJvozSKRT4KmroEQsrG4+/oM6T6gYmtabUCcdviQ33+zhibmeOzwAE0M4kY48SxkZgPQG5mi7H0zcxm3iFLV2e8py1crsQMiD6LfVJ91r5R0/ftIbpfg0jyO0JCQnT89esRBdCE2AFyZkxsNnVdlDgWINMBNvNmDqQO/Nf1RHjargi/bWgkr9hwLjdpuWmaIof2sNGfZ+QfcBP/3ZJ9yX0KG72v6mYrLqE1v+uro+HfAY4MtzmDqjsaewoZj2XyjsrnGe/eZ/Hc4/17vxuLr/w5BTkFOQU5BTkFOQU5BflfBTmL9v8YQCV+6PX6xflf7RGCZHAyW8QAACAASURBVHic7d1dbFtpft/xPw9F80UU9WLTskZj2JPMJtmLZAboRQsUwS4KBCiCFmskN7kosLpo98Zoa6RBuotigQlawEXRANOLAoUvWhvIAr0qPC3g6/Hl3LQ7QdIi2cGOtbYsSpRIkZIoUuQ57MXhkWhZJM/heX+e7wdYJNiVpWdnd6nfPM//RQQAAAAA4E7txeNPay8er8R9DgDqy8R9AABqqr14fF9EHojIIxG5JyItEXkuIk/v/P5PvozvZABURrABEKjai8cPRGRLRH4w5cu2ReRzEXl+5/d/8iqCYwHQBMEGgG+j25lHYgeaZY9//AuxA87TYE8FQEcEGwBzGdXMOE9NnwTwLVsi8lTsp6qfB/D9AGiIYAPAk9qLx98X+2bmhyH+mK/lMuQchfhzACiGYANgptFT09boH/ci/vHPxH6qeh7xzwWQQgQbABPVXjzeEvu5aVohcFS2xe6q+pyCYwCTEGwAvKP24vGnYtfNPBDvhcBReSn2U9VznqoAjCPYAHAKgbdG/wiiEDgqzmyczyk4BiBCsAG05nLmTFowGwcAwQbQzdjMmQcSfSFwVL4Qu6OKgmNAMwQbQANjM2e2ROR78Z4mUszGATRDsAEUNjZzJsmFwFH5Wi6fqig4BhRFsAEUc83ySbyP2TiAogg2gCIUKwSOyrZcPlW9ivcoAIJAsAFSbDRzZkvmWz6JdzEbB1AAwQZImRCWT+JdzMYBUoxgA6TE6KnpgYS7fBLvcmbjsIwTSAmCDZBgMS+fxLuYjQOkAMEGSKDR8skt0WvmTFo4s3FYxgkkEMEGSIiULJ/Eu5iNAyQMwQaI0djySWbOpN8zsZ+qvoz7IIDOCDZADJg5ozRm4wAxItgAEdFk+STe9VLsgPM07oMAuiDYACFi5gxGmI0DRIRgA4SA5ZOYgtk4QIgINkBAmDmDOTAbBwgYwQbwaTRz5oFQCIz5bcvlU9WrmM8CpBrBBpgDyycRImbjAD4QbACXxmbObAmFwAifU3DMbBzAA4INMAPLJ5EAzMYBXCLYANegEBgJ9oXYz1RP4z4IkEQEG2BkbObMlrB8EsnHbBzgGgQbaI/lk1DA13L5VEXBMbRGsIGWRk9NzkRgnpqgEmbjQGsEG2iF5ZPQCLNxoCWCDZQ3tnxyS3hqgp5eiv1UxWwcKI9gAyWxfBK4FrNxoDyCDZQytnySmTPAdM4yzuc8VUElBBukHjNnAN+YjQNlEGyQWiyfBALXksu2cWbjIJUINkiVv/7ZT363fnj05/kbud/+8IPbhdxCNu4jAapiNg5SiWCDxKu9eLzyi1+++fOj9skfHjZa73Q1bW7cktu31mS9uhrX8QAdPBP7qYrZOEg8gg0S6+tnf/qj2v7hv64fHv3aYGBO/dpiIS+bG7dkc6MqxUI+ohMC2mE2DhKPYINE+T//7U9+5+T07D/u1RvfOzk9uzHP97h9a1XWq6uyuVEN+ngALjEbB4lEsEHsai8er/xy++2Pj1onW42j9vqs2xm3FhaysrlRlc2NqlTKpUC+J4D3sIwTiUKwQWz+93/9V3/UPun8cW3/8O90u+dGmD9rqVyS+3fvyO3qmlBwDISG2TiIHcEGkaq9eHz/F79889PW8ekfHRwexXKNsrlxSzbvVGVttRLHjwd0wTJOxIJgg0h4KQSOCgXHQCSYjYNIEWwQmr/+2U9+t9Fs/3T/oPkPjk86iX7/uX3LLjambRwI1ddy+VRFwTFCQbBBoJxC4Fb79J8dNltrSbmdccspOL5/9w63OEC4mI2DUBBsEIivn/3pj/bqjYeNZvt3ur3zuI8TCAqOgUhsy+VT1at4jwIVEGwwt9qLx/d/uf323zeOjv/xweFRqdsdiGUOZWHBkOyCIdmsGv/1WljI2nNxKDgGwsZsHPimxm8eROqv/uLHf7JbO3i0d9DcHH9qGg5FTNOSQd8SyxpKJpORXM6Q7EJGMhk1/qtWLOTl3t07srlR5RYHCA+zcTA3NX7bIHR//bOf/O5R6/hxbb/x99wUAg+HQ+n3LTEHlgyHItmsIQu5jGSzoY6riRQFx0AknNk4LOOEKwQbTFR78Xhl+03t3x21Tn5YPzwqz1sIPBhYMhhYYpn2Lc7CQkYWcoZStzi3q6sUHAPhYzYOZlLjNwsC9fWzP/3RQePojw8OW7951u0F9n2Hw6EM+pYMBkMZDodiZDOysGDIwoI6tzhrKxV74zgFx0CYnNk4LOPEewg2EJGLicBPWsenfz+KicB2Lc5QTNOSTEYku2BITqFbHKfg+N7dDfZUAeFiNg7eocZvEcyl9uLxys5u/V80W8f/vLbfuBXHzJnhcCjmwK7HGQ6HYhj2M1U2a4giGYeCYyA6z8R+qvoy7oMgPor86oAXf/Pf/80/Omi0fuy2EDgqpjkUc1SPk8k4BceGGIY6/zXd3Lglt2+tUXAMhIvZOBpT5zcGpqq9eHz/9dv9zxrN9h/u7h2W4z7PNMOhXAQcyxrd4oxm46h0i8OeKiASL8UOOE/jPgiiocivCUzyV3/x4z/Zqzf+adCFwFGxLLvg2DTttnHVhv+JXBYcb25U4z4KoDJm42hCnd8OuFB78fjTX/zyzX9oH59+v354lIv7PEHQYfgfBcdAZJiNozA1fiNAai8er4jI1tvawb/8v3/76n7alk96ocPwP/ZUAZFhNo5iCDYpV3vx+IGIPBCRHzr/XPukI9uvd2Wv3hSVA46I+sP/ROyCY/ZUAaHblsunqlcxnwU+qPPpr5Hai8f3RWRr9I970752Z7cuO7sH0jhqh3+wGOkw/I+CYyAyzMZJMYJNSoyemh6IHWa+5/XPn3V7FyEnjUXEXqg+/E/E3lO1Xl2l4BgIl1NwzGycFFHnk15RtRePPxWRR2KHmuUgvudevSk7u3XZP2gG8e0SS4fhfwsLWdncqLKnCggfs3FSQpGPd7WMnpoeiB1opj41+dEfmLKzW5ft1zUNbnHUH/5HwTEQmS/EfqZ6GvdB8D51PtUVMCoE3hKRH0T9sxvNtuzU6soXHOsw/M9pG6fgGAgds3ESSJGP8vQa3c48EjvQBPLU5Ed/YMp+vSGvXtfk+KQT93FCpcPwP2dP1Xp1lacqIFxfy+VTFQXHMVLnEzxFxgqBH4nIJzEfZ6L2SWdUcFxX/xZH8eF/InbB8eZGlT1VQPiYjRMjdT61U6D24vH3xb6Z+eH0r0yenV37mUqHgmPVh/9RcAxEhtk4MSDYhMzLzJk00KltXIfhf86eKgqOgdC9FPupitk4IVPnEzphai8eb8mcM2fSwr7BacjO7kHcRwmVDsP/2FMFRIbZOCEj2AQojJkzaaBX27j6w/+cguPNjSq3OEC4nGWcz3mqCo46n8YxcZZPjv6R2ELgqOiyp0qH4X8iFBwDEWI2TkAU+giOVpwzZ9JAp7ZxHYb/sacKiExLLtvGmY0zB3U+eSMwNnPmgShQCByVs25PXr2u6dE2rvjwP5HLgmP2VAGhYzbOHBT6uA2H3+WTeJcue6p0GP5HwTEQqWdiP1UxG2cGdT5lAzY2c0arQuCo6NI2rsvwv6VySTY3qhQcA+FjNs4M6nyyBiCq5ZN4l7OnSoe2cdWH/4mIPRfn1hoFx0D4mI1zDYKNXMyceSAUAsfKaRvf2a0rX3Csw/A/Co6ByDAbZ4w6n6IejWbObElClk/iXTq1jas+/E/Ebhtfr65ScAyET/vZOFoFm7Qsn8Qlp218Z/dAGkftuI8TKh2G/zl7qjY3qhQcA+HTchmnOp+YU4xmzjyQFC6fxCWnbXy/3lS84FiP4X9L5ZLcv3uHPVVA+LSajaPQx+S7VFs+iXfp0jauw/A/EbvgePNOVdZWK3EfBVDd13L5VKVkwbFan46S8uWTRk6ksimyuC5i9UXaOyKne3GfKtHOuj3ZqzeV31Oly/A/Z0/VenWVgmMgfErOxlHiIzH1yycX1y8DzVWDM5H2G5GjbTvsYCJd2sZ1GP4nwp4qIELbcvlU9Sreo/iX2k/CseWT6Zw5kyuKLN8XqXwoYiy4+zPHO3bIOWuEerS002VPlS7D/5yC4/t373CLA4Qv9bNxUvfpl+rlk0ZOpHzbDjR5H7UEvbZI65XIyT63ODPo1Dauw/A/Co6ByDizcT5PW8FxKoLN2PLJLUnrU1N5XWRpM9jvaw3sG5zWK5H+WbDfW0HOCgfV28Z1GP7n7Kmi4BiIRKpm4yT2ky71M2dyRTvIVD4UWSiG//POGiJHryg2dkGfPVV6DP9zCo7ZUwVEIvGzcRIXbFK9fNJ5alr6UKS4Fs8ZKDb2RJ+2cfWH/4lQcAxEyJmNk7hlnIn4VEv9zJnimn0zs7juvhA4ChQbu+bsqVK/bVyP4X/FQl5uV1cpOAaikajZOLF+lKV6+WSuaAeZlfvRPDX5QbGxJ07buOoFx7oM/1tbqdgbxyk4BqLwTGJexhn5J1jql08682aumzmTdBQbe6JV27gGw/+cguN7dzfYUwWEL7bZOJF8bI3NnNmSNBYC5yv2zUzSnpr8oNjYk/ZJZ1RwXFf6FkeX4X9L5dLFMk5ucYDQvRQ74DyN4oeF+mmV6uWTznqDpU1/M2eSjmJjz3Z27WcqlQuOdRn+J2Lvqbp9a42CYyB8kczGCfwTamzmzANJYyHwtPUGqqPY2BOd2sZ1GP5XLOTtZZwbVQqOgfA5s3GeBl1wHEiwGZs5syVpXD6Zr1zOnFHlqckPio09s29wGsrvqdJh+J/IZcHx5kY17qMAOgh0No6vT6NUL58Mar2Byig29kyntnEdhv85e6o2N6oUHAPhC2Q2judgM3pqciYCp/OpKYz1Bqqj2NgzXfZU6TL8jz1VQKTmno3j+pMn1csnnU3a5fXkz5xJOoqNPXPaxlXfU6XL8D8Ru+CYPVVAJJyCY9ezcaZ+3KR6+WQS1huojmJjz866PXn1uqZ827guw/8oOAYi5Wo2znufMqlfPpnU9QYqo9h4LjrsqdJl+J+IvadqvbpKwTEQjS/EfqZ6evVfuPhoGVs+mb6ZM1Fv0sb1KDaeiy5t47oM/3MKjtlTBUTivdk4mdf/89/+l9zCwj+UNBYCO37t97idSRqKjefi7KlSuW1cp+F/FBwDkfq6fXL6P7L/5Pd+53/JcJi5cePGMJPJ5OI+1VxWf10ko1abaerliiJLG5ezgXrHIkMr7lMlXrGYl/Xqmty7uyH5Gznpnffl/Fyt571MRi4KixdyhgzFno/T71tiWZf/ugrOz/uyf9CU1zt7cto5k9zCghSL3OIAQRuYZuv1br3yq529SuarJw+HIiKGYUipWDxbXV4+NwwjXYXCzlPUykfc3CQZxcZz0aVtXJfhf8VCXu7dvSPr1VWeqgCfOmfdvd39w8reQdOpQ3l5EWzGFfJ5WVtZ2cvlcunaK2DkRFbuUWuTdBQbz82pxVG9bVyH4X8idsHx5kaVPVWAR83W8eu3ewd3W8enV/+l64ONY2FhQVaXl/eKhUIlk8mkKylUNkXWvkPASTKKjefmtI3v15tKFxzrMvyvWMjL7eoqBcfAFMPh8Ozt3sF5rd5c7p2fT/qy6cHGYRiGLC8ttcqLi5ZhGOn6W4vimh1wmGWTbBQbz02PtnF9hv85e6ooOAZsA9Nsbb+p3ThstosDc+ZzvLtgM668uHhWKZfbqXumcubbsEoh2ZhsPLezbk/26k3l91TpMvxvYSEr69VVuXd3gz1V0FLnrLv37evd9Wuem6bxHmwchXxeKktLr4uFwt15/nxsckX7BocBfslHsfHctGkb12T4n1NwvLlR5RYHShsOh2fN1nH729e19SnPTdPMH2wcCwsLsrS42Foql2+kqg7HKTSmkyr5KDaem7On6tXrmhyfdOI+Tmh0Gf4nQsEx1GSaZrNWbxg7tYNlF89N0/gPNo7Utos7O6UoNE4+ayCy95fU4cypfdIZdVWpu6dKp+F/7KmCCq5p1/YruGAzLrXt4pVNlmYmXeMXIo1v4j5F6unSNt7vW2IO7FscuxYnI9msem3jTsExe6qQFlPatf0KJ9g4UtsuTidVcu3/pUh7J+5TKEOXPVW6DP+j4BhJ5rJd269wg40jte3iTqExnVTxsgb281PjF8y7CZEubeO6DP9bKpdkc6NKwTFi57Fd269ogs24VLaLs7IhHoMze7ZNe4ei4Qj1B6bs7NY1aBvXY/ifiNjPVHeqsrZaifso0Mic7dp+RR9sHKlsF2dlQzTOGiLHb3hySgCnbVzlPVU6Df+j4BhhC6Bd26/4go0jte3irGwI3vGOfUPTU7egNa10aRvXZfifiN02vl5dpeAYgQiwXduv+IPNuPLiYvraxSk09scaiBx9y6ThFHH2VCnfNq7J8L+FhexFLQ4Fx/Cqd94/eLO7vxhgu7ZfyQo2jkI+LyvLy6/zN26k55mKlQ3eOEP3eG5KtZ1d+5lK5YJjnYb/LZVLcv/uHfZUYaYQ27X9SmawcaSyXZyVDdOxJkFJOrSN6zT8T4SCY7xvOBye7R8enb7Zrd+KqX7GjWQHG4dhGLK0uNisLC0ZqXmmYmXDJWtgh5nWK9q1NWDf4DQU31Olz/A/Z0/VenWVgmNNRdyu7Vc6gs241LWL67yyYXBmz55hx5OWdGkb12X4nwh7qnTTOevu/ert/nrKJpSnL9g4buRyslyp7JWKxXQEHBF9VjacNezuJnY6YaR90pHt17vKt43rMvzPKTi+f/cOtzgKahy192Js1/YrvcHGkcp2cRU7qZgODBectnHV91TpNPyPgmM1JKhd26/0B5txqWsXV2Flw+DMrp+hXRse6dE2rs/wP/ZUpVMC27X9UivYOFLXLp7GlQ1MB0aAdNhTpdPwP6fgmD1VyZXgdm2/1Aw2jtS1i6dhZQPTgREibdrGNRn+J0LBcZKkpF3bL7WDjSOV7eJJWtngTAc+3qF+BpFx9lSp3Dau0/C/YiEvt6urFBzHIGXt2n7pEWzGpa5dPM5CY6ddm+cmxMhpG9/ZrSu7p0q34X9rKxXZ3LhFwXHIUtqu7Zd+wcaRunbxKFc2nO7Zz01MB0bC6NI2rsvwPwqOw9E4au+93t1fP+104z5KHPQNNo7UtYuHtbKB6cBIGacWR+W/G9Vp+N9SuXSxjJNbHO+Gw+HZ272DcwXatf0i2IxLVbt4UCsbBmf27Ux7h3ZtpJLTNr5fbypccKzP8D8Re0/V7VtrFBy7oGC7tl8Em+ukql183pUNTAeGgvRoG9dn+F+xkLeXcW5UKTi+4vi08/pXO3sqtmv7RbCZJnXt4m5WNhzvMB0Yyjvr9mSv3lR6T5VOw/9ELguONzeqcR8lNpq0a/tFsHEjde3iVzupmA4MjenQNq7T8D9nT9XmRlWbguOBabZ2agfWXr2xqnn9jBsEG69S1S6eK9rPU3Q3ARd7ql69rqndNq7R8D/V91Rp2q7tF8FmXqlrFwdwoX3SuZiNo2rbuE7D/0TsguPNO1VZW63EfRTfNG/X9otg41fq2sUBvEP1tnHdhv+lteCYdu3AEGyClKp2cQDv0GNPlT7D/0TSsaeKdu3AEWzCkKp2cQDv0aFtXKfhf07BcZL2VNGuHRqCTZhS1y4O4B3OnirV28Z1Gv4XZ8Ex7dqRINhEIXXt4gDeo8OeKp2G/zl7qqIoOKZdO1IEm6ilql0cwHv0aBvXa/hfsZCXe3fvyHp1NdCnqs5Zd293/7BC/UykCDZxoV0cSD9nT5XKbeM6Df8TCabgmHbtWBFs4ka7OKCGnd267NWbyhYc6zb8r1jIy+3qquuCY6ddu1ZvLlM/EyuCTZLQLg6knw5t47oN/3P2VF1XcDwwzdb2m9oNnpsSg2CTRLSLA2qwb3Aayu6p0m34n1NwfOf2TVlYyO683TvYpF07cQg2SUa7OKAGp218Z7eudMGxTsP/iqW85HILcR8D73vJfyoJNhgMpH54uE67OJBuuYWs3L97R+7fvaNs23gmk5EbN7IiN7IXw/96XUsyGUvJ4X8q/XtRDcEmBSzLktbx8Wrr+Jh2cSDlKuWS/PZ3f11+6zt227iKe6qcAX/jw//6/YHyw/+QDASblDk5PS2enJ4WaRcH0i03GvO/uVFVtm08k8lI7kZWcjcuh/+d90zpn5tKD/9DvAg2KXXe70v98HCddnEg/YqFvHz3O/fku9+5p+yeqmzWkGxWZDg0Lob/DfqDRA3/y2QyMhxSdpp2BJuUGwwG0my1lputFu3igALWq6uyXl1Vtm08k8nIQs4OM87wv/OeKZmMGdvwPyfQEGrUQLBRiPNMRbs4kH7FQl4+/uhD+fijD6XRbMtOra5c23g2m5FsNiu5G9mL4X/ds0Fkw/8INGoi2Cio2+tJbX//Lu3igBrWViuytlqR3/rOfSX3VGUyIgs5+7bGGf7X75tyfm6GOvyPQKMmgo3CaBcH1DJecKxq27hhZORGPivDYfZi+N+gO/A9/M8wMkPLGlKprAEG9GmGdnFAPU4tjmpt4w4/w//CKgguLRZk4cp6BSQCA/p0Q7s4oJ6rbeP79aZyBcdeh/9lMvbKB56b9MONjeZoFwfUpGrbuGN8+N9wOJSFnCH5/EJkQYYbm8TixkZ3tIsDahpvG9+rN2X7dU25Wxxn+J9lDmUo3M7ARrDBBdrFAfUUC/mLPVVO27gqBcdO/YwRQscU0otgg/fQLg6o6bJt3Ext2/h4MTA3NLgOwQYT0S4OqOlq27jdVZXsPVVOuzZhBrMQbDAT28UBdVXKJamM9lQlsW3cMAyxLEuYQQO3CDbwhHZxQF3jbeNx76lynpwsy4rl5yO9CDaYC9vFAXWN76mKsm3cnkUzZP4MfCHYwBfaxQG1OW3j/YEpO7v1UNrGs4YxNC2L+hkEgmCDwNAuDqgrt5C9aBsPak9VNmuIaVpiWhb1MwgMwQaBo10cUFulXJLf/u6vz9U2bhiZ4XAomeFwKKZJ/QyCR7BBaGgXB9Q23jbu7Kma1DZuGMZwOBxm6G5C2Ag2CB3t4oD6ioW8fHesbXyv3pT9g6Zks9mhaZoZi+cmRIRgg0jRLg6or1QqvM4Xcnfz+Zz0en0CDSJFsEEsaBcH1DIcDs/2D49O3+zWb/XOz2kcQGwINogV7eJAug1Ms7X9pnbjsNkuDkyTvzlB7Ag2SAzaxYH06Jx19371dn+9cdTmb0SQKAQbJA7t4kByNY7ae9++rq33zs9n1sfZk4SBaBFskFi0iwPJYJpms1ZvGDu1g+WBabou+DeyRpjHAq5FsEHi0S4OxKN33j94s7u/uHfQXI37LIBbBBukCu3iQPiOTzuvf7Wzd7d1fHor7rMAXhFskEq0iwPBol0bqiDYINVoFwf8GZhma6d2YO3VG6u0a0MFBBsog3ZxwL0o2rXpikIcCDZQDu3iwGSNo/be69399dNON/T6tCxdUYgBwQbKol0csA2Hw7O3ewfnXtu1gTQi2EB5tItDV2Pt2kUR4dYSWiDYQCu0i0MHtGtDZwQbaIl2caiGdm3ARrCB1q62iy9XKqcL2Sx/l4vUSHq7tmFkxLKGcR8DGiHYACO0iyNN0rJdO2MYIpYZ9zGgEYINcMV4u/jy0tLBYqm0yDMVkiLKdm0gjQg2wASDwUAOm81bzVaLdnHEinZtwD2CDTDDeLt4qViUlUplj3ZxRGFgmq3tN7UbtGsD7hFsAA86Z2fSOTtbp10cYRpr1+aGEPCIYAPMwWkXNwxDlpeWaBeHb8Ph8KzZOm5/+7q2rlK7tmFkhNJhRIlgA/hgWRbt4vAl6e3afhkswkTECDZAQGgXhxeds+7e7v5hZe+gyXMTECCCDRAw2sUxDe3aQLgINkBIaBeHw2nXrtWby73zcwINECKCDRAy2sX1Rbs2ED2CDRAh2sX1QLv2pWw2KyL9uI8BjRBsgBjQLq4eVdu1faMpChEj2AAxol08/VRv1wbShmADJATt4ulCuzaQTAQbIGFoF0+2Zuv49du9g7ut41Pqo4AEItgACUW7eHJcadfmJg1IMIINkHC0i8fHadc+bLaL1M/MJ5s14j4CNEOwAVKEdvFodM66e9++3l2nXdu/DLuiEDGCDZBCtIsH70q7NoERSCmCDZBitIv7Z5pms1ZvGDu1g2Wem4D0I9gAiqBd3Juxdu3VuM8CIDgEG0AxtItPR7s2oDaCDaAo2sUv0a4dr+xCVsyBGfcxoAmCDaA4ndvFadcG9EOwATSiS7s47dqAvgg2gIZUbBenXRt+5G4sSLGYl8HoycwyLRkOh2INh2JZQ5HhUEzTivmUcINgA2hMhXZx2rXhlxNqREQWFrL2P+n832sMBiYTlROMYANARNLXLt477x+82d1fpF0bfoyHGrcWpoQexI9gA+AdSW8XH2vXTtXNks4WskYiu6LmCTVIPoINgGslqV18OBye7R8enb7Zrd+iXRtBINSoi2ADYKo428Vp10YYsllDCoUbcR8DISHYAHAtqnbxzll371dv99cbR23atRGobNaQ0mKBreMKI9gA8CysdvHGUXuPdm2EhVCjB4INgLkF0S5+pV2bQKOgJAQJQo0+CDYAAuG1XZx2bX0YMc98MYwMoUYj2gYb07Lkm1/uSSGfk7XVsiyVC3EfCVDCrHZx2rURpUwmI8USoUYn2gabRvNELMuSzllPOmc9yeWyslwpydpqWbIGEyUBv662i/f6lrzZra/Sro2oZDL2TQ1TgvWiZbAxLUsazdN3/rl+35SDw2M5ODyW5UpJViolKZWYcQD45bSL7+wdxX0UaIRQoy8tg41zWzNJq92RVrsjuVxWqjcrUi4XuMUBgJQg1OhNu//Ur7utmaTfN+VtrSmN5knIpwIAdUVd31Is5Qk1GtPuxmbWbc11er1+SKcBAPVls4ZkxxZHhrk3qljMs6RSc1oFGy+3Ne/8OXMYwmkAQB+Li8F0npqmJcPh9Z/JmUyGmxroFWz29lueb2u8MC1LLHMouRx/twAA0X8sowAAG45JREFUYSC4YBZtgk2/b0qr3Znrz3bOeq6+rtfty/abA1kqF2RtpUxXFQAAEdMm2NQP25H9rOOTrhyfdCWXy8raSlmWl0t0VQEAEAEtgo2f2xqHaVmew0m/b8pevSX1w2P7Fme1LIV8ztc5AADAZFoEmyBua3rd/txPS5ZlXczGKeRz8uEHN6nDAQAgBMq/jwRxWxOkbq8v/f4g7mMAAKAk5YNNULU1pkXLNwAASad0sAnytqbbOw/k+wAAgPAoHWz26u6W7lHvAgCAGpQNNp1OT45Puq6+tnqzIqXi9MLgfj+8EeDTHJ90pdXuiBniYEEAAFShbFdU/fDY1dflcllZrpTkqDX9ycpNsAljIN/BYVu6vb4YhiFL5YJUb1a4YQIAYAIlg02n03M9Lbh6sxLyaebX7fWlO1rAOd4yXirmZWW5JMuVUswnBAAgWZQMNl5va5z/X84mf203wA3fuZy7v+yN5sm1/3znzA5utf2WrK0uykplkVscAABEwRqbeW9rZgWDIJdnugkhpmXNrBGyLEsODo/lm29riZrVAwBAXJQLNvPc1iTRyUnXU5g67bgLcwAAqEypYOOntsbNHqggn6NmmfQMNUlcXVsAACSJUsHG7W2NYRjv3da4WU5pmdG0XI8XDQMAAPeUCTZebmvWVhdDPo0/Xm9rAACATZlg83av6errDMOQtdXyXD/j1GVw8sNN0bBf3V5f3rw9DP3nAAAQNSXavVvtjusak7XVxWvrafKF2U9RUfBaNDyPVrsjxyddOT7pXhRR0zIOAFCBEsHG7Qbvabc1boqHrQg2fEfxDDU+ZbnfN+Xg8FgODo9HAacUygRlAACikPpgE8RtjVvdbrgFvVEUDR9PuRFyJhvnclmp3qxIuVzw9dcLAICopf63ltvbGpHZtzJGBL/Ep/2MKG5rjk+mjFce6fdNeVtrym7NXd0SAABJkepg4+W2RkRkr96Sv/lmV/bqrWv/3KyW7yBqXyb9jCiKhr3+jOVKsrvHAAC4KtVPUV5uaxyWZUmjeSKN5okslQuytlJ2XVMS5jNRFEXDXn5GLpeVpXIh1PMAABC01AYbr7c11xnvDKrerIQeLKZJyjOUI8nrJgAAmCS1wWae25pJnJoSt187rS06l8t6DlxRFA17fYbyMutn+/WB5HJZOqoAALFLZbCpH7Zj243U7w+mB5uFBc9ni+K2ptVyv/17uVJy3Q11MfH5zL5FK+RzsrZapqMKABCL1AUb07Kk0TyN+xiBcXuTMs9N0LhW232wWfHwDHV1P1e315e3taYYhiFL5YJUb1YY/AcAiEzq/pa60TyJtRYm6CcjNwW9dkgozv0z+n3T9bkL+Zzr56Rp+7ksy5JWuyPffFuT7dcHnoIVAADzSlWw8Xpbs1wpBT6bxgw4VLl5hloqF8QwMnP/jKO2+79mXmpr3G5T75z15G2tKd98W2NrOQAgVKl6ivJyW7NcKckHd1bFtCw5OenGWpczidui4bXVsqeOpqvc3pYYhiFlly3erXbH9TZ1R79vSqfTmzkvCACAeaUm2Hi9ranerIiIPW14uVKS5UpJOp2eNI5OfA3C63TORW7O/cclm728eXFzW1PI56SQz80dbLq9vutAt7Lsvmh43q60oG+8AAAYl5pg42W43HKldG3BaqmUl1IpL/2+KY2jEzlqdSKv18mPbivcFg17eRq6jpfalrUVdz/LzwyhKBaJAgD0lZpgs1wpSamYl/phe+oiR5HL25pJcrmsrFeX5dbNpdieqdwWDfsdlHfkss27VMy77l7yM0Mo7EWiAAC9pSbYiNiBxKmbabU60jg6eS+QTLqtuc48z1Re60omcfMMtbLsL9TMCoDj3N4MBTHxGQCAsKSqK8qRNQxZWy3Lxx/dkQ8/uCml4mV78qzbmklKpbx8+IGP4hkPXBcNjz0NFfI3PP8ct3U5bvdCmZYltf2W53OM6w8Gvv48AADTpOrG5jpL5YIslQt2x81Zz/cwuFIxP/NWxrQsX1N13dzWXH0aynps9/ayQsFtbU0QM4SCuO1xCpCZbAwAuEqZ3wy5XDayxY09H3UiljV0FTj8PkN5KrZ28bOSNPG50zmXv/1mV97WmtLpBPM0CABQQ+pvbNLm+OQskqJht89QbvdCBTnxudPp+VqW2e2di4hd79Nqdy62s7OfCgBAsLkil8uKzMgE/cH8zylunmL83tb0+6b7ZygXRcNJuq0REeldqU9ytrOznwoAQLC5ws0vxPN+uAWwbmteJnF7W+MM/5tlb7/l+rbGMIyZX2v6nGUzKRw6+6la7Y6Uinn54M4qAQcANMO9fcIslQu+fxm7Hcrn5ram3zc9rWRwc9vkPCXNy01HWeesx5RjANAQwWYO056TSiXvbdnjliuLvv68203ebut4vAzjWyoXQt8D5aVYmJ1UAKAfgs0Vi8XZRa1hDahzO09mmsbR7FZyEXd1PF5ua0TsGUK5hdm3TVdrZLxwW99EqAEAPRFsriiV7NqMkouAE7Qg2tXd1te4qePxclvjZeKzac5fY+PmNkrEXa0UAEA9FA9fw1mz0O31pdE8ee/Wwu0vV69WfD5Dud3k7aaOp9Ppeb6tERExsuFmZbe7pvLc2ACAlgg2UxTyOfngzqqs316+CDj9vhnKRvAgiobdTDQWcVfHUz88dv1zx29r3DwB+dm35TZUunlSBACoh2DjQtYwpHqzItWbFWm1O643Znvht8VbRFzNrnFTx9Pp9DyFj3n3c3llWpbrUJnL8V9tANARn/4eOc9UQcrlsr4m8Yq4vwVxV1sz322Nw80sm37f9HxD5XaVhWEY1NgAgKYoHk6AIG5r3Jq1FyqI2xo3z1H9OYYcnro8Fx1RAKAvgk3AViqLnm903CyhDIKbvVBv95qevl+UNyNu2+wLBYINAOiKYBOwXC4rH9xZld/4eENu3Vya+Yvf7RLKIMyaNOwUR7vlp7Zmns4yt/Nv3MzSAQCoiWATEqfg+OOP7kydi7MScL3OJKVifuYTTVBza9xMX55n3YHbMMRTFADoi+LhCEyaixNE0bBbsyYNR3lbIyJieVyE6eWGJ6q/ptMcn3Qla2QScRYA0AnBJkJX5+LciKgl2c1eqLCmDE/idtCew23oSkI3VL9vypu3hyJin6d6syLlciGyJ0cA0BnBJgbOM1VU1lanD+SrH7Y93dbkclkxLWviL+pC3t8i0Ou43QiehGeo8ZDY75vyttYUwzBkqVyQtdVyIs4IAKoi2Ghg2qoG07Kk0Tz19P0ODo+l0TyVleWSrK2U37slyRqZmd+jP/DW7t3puAs2ca9SmLQ41LIsabU70mp3pFTMy8py8POQAAAEG+XNWtXQaJ7MtSLCsixpNE+k0TyRpXJBliuLnjaTe92Q7jYIhXFb5IWbJ73OmT0rqLbfkrXVRVmpLCbiCQ0AVECwUdy04X/z3NZc5/ikK8cnXcnlsrK2UpalctH39xxnWlYqamy8Lg61LEsODo+l0zmXe3dvhXgyANAHwSYl5tmaPavrat7bmkn6fVP26i3XKxk6nZ6rriG3qxRE4q2x8bKKYlwYS1UBQFe0aaREIZ9zPfTPMe22pt83A7mtuU7Qv6jdtnpPmhUUBa+rKMbNM6wQAHA9bmxS5Lot45N+mRqGMXVVQ/2wHftNgelylo3bX/xxPkPNe1sDAAgWwSalJg39cyxNmZsyqXMnat3euauCY9c7omJ6hmq1JwdMt7q9Pm3gABAAnqJSzhn6d/WZatpeKC/D+JyfESe3oSGuc3r963kdy6TOBgCCwI2NIsafqTqd3sRf8l5va5YrJfngzqp0Oj05Gs1hCYqbpZZe2sLzMWz19rqKYhK3z3IAgOkINgqa1mn0ttb09L2cCcmlUl5KpbxUb1bkqH0qjeap7xod05z9y9xtfY1hGJGvLDAtK5DbGhH3z3IAgOkINhrp9vqeakGu2wnl7D5yCpgbzZNQu3qSvEqh0TwJ5LYGABAcgo1GCvmc3PvwlusnpVn7rJwC5nmfqdyELDfPVSIipVK0E4eDGm7ocPvvEwAwHcFGM26flLxs8A7jmcrh9jYoqk3pjqCHG7p5lgMAzEZXlKacJ6Xf/HhDPriz+t5Tzjzbx8e/562bS67+zKynHLdPPVEuv/Q63NDNM1ncM4UAQBXc2OC9JyUR/8PuFot5OZDZQ+v6/cHEn9XpuK8HirLGxstwQ8Mw5NbNirx5ezj165g+DADBINjggvOkFIRcAE9D/UHyBvN5bZdfW12UrJEJ8UQAgHE8RSEUbm98pt1UuL3FiPIZykt7t2EYsrZadh3yuLUBAP+4sUGszClPOl2XW72j2hHV6fTmuK0xxO1idqYPA4B/3NggNIaLgXnWlIm7bm8wFiPa6u1l0aVzW+MF04cBwD+CDULjpvZl0q1Mv2+6LtANop5nlk6n52m4oXNb43Bzq+R2GCEAYDKCDRKp3x+4+jrDMCJ5ivJ7W5Nb4NUXAKJAsEFostnZ3UD9wfUB5jRBG71b7Y6v2xq3mD4MAP4RbBAaN91KkwbwuR3MV4hgo/c8nVBXublVYvowAPhHsEFoqjcrcu/DW3NtrXZ7e9HvD6Z2VvnVanc8LbqcdFvjJtgwfRgA/OPhH6Fyhv71+6Y0jk7kqNV57xd4p9N7bzCg246o45OuHH+zK8uVkqytlgN9mjItK5DbGreYYwMA/hFsEIlcLivr1WW5dXNJTk66Uj9sT7wJmecXfGu0XbyQz8naalmWKyW/R5ZG8ySQ2xqR6Jd0AoCu+LRFpLKG8c5uqsbRyXvzW/wU0XZ7fXlba0ptvyVrq4uyUlmcq2vKtCxPiy5n3dbkFtxPYo5yRQQAqIZgg9hM2k117rLVexrLsuTg8FgODo9luVKSlUrJ0x6sRvPEU83LvJ1QVzF9GAD8IdggcYJuex5/plqvLs8MOF5va0RkZqhxO0SQ6cMA4A9dUUicDz+4OXc31TTdXt9V/c7efstzh9JevSV/883uxNoh90tBmT4MAH5wY4NEctNNNY9Z9Sv9vulp0eU4v89fAAD/CDZINC/dVG7MChpe2runcZ6/crmsVG9WpFwuSC6XnXl2pg8DgD8EG6TCdd1UxyddT99j1nNQt9ef+7Zmkn7flLe1pqtN5yJMHwYAvwwReRb3IQAvSqW8fPjBTfn4ozuytlp2HRpmLaLc228FcbxrWZbl6imN6cMA4MuXxt/90X/eEpGPROQ/iUh4n+xAwJxnqo9/bV0+uLM680amVLox8V/rdHqeFl2GhenDAODZtoj8mYis/sFPf/bZO+uXv3rycEVEHojIZyJyL/qzAf5Me6b68IObEzuttl8fJCLYiIh89zc24z5CKHb2juI+AgC1vBSRp3/w0589Hf8nM9d+qYh89eTh98UOON8L8VBAKK7rpvro3u1ru6KOT7ry5u2h6+9tGEaoT0aTzpl2BBsAAXkmdqD58rp/cWKwcXz15OF9sQPOAxFZDvBgQOhMy7ropvr4ozvXfs0339Y8dVp9cGdVyuWCNJonnrd/u3Hvw1tKtokTbAD40BKRz8UONK+mfeHMYOMYPVM9EpEt4ZkKimi1O/K21nT99blc9r2A1Gp35KjVCewpa9qTWZoRbADMYVvsy5Xnf/DTn7n6EHEdbMZ99eThltgBh2cqpNo8tzWTNod3e/2LWxw/bt1ckurNiq/vkUQEGwAevBSRzyY9N00zV7BxfPXk4adi3+L80M/3AeLS6fTkaDRMb5brbmuuY1qWtFodaRydzPVMRbABoKmWiDwXO9C8mveb+Ao2jlEdzpbYIYc6HKROv2/KUftUGs3TiYXB025rJjk+6UqjeeLpmWqpXJAPP7jp6eekAcEGwATbIvJURD53+9w0TSDBZtzomeozoQ4HKdVqd6TRPHlnpozb25pJ+n1T6odtVzdDpWJe7t29NffPSiqCDYArrm3X9ivwYOMYtYs/EpEfhPUzgDCNP1PNc1tznf/3tzszv6aQz8lH9277/llJQ7ABMPJM7NuZn4fxzUMLNo7RM5XTTcUzFVKn3zdnTjV2y+0gQBWH9BFsAK25btf2K/Rg4xi1i2+JHXJ4poKWCDYANLMtdjHw06h+YGTBZtxXTx4+EDvg0C4OrbgNNipOHybYAFr5Quznpi+j/sGxBBsH7eLQTf2wLQeHxzO/TsXpwwQbQHmBtGv7FWuwcTDVGLpwG2xUnD5MsAGUtS2X9TOx/w89EcFm3Khd/JGIfBLzUYDAuQ02Kg7pI9gAygmlXduvxAUbx6hdfEt4poJCOp2ebL85mPl1BBsACRZqu7ZfiQ02DtrFoRK3wUbF6cMEGyDVnHbtQKYDhynxwcYxqsN5IEw1Roq5nUCs4vRhgg2QSl+LHWaexnwO11ITbMaNnqk+E9rFkVKzdlOpOH2YYAOkSmzt2n6lMtg4Rs9Un4l9k8MzFVLput1UIuoN6SPYAInXkstllK/iPcr8Uh1sHLSLQwXju6lECDYAIpOodm2/lAg240bt4lvCMxVSynmmWqksBrajKgkINkDivBT7duZ53AcJknLBxsFUYyBZCDZAYjyTmKcDh0nZYOMY1eFsiR1yqMMBYkKwAWK1LZf1M0r/j1H5YDNu9Ez1mVCHA0SOYAPEInXt2n5pFWwco3bxRyLyg5iPAmiDYANE6pnYxcBfxn2QqGkZbBy0iwPRIdgAoVOiXdsvrYONY9QuviX2LQ7PVEAICDZAaLbF/pv056rXz7hBsLniqycPH4gdcGgXBwJEsAECp2S7tl8EmwloFweCRbABAtESkeeicLu2XwSbGcamGtMuDvhAsAF80aZd2y+CjQejdvFHIvJJzEcBUodgA8zlpdjdTU9jPkdqEGzmMGoX3xKeqQDXCDaAJ9q2a/tFsPFh1C7uLN/kmQqYgmADzNSSy2WUr2I+S2oRbAIwqsN5IEw1BiYi2AAT0a4dIIJNwGgXB65HsAHe81Ls7qYv4z6ISgg2IWGqMfAugg0gIrRrh45gE7KxdvEt4ZkKGiPYQHPbclk/w/8YQkSwidCoXXxLeKaChgg20BTt2hEj2MSAdnHoiGADzTwTe5jez+M+iG4INjEa1eFsCVONoQGCDTRAu3YCEGwSYvRM9ZlQhwNFEWygsG2xi4GfxnwOCMEmcUbPVI9E5AcxHwUIFMEGCvpC7OemL+M+CC4RbBKKdnGohmADRdCunXAEm4QbtYtviX2LwzMVUotgg5SjXTslCDYpwlRjpBnBBin1UuznpudxHwTuEGxS6KsnDz8VO+DQLo7UINggZWjXTimCTYqNTTWmXRyJR7BBCjjt2p/z3JReBBtFjNrFH4nIJzEfBbgWwQYJ9rXYYeZpzOdAAAg2imGqMZKKYIMEol1bQQQbRY3axZ3lmzxTIXYEGyRES0Seih1oXsV7FISBYKO4UR3OA2GqMWJGsEHMaNfWBMFGI7SLI04EG8SEdm3NEGw0xFRjxIFgg4g9E6YDa4lgo7GxdvEt4ZkKISPYIALbclk/w3/hNEWwgYhctItvCc9UCAnBBiGiXRsXCDZ4B+3iCAvBBiF4JnYx8JdxHwTJQbDBtUZ1OFvCVGMEhGCDgNCujakINphp9Ez1mVCHAx8INvBpW+zPoefUz2Aagg1cGz1TPRKRH8R8FKQQwQZzol0bnhBs4Bnt4pgHwQYetETkudCujTkQbDC3Ubv4lti3ODxTYSqCDVygXRu+EWwQCKYaYxaCDaZ4KXZ309OYzwEFEGwQqK+ePPxU7IBDuzjeQbDBNWjXRuAINgjF2FRj2sUhIgQbXGjJ5TLKVzGfBQoi2CB0o3bxRyLyScxHQYwINtqjXRuRINggMkw11hvBRltfiF0M/GXcB4EeCDaI3Khd3Fm+yTOVJgg2WqFdG7Eh2CA2ozqcB8JUYy0QbLSwLZf1M/wHjlgQbJAItIurj2CjNNq1kRgEGyQKU43VRbBR0jOx62d+HvdBAAfBBok01i6+JTxTKYFgowzatZFoBBsk3qhdfEt4pko1gk3qbYtdDPw05nMAUxFskBq0i6cbwSa1aNdGqhBskDqjOpwtYapxqhBsUqUll8soX8V7FMAbgg1SbfRM9ZlQh5N4BJtUoF0bqUewgRJGz1SPROQHMR8FExBsEu2l2Lczz+M+COAXwQZKoV08uQg2iUS7NpRDsIGSRu3iW2Lf4vBMlQAEm8Rw2rU/57kJKiLYQHlMNU4Ggk3svhY7zDyN+RxAqAg20MZXTx5+KnbAoV08BgSb2NCuDa0QbKCdsanGtItHiGATKdq1oS2CDbQ2ahd/JCKfxHwU5RFsIrEtdvH8c+pnoCuCDSBMNY4CwSZUtGsDIwQbYMyoXdxZvskzVYAINqF4Jvb+pldxHwRICoINcI1RHc4DYapxYAg2gdmWy/oZ/qICVxBsgBloFw8GwcY32rUBFwg2gEtjU42pw5kDwWZuz8Te3fRl3AcB0oBgA3g01i6+JTxTuUaw8YR2bWBOBBvAh1G7+JbwTDUTwcYV2rUBnwg2QABoF5+NYDPVS7G7m76M+yBA2hFsgACN6nC2hKnG7yHYvKclIs+Fdm0gUAQbIAS0i7+PYHOBdm0gRAQbIGSjZ6pHIvKDmI8SK4KNvBS7u+lpzOcAlEawASIy1i7+QDR8ptI42NCuDUSIYANEbPRMtSX2LY42z1SaBZuWiHwudqB5FfNZAK0QbIAY6dQurkmwoV0biBnBBkiAr548/FTsGxxl28UVDzZfiF0M/GXcBwF0R7ABEmRsqrFy7eIKBhvatYEEItgACTV6pnokIp/EfJRAKBRstuWyfkaZf1OAKgg2QMKp0i6uQLChXRtIAYINkBKjdnFn+WbqnqlSHGyeiV0/8/O4DwJgNoINkDJpnWqcsmBDuzaQUgQbIMW+evLwgdi3OIlvF09JsNkWuxj4acznADAngg2ggLGpxoltF094sKFdG1AEwQZQyFi7+JYk7JkqgcGmJZfLKF/FexQAQSHYAIpK2lTjBAUb2rUBhRFsAMWN2sW3JOZnqgQEm5di3848j/sgAMJDsAE0MarD2ZKYphrHGGxo1wY0QrABNBNXu3jEwcZp1/6c5yZALwQbQGNRTjWOKNh8LXaYeRrFDwOQPAQbAOPt4g8kpGeqkIMN7doARIRgA2DM6JlqS+xbnECfqUIINrRrA3gPwQbAtYJuFw8w2GyLfbv0nPoZAFcRbABM9dWTh5+KfYPjq108gGBDuzaAmQg2AFwZm2o8V7u4j2DzTOz9Ta/m/QYA9EGwAeDZ6JnqkYh84vbPeAw223JZP8NzEwDXCDYA5ualXdxlsKFdG4AvBBsAvo3axZ3lm9c+U80INs/E3t30ZcBHA6AZgg2AwEybanxNsHGmAz+lfgZAUAg2AELx1ZOHD8S+xfmeyDvBhnZtAKEh2AAIlTPVeLfeumdZwz/juQlAmP4/LdaZBbyKT80AAAAASUVORK5CYII=;" vertex="1" parent="1">
          <mxGeometry x="70.02999999999997" y="370" width="99.95" height="80" as="geometry" />
        </mxCell>
        <mxCell id="9fN0THQdX7Je8e2T6aCW-12" style="edgeStyle=orthogonalEdgeStyle;rounded=0;orthogonalLoop=1;jettySize=auto;html=1;startArrow=classic;startFill=1;" edge="1" parent="1" source="9fN0THQdX7Je8e2T6aCW-8" target="9fN0THQdX7Je8e2T6aCW-10">
          <mxGeometry relative="1" as="geometry" />
        </mxCell>
        <mxCell id="9fN0THQdX7Je8e2T6aCW-8" value="Awala Internet Gateway&#xa;(e.g., frankfurt.relaycorp.cloud)" style="shape=image;verticalLabelPosition=top;labelBackgroundColor=none;verticalAlign=bottom;aspect=fixed;imageAspect=0;image=data:image/png,iVBORw0KGgoAAAANSUhEUgAAAjYAAAHFCAYAAADhWLMfAAABjGlDQ1BHSU1QIGJ1aWx0LWluIHNSR0IAACiRfZE9SMNAHMVfU6UiFQU7iDhkqE4W/ELESatQhAqhVmjVweTSD6FJQ5Li4ii4Fhz8WKw6uDjr6uAqCIIfIG5uToouUuL/kkKLGA+O+/Hu3uPuHSDUSkyz2kYATbfNVCIuZrIrYugVQYTRg1FMy8wyZiUpCd/xdY8AX+9iPMv/3J+jS81ZDAiIxDPMMG3ideLJTdvgvE8cYUVZJT4nHjbpgsSPXFc8fuNccFngmREznZojjhCLhRZWWpgVTY14gjiqajrlCxmPVc5bnLVShTXuyV8YzunLS1ynOYAEFrAICSIUVLCBEmzEaNVJsZCi/biPv9/1S+RSyLUBRo55lKFBdv3gf/C7Wys/PuYlheNA+4vjfAwCoV2gXnWc72PHqZ8AwWfgSm/6yzVg6pP0alOLHgHd28DFdVNT9oDLHaDvyZBN2ZWCNIV8Hng/o2/KAr23QOeq11tjH6cPQJq6St4AB4fAUIGy13ze3dHa279nGv39AMUKcsiY8VKIAAAACXBIWXMAAC4jAAAuIwF4pT92AAATDHpUWHRSYXcgcHJvZmlsZSB0eXBlIGV4aWYAAGiB3ZprliwpjoT/s4pZAi8JWA4gOGd2MMufTx4RWffZdft0/erMmxlZ/sBBMpmZ8Arn//73hv/hS2LVUKV1HaqRrzrqyJM/enx9zed3ivX5/XytHfP76HfHw9eJzKHCZ3md6Pr6TJ/j7xs+n2nyl3wzUN/vE+v7E6O+PnP/YaD3g4rPyKdg74HGe6CSXyfSe4D5WlbU0dt3Szuvz/f9rzDwE/zX3Xn4MVmvcz/+d21Ez4TnlJxPSSXyO5f8mkDxnxTK5I/C78RFTLgofwvHZqklvWdCQH4Vp6+vZ0Y/ZOXrr/Sb4z8kpejreODA98HUr89fHk/y6+CHJ8TfPLnsryd/d7yVlH9czufnXuvh3vNa3axKSPW9qM9Snr+4kLDX8tymfDd+hL/b8z347gH0blJuccfF904jZdJyU02WZrrpPJ87baZY88mNz5w3ifJjvbQ88i4xkKfq3+nmVkax0knmJr2Fo/lrLul57nget1PnwZa4MicGSw6F4L/+ie/fDnSvQz6l2L9ixbyyB5xpeOb8N1eRkHQ/OJInwJ/vH788r4UMyhPmzgJnXK8hlqQ3thxH5Ul04UKIJb5qLTV7D0CIeLYwmVTIQNRUJGmKLeeWEnHs5GcyUM+l5kUKkkg2ZplrKUpyevZnc09Lz7VZ8uswnEUihGJqpGaUSa4qxAZ+Wu1gaEqRKiIqTboMmVq0qqhqUye/2UqrTZq21nobbfbSa5euvfUe+uhz5FEgRxk62uhjjDl56GTkyd2TC+ZceZVVlyxdbfU11tzAZ9ctW3fbPeyxp2UrBk+YWrNuw+ZJByideuToaaefceYFarfceuXqbbffcedX1lJ4pfWn7z/PWvpkLT+Z8gvbV9a4tbXPEMnpRDxnZCzXRMabZ8AJzHMWe6o1B0+d5yyOTFVIZpbiybHkGSOD9aQsN33l7q/MfZe3UOt/lLf8yVzw1P0TmQueut9k7ue8/SJr5mqzYwlPhrwMPaixUH5ccPrMfbqo/fFn+Hdv+G8eaM1h8VJDrY8iu0lJ0ou5G6m3FNt390msyx5wo9RN5vM81pHolpvWfgQQHHC4b292crGI8twytw8aIrp+bOuVcns8tZ2cF1AD/ZKl1Z0FUDfVVIV/iNCvpxv+swCN6xy5b8YfndSNiRSjGuso12s7qiSxegYmppgwXdG6gKm2tFq5ax/K7x7H6e0nL8vEqBS09sZuc25lzU2OWcerOKKl5majUrGXCjbFt3DpHWPV3B32tfVzCEWIZ65pda50KItm1M3Q0vfMbc9yplkkbLostSqXsm8D6WwcKZSsrNnchNoOPPZOPXgH0mZtoblxF70p78Zv5rKhs82DJnYBbYnU9+rkiaIlfbXMmSj/MG9fUsbliTuVk65heRbRGBwZm9Ur1oIi3Zt63cAoeqyPggnYTxvuYyjkT67NFDQ5xqzBH+dCZh1y4Lj25Ym4konNKfJkBMLpiwFbqrdq61OX3BDJyYz5ZmVhRI2M4i32gf1OuUZiKsYnkycmDqSlYk5AM8h0vtVdWbtYDMegmPKAXi60iIFPapF0kEnZG/dicfXtAc4dtkwMneYZXfPRdTIo0XFS0MwQjIMt6pO5LbEL63qwUAg7e8itZ8HMGXY/AlhOb6sZJcZAUBu8ltcNKZ6+0qo3VmQYgq+sEuSMls5dHhkZk4E057HvpPZkeMUysRYvfD/Ic5EV9tQ88GF9YtEEOM+RbifXBwinJ0OY/7//DF8HpqEFYzQAXk92H8gCj0rGFy7sIMJsLRnlwJl6OxhfdryqRNcAR1uxeoNTVNwAKphAJKQPq0QYTKMQaEO7cZZN6trl0gjGe5E7an4Ql8ERlatMxE1tIc+1EZU05m36ZHKDfyYA18AuuKbSqGmlNIAwZ6mzmPh3G5K9VupnTwFBeUM7RL9MaaWuVO3QhGBr04ae5jaiSeHeqJCBiowlcQ3YyixUV2uKvRkhAXupkxkwkKY1RLYQIOtTqOluvUIV7wvl8I+Zp7W1UfmBkKCjKp30wp2b4oSVD0iEU1F4K6NtZLpScpm5jOPaiCXQRmVN1PZGs7UDLmVRe32QjUsckp5V+9oLB8JC8u5QMGruJUbkpXcqUtKaqxbQTQ8Lz802AjkS3QYJDKG6FxcRBJsVyM6DHUIKLHvdzjRh8NPaggwGP551hm5XyVhgtqxkbdgU0okZ8VjxnEKoCqEiidlQFRwRjd7Z1xq6AajPLvBGgw6YCCUX4ip0o0//sbxuuLlwqVG8fEccRhqAi0EUY0L/IC8wQ2aPrsQEzwKSQJpB7MRGHNwL5Ob0vObZqze5tJeHIQdxHcBQ7YCLfPpoR2maJkwSaWsAYNjFa4s6dhbD3ODXKEZc1thgKLcFcctDfQ7T01MesszKVEzOAmSweN8XYsPcwLx3N1deKAk9ggOi938NLEAc4txMuzW91ij+vKssgdiZHGUIvOiqwu4YSHKCjhER9VAW5Mt5kbltUCltitdYhFERByfTwQLhQYiHFq60c04Nl8gwUIfVylnwpTJhLBzBMqWyAVUciXqgzxi7TW1MTDbZ5aGeqSnIW7w4f6LyiPDKP6vyMqxh8dLnw5Kz+Z194xOhzZ1ATMHGGyYkuOt1AwKUIBhEErKkBnC99yzCe7Ek7jYPqV54VWetjg02M9Qbt5t08JQYFpXAzeKS2LE4ffh2iMMUAoM304BNbqa2mQP20xQoNcmMHRFYZMMEQ3TDJFYJ8Srnwn49FRzwQhnA36GEEdLqPuNklgAMD9Tn+NPDcUpfsMyw90iBnPifSEe7/vAhzI+6xQrQEGDqSf88JJ2q0uSbQR26IKDCAm3PlDEMFE2gir33yzTodCKLsWsb0avtdMJD0AvUg3VuZYF4iUNtCsIPB3dQsw3xgTKxNUMrZGlEmjsXqg0OxG9qOIQxjWFYKY7f/x08YI/qYXNgOemQVWYVNlY/I+OXMjgR/FGuGKEJYE9UKIOhxiVLVD8cmEwnRA4Vgz5kATok9DQvoVgHFwTAaFOoNWY586bHaHctJr/npPpXJ8JZBqyE4wTJPAGijnUDnVp2OwFigqxqWbbaHjCpTrdg28MOan3voyopVvwJFtAJUJkza9KMkVorcwlgC8RGkVfLx8sEX2EssmyqNS2HjfdRxJ1qAeprkGq3GbDj3IJh9qYcqbkW8DK6lPqB4WGGw6MofU5Su+TxZHgT1alCvziwsVbaFrgdwzHHtnIGHoKKCuNpUQfCHMvEEDhH8iAlStc9BdOwRVmgA8DIO0caUmbqOg2FoZK4D+IZTK8yNQ5WCoqU01165Xema3KYRWV+TK+4oaRqUR9Xj9GA7YCbiEFNekOGzRG2tg79sRt/Zk6JCbbT0A5YPJ1F/eOyyeA6jUKuLS78X2WZPJV2G/8QhtPHfHUrMO5fPgWiopnEOO7j7Ewkn4E0//pMoDdNDji0NVPU+hqTrmRnqtURV26mu8TETwiFxoa+BwWl4lAinBZtwoEcQiLwrN1dH7aBqM69O5ivJJ2I0h5cCJGMkE0yCbng12FCuqbBP2j2IbsUMKtZYvnZguFscLasQWMfExp9eVwndWyK+D4gsowkHPI8dwB1BBSbcm/CdIEZgAgN3eWa5HaJEXDOzXcGoj57f3DMVipneOFQCwXYBkLFrdONCBVENrGdDTftkEArjDVAHBTJ3nDrvMuJG96eGCpEgkXi2y1X0r/Aa0IojLvzojVykLsRRSOo31kQYiYrG9bGXGzMkNJkxVy8CBcXZ2xPaIR08GR6UXoLmjgaFKRbveznRgFmF5okn9R6y/2ulBsQ+wCs+dzxkMhr9UYVscXc0c3R0YncgjjSgFI3m1ig1U8rimrs95++b4sgmG8i4Y9QB4It3OXj7i3fnPz+HL6p0AhQIBXmt9e4UOtr3OADfx5geSLrbcFqyDhzJm7NweCsDMthwOPTHcJPJCzPwWH4CTcBH7EgFAMve5RwilMEzRNg9b6C5KMOcxMtMOrWx50RMkjHZbkgb6635CYHWkqaSKHZwABrEmdmQQb6wvnhrbCLqCvKYdhfLOx+HLtjLlFd1/d+6P92D3hM77BOhMHBRkLPkVjuZYZIJ20Tbrivx/FB0ChdoqGgp6XO9mj0UHRKLDKkLNXLQjDAGJGJK8bPwitcEl37csapAWf4Govd48fxJU807uqd6vBXrt8E9B06HByvNDEH72efYcQo68+IGFVsq4blt7oQMIq8Bk2vUz+d2YLHQzVe6CroD+p6cbp66LKbQVD5SSd+EReRjRYW8uysclMzXbx/7uI7bBjzHEfdDNCv04Cz6ijoiYbszSuuIKk+XRHUSAnhNFxSMbBoE4hAYxnMp0Vmk4uKqku1+ZucdDGLwUAmdEunyzVgg46HpmJBNfQZcZOxWZ/txLgBUgR0GC5i/mXqSCQNn4aGvcJpZzjIWdPrgdVhWWEP8ohtEtosxvLtxk94M00T47rEm2eQ3ipgMG8Dy3MAgJzBE2bnF5s81K3zPVLmSceK8xsdGN6y0xuO4AfwOWNdpvERnJcSoGVk+j0Uvcf4xqS62ZTXvS+7Gcb8jN3nz6c/Z1Fu+rOBL6Rq65gD7UECyDUj40tbDOgCHgG5LBRXdRdA51/QOCrBgRwbldOA9ip0yyjZoVbRYoBuqLC/kqruLAPdLVwVCV6B191R4wOs4ri24oPg4IKvp3e+T1p1r4OVzhhG7BD0TYKX73dhj2nfcAic5DKNMIIwoQSutrgt2HRL198aFcQe/+TbHRlDhtQ1jkIiPK1oAJgZ1cRz0Z/R3FQaeR3UlrsHXw9Egn9S+jBwSqOERiM/eAgbtDjJN6UzzWJQcoPPmuKbN486end0H9L8Djv/+jOF9Gva/8mL/B0ZhG/ZIMmMrWPuaBR0T6gYxoN2jzsHuiHaRym++eDK4+l2V3cwkbQAYfmmV6ZvPYAXyXbadqcJU8811ZshiAA9xB+fTOMmdFoDJ2KkiTYOg5GzPB2kdFpFpv/0o7QuvlUJ1nhgrtV32VlppPQxcKjLGsAuPkoIK6Xi+34kWQLNhBcXmoNIDH+1xMSi1U81QEMGNVVm5HZVoWh/A8DnNfR3Q+nLd10CHYXiokgidqD5hj3Zx6sA/NQH9ZBcvGmUna7whWBnoHDP245WQD4LLaApEF9MPK4VpNHazILZp8RaY8RnphOH8QdwCI/IVt+aJdwv2cVBzeWeiD4qw2JK97oquH4KeAMSVgNAID3v8BCkk2NQTF8nMQemsqfRxzbn+5QFPLVhktf+ru8BYaP68C1ec2Kgfgomsxn9HLqWuB0+oGfZFfCDp47vHeZ70/nATIgrLO9NIPYIfyF1SKn0STJ9w/1tiYOU/LutvPKoMyFeT0d/sVx0l164dDNlZN/LxogmPGKboSgK7puuc2Fp4MrSDYeopwt98ym+JfDewN8efQiu5sSQqD9kQuuTnh0+2vUooGYVWZjEvRJulzEV9kjJNyhoDUDkVGVeWEa3AEtT87alpu0WGntAd+St4KU0zNF6+0KiSPyiZ+mPzSroJf5vXU8Wbmv79kM/Tp/PfinmqPlecEgEqty6aG4q3SjupbqVwjZRg6APGDY36t2N71HvTBNWxinr/T6iPvEOT1TT662Tecv1TcAnruTgtXxPrBy1SxAaUgzDXXLp24yAYBRcHTg6tgYETz/te/cT4wPoUeluVesqz/8WcbnhektxT8ZC0ADCtQZxXJrbar49Hzw+DEA1Az/zl3sjQ9VHhu/1gZp1hLwk8x100g5l03nAcG6SeTD4xEy0HZBrGg4aneL77tiMRosIT/q7B1IDUlyqpF04jiLYRB0qFWoSAulwh2/7kd5nRr4nftyO90ofwxoxZ+j/K5ZW92/e8vzB2yxcELb3mArKA75y9b1D31QBV/Sk8OPW7u970DSiOJKGWdI03+SiIpBkrb5tDbQeCYj05pT98C2zlDPWazi5eeXD6H1T4OZd0xI4mxp0HVmOF+JJFZnrLfp1R/P+FLi5mTvqwk7rAtRpVZC01ctaNyswuyO0JXQ3F2+gkS4brK470Ib72ijwNz/V3/dg0aVSOpcK3NAernpE8r6e/UIb4WmS0JoF0x8YFovvklK90OhhYShJDUiUycJYjPh2CCoKB61E8dFgcgafjSpBQdk5cVff3q3XX4FhrZEWQM2A3vI/9ipuhESZDIHGX46Mxj2OggkHBSDO9kW9Ez7+2jm9KJVwDvyXswQQoSQgGVTBN7whS3+XY7gXoNnjkB2uMYXiu3pNqm/8woiYNtBIsScUh7D7MqEjOMg6QdAG2ZWGsW5PioFsOUHdBfaBfy307Fjqg/ZgzQcrpUR9E7mywH62v1rBjmR88Evy67eaEv7Ia/zB52cgncf9QDXvS8k1HEgeFXFGMssi0wVYGiZfxd9V0kJS1pTp8rcB9O5hQn+Dvg5WWU2ft2DXhTrdPEFi9I2L5U/Lz/u4tJSsvnrOkn4xo39saf+1A4FlGziK/wcClVZO3A+2UQAAA8FpVFh0WE1MOmNvbS5hZG9iZS54bXAAAQBVVEYtOABYTUw6Y29tLmFkb2JlLnhtcABYhe1YzW7jNhC+5ykE7aVFQZH6tSRICdIk2zUQN0EctL1S1MhWo79KdCTn1XroI/UVSlJeR25Sbw9doAf75Jn55psZzgxpOLoYGsqegGsJrPIq1v/8/Q9dy9NY/9ldkEVzBev800sLy5cfH9nLEwtS/eL8LBrCoWxK4FQbyqLqwiHWaVonEIrvUo11TUH4U6z/srjXruoWNMdwDIJuhvzZ0s/PtKhNs/Dh+uOOQkixvua8CTHu+97obaNuV9gMggATC1sWEgjUbStOB1R1HyTFyHENHWvzhud1pUmZJvWGx7ou7NqOXFjZzcD3AaSs6Due4rkQHJGsAGCLEB8RC1kBnvoL62Kx9646Q1VrsLrEA22waRBclgceHb955sc9usdtA/gBunrTMrh5hop/mFI0xaabMmw6kCqVd5FmWCSleKY+P8wX9wfHuMrLRnlI9BSZsj2u2bSFwqQMQwGlSKQTzOYBnudZ9n490vImERHuePUKrM41vK7ZRgadX8e6zDdMa5anofoKVpaaAcmQl9gZcuwsQT7xLERm4Lg2eMSzvQnVvOo4rRhIKqExcsET2J6XEWIiL/Ud5GTUR4HrzxBYHvUS5niWl00o7tpcbAItpllJqlRQ+ZYZWBmkiCSWj5zAdVCSuAGiphsIKpsmzFVUsg/h5f081i2DvGruC8qzui1j/TavNsOr4TEvYcmpPDTTM13Xm/mO6fpi+v1X0E/QdmLIJadJDMtSlpSFHwUjFcOWl3QFuKlWyiDbIosRJVCu3MzPVYZXLVBet491XcS65NYkpVopLdotS3hbM+WowJAq47hx39MVHrH4GPgN03Jd99W/43mF7lkuW97X7dNde5f8Cowf53kPvGd6EHddx9vt/AtF/Q0XjQPySejqdjtxXcJvozSKRT4KmroEQsrG4+/oM6T6gYmtabUCcdviQ33+zhibmeOzwAE0M4kY48SxkZgPQG5mi7H0zcxm3iFLV2e8py1crsQMiD6LfVJ91r5R0/ftIbpfg0jyO0JCQnT89esRBdCE2AFyZkxsNnVdlDgWINMBNvNmDqQO/Nf1RHjargi/bWgkr9hwLjdpuWmaIof2sNGfZ+QfcBP/3ZJ9yX0KG72v6mYrLqE1v+uro+HfAY4MtzmDqjsaewoZj2XyjsrnGe/eZ/Hc4/17vxuLr/w5BTkFOQU5BTkFOQU5BflfBTmL9v8YQCV+6PX6xflf7RGCZHAyW8QAACAASURBVHic7d1dbFtpft/xPw9F80UU9WLTskZj2JPMJtmLZAboRQsUwS4KBCiCFmskN7kosLpo98Zoa6RBuotigQlawEXRANOLAoUvWhvIAr0qPC3g6/Hl3LQ7QdIi2cGOtbYsSpRIkZIoUuQ57MXhkWhZJM/heX+e7wdYJNiVpWdnd6nfPM//RQQAAAAA4E7txeNPay8er8R9DgDqy8R9AABqqr14fF9EHojIIxG5JyItEXkuIk/v/P5PvozvZABURrABEKjai8cPRGRLRH4w5cu2ReRzEXl+5/d/8iqCYwHQBMEGgG+j25lHYgeaZY9//AuxA87TYE8FQEcEGwBzGdXMOE9NnwTwLVsi8lTsp6qfB/D9AGiIYAPAk9qLx98X+2bmhyH+mK/lMuQchfhzACiGYANgptFT09boH/ci/vHPxH6qeh7xzwWQQgQbABPVXjzeEvu5aVohcFS2xe6q+pyCYwCTEGwAvKP24vGnYtfNPBDvhcBReSn2U9VznqoAjCPYAHAKgbdG/wiiEDgqzmyczyk4BiBCsAG05nLmTFowGwcAwQbQzdjMmQcSfSFwVL4Qu6OKgmNAMwQbQANjM2e2ROR78Z4mUszGATRDsAEUNjZzJsmFwFH5Wi6fqig4BhRFsAEUc83ySbyP2TiAogg2gCIUKwSOyrZcPlW9ivcoAIJAsAFSbDRzZkvmWz6JdzEbB1AAwQZImRCWT+JdzMYBUoxgA6TE6KnpgYS7fBLvcmbjsIwTSAmCDZBgMS+fxLuYjQOkAMEGSKDR8skt0WvmTFo4s3FYxgkkEMEGSIiULJ/Eu5iNAyQMwQaI0djySWbOpN8zsZ+qvoz7IIDOCDZADJg5ozRm4wAxItgAEdFk+STe9VLsgPM07oMAuiDYACFi5gxGmI0DRIRgA4SA5ZOYgtk4QIgINkBAmDmDOTAbBwgYwQbwaTRz5oFQCIz5bcvlU9WrmM8CpBrBBpgDyycRImbjAD4QbACXxmbObAmFwAifU3DMbBzAA4INMAPLJ5EAzMYBXCLYANegEBgJ9oXYz1RP4z4IkEQEG2BkbObMlrB8EsnHbBzgGgQbaI/lk1DA13L5VEXBMbRGsIGWRk9NzkRgnpqgEmbjQGsEG2iF5ZPQCLNxoCWCDZQ3tnxyS3hqgp5eiv1UxWwcKI9gAyWxfBK4FrNxoDyCDZQytnySmTPAdM4yzuc8VUElBBukHjNnAN+YjQNlEGyQWiyfBALXksu2cWbjIJUINkiVv/7ZT363fnj05/kbud/+8IPbhdxCNu4jAapiNg5SiWCDxKu9eLzyi1+++fOj9skfHjZa73Q1bW7cktu31mS9uhrX8QAdPBP7qYrZOEg8gg0S6+tnf/qj2v7hv64fHv3aYGBO/dpiIS+bG7dkc6MqxUI+ohMC2mE2DhKPYINE+T//7U9+5+T07D/u1RvfOzk9uzHP97h9a1XWq6uyuVEN+ngALjEbB4lEsEHsai8er/xy++2Pj1onW42j9vqs2xm3FhaysrlRlc2NqlTKpUC+J4D3sIwTiUKwQWz+93/9V3/UPun8cW3/8O90u+dGmD9rqVyS+3fvyO3qmlBwDISG2TiIHcEGkaq9eHz/F79889PW8ekfHRwexXKNsrlxSzbvVGVttRLHjwd0wTJOxIJgg0h4KQSOCgXHQCSYjYNIEWwQmr/+2U9+t9Fs/3T/oPkPjk86iX7/uX3LLjambRwI1ddy+VRFwTFCQbBBoJxC4Fb79J8dNltrSbmdccspOL5/9w63OEC4mI2DUBBsEIivn/3pj/bqjYeNZvt3ur3zuI8TCAqOgUhsy+VT1at4jwIVEGwwt9qLx/d/uf323zeOjv/xweFRqdsdiGUOZWHBkOyCIdmsGv/1WljI2nNxKDgGwsZsHPimxm8eROqv/uLHf7JbO3i0d9DcHH9qGg5FTNOSQd8SyxpKJpORXM6Q7EJGMhk1/qtWLOTl3t07srlR5RYHCA+zcTA3NX7bIHR//bOf/O5R6/hxbb/x99wUAg+HQ+n3LTEHlgyHItmsIQu5jGSzoY6riRQFx0AknNk4LOOEKwQbTFR78Xhl+03t3x21Tn5YPzwqz1sIPBhYMhhYYpn2Lc7CQkYWcoZStzi3q6sUHAPhYzYOZlLjNwsC9fWzP/3RQePojw8OW7951u0F9n2Hw6EM+pYMBkMZDodiZDOysGDIwoI6tzhrKxV74zgFx0CYnNk4LOPEewg2EJGLicBPWsenfz+KicB2Lc5QTNOSTEYku2BITqFbHKfg+N7dDfZUAeFiNg7eocZvEcyl9uLxys5u/V80W8f/vLbfuBXHzJnhcCjmwK7HGQ6HYhj2M1U2a4giGYeCYyA6z8R+qvoy7oMgPor86oAXf/Pf/80/Omi0fuy2EDgqpjkUc1SPk8k4BceGGIY6/zXd3Lglt2+tUXAMhIvZOBpT5zcGpqq9eHz/9dv9zxrN9h/u7h2W4z7PNMOhXAQcyxrd4oxm46h0i8OeKiASL8UOOE/jPgiiocivCUzyV3/x4z/Zqzf+adCFwFGxLLvg2DTttnHVhv+JXBYcb25U4z4KoDJm42hCnd8OuFB78fjTX/zyzX9oH59+v354lIv7PEHQYfgfBcdAZJiNozA1fiNAai8er4jI1tvawb/8v3/76n7alk96ocPwP/ZUAZFhNo5iCDYpV3vx+IGIPBCRHzr/XPukI9uvd2Wv3hSVA46I+sP/ROyCY/ZUAaHblsunqlcxnwU+qPPpr5Hai8f3RWRr9I970752Z7cuO7sH0jhqh3+wGOkw/I+CYyAyzMZJMYJNSoyemh6IHWa+5/XPn3V7FyEnjUXEXqg+/E/E3lO1Xl2l4BgIl1NwzGycFFHnk15RtRePPxWRR2KHmuUgvudevSk7u3XZP2gG8e0SS4fhfwsLWdncqLKnCggfs3FSQpGPd7WMnpoeiB1opj41+dEfmLKzW5ft1zUNbnHUH/5HwTEQmS/EfqZ6GvdB8D51PtUVMCoE3hKRH0T9sxvNtuzU6soXHOsw/M9pG6fgGAgds3ESSJGP8vQa3c48EjvQBPLU5Ed/YMp+vSGvXtfk+KQT93FCpcPwP2dP1Xp1lacqIFxfy+VTFQXHMVLnEzxFxgqBH4nIJzEfZ6L2SWdUcFxX/xZH8eF/InbB8eZGlT1VQPiYjRMjdT61U6D24vH3xb6Z+eH0r0yenV37mUqHgmPVh/9RcAxEhtk4MSDYhMzLzJk00KltXIfhf86eKgqOgdC9FPupitk4IVPnEzphai8eb8mcM2fSwr7BacjO7kHcRwmVDsP/2FMFRIbZOCEj2AQojJkzaaBX27j6w/+cguPNjSq3OEC4nGWcz3mqCo46n8YxcZZPjv6R2ELgqOiyp0qH4X8iFBwDEWI2TkAU+giOVpwzZ9JAp7ZxHYb/sacKiExLLtvGmY0zB3U+eSMwNnPmgShQCByVs25PXr2u6dE2rvjwP5HLgmP2VAGhYzbOHBT6uA2H3+WTeJcue6p0GP5HwTEQqWdiP1UxG2cGdT5lAzY2c0arQuCo6NI2rsvwv6VySTY3qhQcA+FjNs4M6nyyBiCq5ZN4l7OnSoe2cdWH/4mIPRfn1hoFx0D4mI1zDYKNXMyceSAUAsfKaRvf2a0rX3Csw/A/Co6ByDAbZ4w6n6IejWbObElClk/iXTq1jas+/E/Ebhtfr65ScAyET/vZOFoFm7Qsn8Qlp218Z/dAGkftuI8TKh2G/zl7qjY3qhQcA+HTchmnOp+YU4xmzjyQFC6fxCWnbXy/3lS84FiP4X9L5ZLcv3uHPVVA+LSajaPQx+S7VFs+iXfp0jauw/A/EbvgePNOVdZWK3EfBVDd13L5VKVkwbFan46S8uWTRk6ksimyuC5i9UXaOyKne3GfKtHOuj3ZqzeV31Oly/A/Z0/VenWVgmMgfErOxlHiIzH1yycX1y8DzVWDM5H2G5GjbTvsYCJd2sZ1GP4nwp4qIELbcvlU9Sreo/iX2k/CseWT6Zw5kyuKLN8XqXwoYiy4+zPHO3bIOWuEerS002VPlS7D/5yC4/t373CLA4Qv9bNxUvfpl+rlk0ZOpHzbDjR5H7UEvbZI65XIyT63ODPo1Dauw/A/Co6ByDizcT5PW8FxKoLN2PLJLUnrU1N5XWRpM9jvaw3sG5zWK5H+WbDfW0HOCgfV28Z1GP7n7Kmi4BiIRKpm4yT2ky71M2dyRTvIVD4UWSiG//POGiJHryg2dkGfPVV6DP9zCo7ZUwVEIvGzcRIXbFK9fNJ5alr6UKS4Fs8ZKDb2RJ+2cfWH/4lQcAxEyJmNk7hlnIn4VEv9zJnimn0zs7juvhA4ChQbu+bsqVK/bVyP4X/FQl5uV1cpOAaikajZOLF+lKV6+WSuaAeZlfvRPDX5QbGxJ07buOoFx7oM/1tbqdgbxyk4BqLwTGJexhn5J1jql08682aumzmTdBQbe6JV27gGw/+cguN7dzfYUwWEL7bZOJF8bI3NnNmSNBYC5yv2zUzSnpr8oNjYk/ZJZ1RwXFf6FkeX4X9L5dLFMk5ucYDQvRQ74DyN4oeF+mmV6uWTznqDpU1/M2eSjmJjz3Z27WcqlQuOdRn+J2Lvqbp9a42CYyB8kczGCfwTamzmzANJYyHwtPUGqqPY2BOd2sZ1GP5XLOTtZZwbVQqOgfA5s3GeBl1wHEiwGZs5syVpXD6Zr1zOnFHlqckPio09s29wGsrvqdJh+J/IZcHx5kY17qMAOgh0No6vT6NUL58Mar2Byig29kyntnEdhv85e6o2N6oUHAPhC2Q2judgM3pqciYCp/OpKYz1Bqqj2NgzXfZU6TL8jz1VQKTmno3j+pMn1csnnU3a5fXkz5xJOoqNPXPaxlXfU6XL8D8Ru+CYPVVAJJyCY9ezcaZ+3KR6+WQS1huojmJjz866PXn1uqZ827guw/8oOAYi5Wo2znufMqlfPpnU9QYqo9h4LjrsqdJl+J+IvadqvbpKwTEQjS/EfqZ6evVfuPhoGVs+mb6ZM1Fv0sb1KDaeiy5t47oM/3MKjtlTBUTivdk4mdf/89/+l9zCwj+UNBYCO37t97idSRqKjefi7KlSuW1cp+F/FBwDkfq6fXL6P7L/5Pd+53/JcJi5cePGMJPJ5OI+1VxWf10ko1abaerliiJLG5ezgXrHIkMr7lMlXrGYl/Xqmty7uyH5Gznpnffl/Fyt571MRi4KixdyhgzFno/T71tiWZf/ugrOz/uyf9CU1zt7cto5k9zCghSL3OIAQRuYZuv1br3yq529SuarJw+HIiKGYUipWDxbXV4+NwwjXYXCzlPUykfc3CQZxcZz0aVtXJfhf8VCXu7dvSPr1VWeqgCfOmfdvd39w8reQdOpQ3l5EWzGFfJ5WVtZ2cvlcunaK2DkRFbuUWuTdBQbz82pxVG9bVyH4X8idsHx5kaVPVWAR83W8eu3ewd3W8enV/+l64ONY2FhQVaXl/eKhUIlk8mkKylUNkXWvkPASTKKjefmtI3v15tKFxzrMvyvWMjL7eoqBcfAFMPh8Ozt3sF5rd5c7p2fT/qy6cHGYRiGLC8ttcqLi5ZhGOn6W4vimh1wmGWTbBQbz02PtnF9hv85e6ooOAZsA9Nsbb+p3ThstosDc+ZzvLtgM668uHhWKZfbqXumcubbsEoh2ZhsPLezbk/26k3l91TpMvxvYSEr69VVuXd3gz1V0FLnrLv37evd9Wuem6bxHmwchXxeKktLr4uFwt15/nxsckX7BocBfslHsfHctGkb12T4n1NwvLlR5RYHShsOh2fN1nH729e19SnPTdPMH2wcCwsLsrS42Foql2+kqg7HKTSmkyr5KDaem7On6tXrmhyfdOI+Tmh0Gf4nQsEx1GSaZrNWbxg7tYNlF89N0/gPNo7Utos7O6UoNE4+ayCy95fU4cypfdIZdVWpu6dKp+F/7KmCCq5p1/YruGAzLrXt4pVNlmYmXeMXIo1v4j5F6unSNt7vW2IO7FscuxYnI9msem3jTsExe6qQFlPatf0KJ9g4UtsuTidVcu3/pUh7J+5TKEOXPVW6DP+j4BhJ5rJd269wg40jte3iTqExnVTxsgb281PjF8y7CZEubeO6DP9bKpdkc6NKwTFi57Fd269ogs24VLaLs7IhHoMze7ZNe4ei4Qj1B6bs7NY1aBvXY/ifiNjPVHeqsrZaifso0Mic7dp+RR9sHKlsF2dlQzTOGiLHb3hySgCnbVzlPVU6Df+j4BhhC6Bd26/4go0jte3irGwI3vGOfUPTU7egNa10aRvXZfifiN02vl5dpeAYgQiwXduv+IPNuPLiYvraxSk09scaiBx9y6ThFHH2VCnfNq7J8L+FhexFLQ4Fx/Cqd94/eLO7vxhgu7ZfyQo2jkI+LyvLy6/zN26k55mKlQ3eOEP3eG5KtZ1d+5lK5YJjnYb/LZVLcv/uHfZUYaYQ27X9SmawcaSyXZyVDdOxJkFJOrSN6zT8T4SCY7xvOBye7R8enb7Zrd+KqX7GjWQHG4dhGLK0uNisLC0ZqXmmYmXDJWtgh5nWK9q1NWDf4DQU31Olz/A/Z0/VenWVgmNNRdyu7Vc6gs241LWL67yyYXBmz55hx5OWdGkb12X4nwh7qnTTOevu/ert/nrKJpSnL9g4buRyslyp7JWKxXQEHBF9VjacNezuJnY6YaR90pHt17vKt43rMvzPKTi+f/cOtzgKahy192Js1/YrvcHGkcp2cRU7qZgODBectnHV91TpNPyPgmM1JKhd26/0B5txqWsXV2Flw+DMrp+hXRse6dE2rs/wP/ZUpVMC27X9UivYOFLXLp7GlQ1MB0aAdNhTpdPwP6fgmD1VyZXgdm2/1Aw2jtS1i6dhZQPTgREibdrGNRn+J0LBcZKkpF3bL7WDjSOV7eJJWtngTAc+3qF+BpFx9lSp3Dau0/C/YiEvt6urFBzHIGXt2n7pEWzGpa5dPM5CY6ddm+cmxMhpG9/ZrSu7p0q34X9rKxXZ3LhFwXHIUtqu7Zd+wcaRunbxKFc2nO7Zz01MB0bC6NI2rsvwPwqOw9E4au+93t1fP+104z5KHPQNNo7UtYuHtbKB6cBIGacWR+W/G9Vp+N9SuXSxjJNbHO+Gw+HZ272DcwXatf0i2IxLVbt4UCsbBmf27Ux7h3ZtpJLTNr5fbypccKzP8D8Re0/V7VtrFBy7oGC7tl8Em+ukql183pUNTAeGgvRoG9dn+F+xkLeXcW5UKTi+4vi08/pXO3sqtmv7RbCZJnXt4m5WNhzvMB0Yyjvr9mSv3lR6T5VOw/9ELguONzeqcR8lNpq0a/tFsHEjde3iVzupmA4MjenQNq7T8D9nT9XmRlWbguOBabZ2agfWXr2xqnn9jBsEG69S1S6eK9rPU3Q3ARd7ql69rqndNq7R8D/V91Rp2q7tF8FmXqlrFwdwoX3SuZiNo2rbuE7D/0TsguPNO1VZW63EfRTfNG/X9otg41fq2sUBvEP1tnHdhv+lteCYdu3AEGyClKp2cQDv0GNPlT7D/0TSsaeKdu3AEWzCkKp2cQDv0aFtXKfhf07BcZL2VNGuHRqCTZhS1y4O4B3OnirV28Z1Gv4XZ8Ex7dqRINhEIXXt4gDeo8OeKp2G/zl7qqIoOKZdO1IEm6ilql0cwHv0aBvXa/hfsZCXe3fvyHp1NdCnqs5Zd293/7BC/UykCDZxoV0cSD9nT5XKbeM6Df8TCabgmHbtWBFs4ka7OKCGnd267NWbyhYc6zb8r1jIy+3qquuCY6ddu1ZvLlM/EyuCTZLQLg6knw5t47oN/3P2VF1XcDwwzdb2m9oNnpsSg2CTRLSLA2qwb3Aayu6p0m34n1NwfOf2TVlYyO683TvYpF07cQg2SUa7OKAGp218Z7eudMGxTsP/iqW85HILcR8D73vJfyoJNhgMpH54uE67OJBuuYWs3L97R+7fvaNs23gmk5EbN7IiN7IXw/96XUsyGUvJ4X8q/XtRDcEmBSzLktbx8Wrr+Jh2cSDlKuWS/PZ3f11+6zt227iKe6qcAX/jw//6/YHyw/+QDASblDk5PS2enJ4WaRcH0i03GvO/uVFVtm08k8lI7kZWcjcuh/+d90zpn5tKD/9DvAg2KXXe70v98HCddnEg/YqFvHz3O/fku9+5p+yeqmzWkGxWZDg0Lob/DfqDRA3/y2QyMhxSdpp2BJuUGwwG0my1lputFu3igALWq6uyXl1Vtm08k8nIQs4OM87wv/OeKZmMGdvwPyfQEGrUQLBRiPNMRbs4kH7FQl4+/uhD+fijD6XRbMtOra5c23g2m5FsNiu5G9mL4X/ds0Fkw/8INGoi2Cio2+tJbX//Lu3igBrWViuytlqR3/rOfSX3VGUyIgs5+7bGGf7X75tyfm6GOvyPQKMmgo3CaBcH1DJecKxq27hhZORGPivDYfZi+N+gO/A9/M8wMkPLGlKprAEG9GmGdnFAPU4tjmpt4w4/w//CKgguLRZk4cp6BSQCA/p0Q7s4oJ6rbeP79aZyBcdeh/9lMvbKB56b9MONjeZoFwfUpGrbuGN8+N9wOJSFnCH5/EJkQYYbm8TixkZ3tIsDahpvG9+rN2X7dU25Wxxn+J9lDmUo3M7ARrDBBdrFAfUUC/mLPVVO27gqBcdO/YwRQscU0otgg/fQLg6o6bJt3Ext2/h4MTA3NLgOwQYT0S4OqOlq27jdVZXsPVVOuzZhBrMQbDAT28UBdVXKJamM9lQlsW3cMAyxLEuYQQO3CDbwhHZxQF3jbeNx76lynpwsy4rl5yO9CDaYC9vFAXWN76mKsm3cnkUzZP4MfCHYwBfaxQG1OW3j/YEpO7v1UNrGs4YxNC2L+hkEgmCDwNAuDqgrt5C9aBsPak9VNmuIaVpiWhb1MwgMwQaBo10cUFulXJLf/u6vz9U2bhiZ4XAomeFwKKZJ/QyCR7BBaGgXB9Q23jbu7Kma1DZuGMZwOBxm6G5C2Ag2CB3t4oD6ioW8fHesbXyv3pT9g6Zks9mhaZoZi+cmRIRgg0jRLg6or1QqvM4Xcnfz+Zz0en0CDSJFsEEsaBcH1DIcDs/2D49O3+zWb/XOz2kcQGwINogV7eJAug1Ms7X9pnbjsNkuDkyTvzlB7Ag2SAzaxYH06Jx19371dn+9cdTmb0SQKAQbJA7t4kByNY7ae9++rq33zs9n1sfZk4SBaBFskFi0iwPJYJpms1ZvGDu1g+WBabou+DeyRpjHAq5FsEHi0S4OxKN33j94s7u/uHfQXI37LIBbBBukCu3iQPiOTzuvf7Wzd7d1fHor7rMAXhFskEq0iwPBol0bqiDYINVoFwf8GZhma6d2YO3VG6u0a0MFBBsog3ZxwL0o2rXpikIcCDZQDu3iwGSNo/be69399dNON/T6tCxdUYgBwQbKol0csA2Hw7O3ewfnXtu1gTQi2EB5tItDV2Pt2kUR4dYSWiDYQCu0i0MHtGtDZwQbaIl2caiGdm3ARrCB1q62iy9XKqcL2Sx/l4vUSHq7tmFkxLKGcR8DGiHYACO0iyNN0rJdO2MYIpYZ9zGgEYINcMV4u/jy0tLBYqm0yDMVkiLKdm0gjQg2wASDwUAOm81bzVaLdnHEinZtwD2CDTDDeLt4qViUlUplj3ZxRGFgmq3tN7UbtGsD7hFsAA86Z2fSOTtbp10cYRpr1+aGEPCIYAPMwWkXNwxDlpeWaBeHb8Ph8KzZOm5/+7q2rlK7tmFkhNJhRIlgA/hgWRbt4vAl6e3afhkswkTECDZAQGgXhxeds+7e7v5hZe+gyXMTECCCDRAw2sUxDe3aQLgINkBIaBeHw2nXrtWby73zcwINECKCDRAy2sX1Rbs2ED2CDRAh2sX1QLv2pWw2KyL9uI8BjRBsgBjQLq4eVdu1faMpChEj2AAxol08/VRv1wbShmADJATt4ulCuzaQTAQbIGFoF0+2Zuv49du9g7ut41Pqo4AEItgACUW7eHJcadfmJg1IMIINkHC0i8fHadc+bLaL1M/MJ5s14j4CNEOwAVKEdvFodM66e9++3l2nXdu/DLuiEDGCDZBCtIsH70q7NoERSCmCDZBitIv7Z5pms1ZvGDu1g2Wem4D0I9gAiqBd3Juxdu3VuM8CIDgEG0AxtItPR7s2oDaCDaAo2sUv0a4dr+xCVsyBGfcxoAmCDaA4ndvFadcG9EOwATSiS7s47dqAvgg2gIZUbBenXRt+5G4sSLGYl8HoycwyLRkOh2INh2JZQ5HhUEzTivmUcINgA2hMhXZx2rXhlxNqREQWFrL2P+n832sMBiYTlROMYANARNLXLt477x+82d1fpF0bfoyHGrcWpoQexI9gA+AdSW8XH2vXTtXNks4WskYiu6LmCTVIPoINgGslqV18OBye7R8enb7Zrd+iXRtBINSoi2ADYKo428Vp10YYsllDCoUbcR8DISHYAHAtqnbxzll371dv99cbR23atRGobNaQ0mKBreMKI9gA8CysdvHGUXuPdm2EhVCjB4INgLkF0S5+pV2bQKOgJAQJQo0+CDYAAuG1XZx2bX0YMc98MYwMoUYj2gYb07Lkm1/uSSGfk7XVsiyVC3EfCVDCrHZx2rURpUwmI8USoUYn2gabRvNELMuSzllPOmc9yeWyslwpydpqWbIGEyUBv662i/f6lrzZra/Sro2oZDL2TQ1TgvWiZbAxLUsazdN3/rl+35SDw2M5ODyW5UpJViolKZWYcQD45bSL7+wdxX0UaIRQoy8tg41zWzNJq92RVrsjuVxWqjcrUi4XuMUBgJQg1OhNu//Ur7utmaTfN+VtrSmN5knIpwIAdUVd31Is5Qk1GtPuxmbWbc11er1+SKcBAPVls4ZkxxZHhrk3qljMs6RSc1oFGy+3Ne/8OXMYwmkAQB+Li8F0npqmJcPh9Z/JmUyGmxroFWz29lueb2u8MC1LLHMouRx/twAA0X8sowAAG45JREFUYSC4YBZtgk2/b0qr3Znrz3bOeq6+rtfty/abA1kqF2RtpUxXFQAAEdMm2NQP25H9rOOTrhyfdCWXy8raSlmWl0t0VQEAEAEtgo2f2xqHaVmew0m/b8pevSX1w2P7Fme1LIV8ztc5AADAZFoEmyBua3rd/txPS5ZlXczGKeRz8uEHN6nDAQAgBMq/jwRxWxOkbq8v/f4g7mMAAKAk5YNNULU1pkXLNwAASad0sAnytqbbOw/k+wAAgPAoHWz26u6W7lHvAgCAGpQNNp1OT45Puq6+tnqzIqXi9MLgfj+8EeDTHJ90pdXuiBniYEEAAFShbFdU/fDY1dflcllZrpTkqDX9ycpNsAljIN/BYVu6vb4YhiFL5YJUb1a4YQIAYAIlg02n03M9Lbh6sxLyaebX7fWlO1rAOd4yXirmZWW5JMuVUswnBAAgWZQMNl5va5z/X84mf203wA3fuZy7v+yN5sm1/3znzA5utf2WrK0uykplkVscAABEwRqbeW9rZgWDIJdnugkhpmXNrBGyLEsODo/lm29riZrVAwBAXJQLNvPc1iTRyUnXU5g67bgLcwAAqEypYOOntsbNHqggn6NmmfQMNUlcXVsAACSJUsHG7W2NYRjv3da4WU5pmdG0XI8XDQMAAPeUCTZebmvWVhdDPo0/Xm9rAACATZlg83av6errDMOQtdXyXD/j1GVw8sNN0bBf3V5f3rw9DP3nAAAQNSXavVvtjusak7XVxWvrafKF2U9RUfBaNDyPVrsjxyddOT7pXhRR0zIOAFCBEsHG7Qbvabc1boqHrQg2fEfxDDU+ZbnfN+Xg8FgODo9HAacUygRlAACikPpgE8RtjVvdbrgFvVEUDR9PuRFyJhvnclmp3qxIuVzw9dcLAICopf63ltvbGpHZtzJGBL/Ep/2MKG5rjk+mjFce6fdNeVtrym7NXd0SAABJkepg4+W2RkRkr96Sv/lmV/bqrWv/3KyW7yBqXyb9jCiKhr3+jOVKsrvHAAC4KtVPUV5uaxyWZUmjeSKN5okslQuytlJ2XVMS5jNRFEXDXn5GLpeVpXIh1PMAABC01AYbr7c11xnvDKrerIQeLKZJyjOUI8nrJgAAmCS1wWae25pJnJoSt187rS06l8t6DlxRFA17fYbyMutn+/WB5HJZOqoAALFLZbCpH7Zj243U7w+mB5uFBc9ni+K2ptVyv/17uVJy3Q11MfH5zL5FK+RzsrZapqMKABCL1AUb07Kk0TyN+xiBcXuTMs9N0LhW232wWfHwDHV1P1e315e3taYYhiFL5YJUb1YY/AcAiEzq/pa60TyJtRYm6CcjNwW9dkgozv0z+n3T9bkL+Zzr56Rp+7ksy5JWuyPffFuT7dcHnoIVAADzSlWw8Xpbs1wpBT6bxgw4VLl5hloqF8QwMnP/jKO2+79mXmpr3G5T75z15G2tKd98W2NrOQAgVKl6ivJyW7NcKckHd1bFtCw5OenGWpczidui4bXVsqeOpqvc3pYYhiFlly3erXbH9TZ1R79vSqfTmzkvCACAeaUm2Hi9ranerIiIPW14uVKS5UpJOp2eNI5OfA3C63TORW7O/cclm728eXFzW1PI56SQz80dbLq9vutAt7Lsvmh43q60oG+8AAAYl5pg42W43HKldG3BaqmUl1IpL/2+KY2jEzlqdSKv18mPbivcFg17eRq6jpfalrUVdz/LzwyhKBaJAgD0lZpgs1wpSamYl/phe+oiR5HL25pJcrmsrFeX5dbNpdieqdwWDfsdlHfkss27VMy77l7yM0Mo7EWiAAC9pSbYiNiBxKmbabU60jg6eS+QTLqtuc48z1Re60omcfMMtbLsL9TMCoDj3N4MBTHxGQCAsKSqK8qRNQxZWy3Lxx/dkQ8/uCml4mV78qzbmklKpbx8+IGP4hkPXBcNjz0NFfI3PP8ct3U5bvdCmZYltf2W53OM6w8Gvv48AADTpOrG5jpL5YIslQt2x81Zz/cwuFIxP/NWxrQsX1N13dzWXH0aynps9/ayQsFtbU0QM4SCuO1xCpCZbAwAuEqZ3wy5XDayxY09H3UiljV0FTj8PkN5KrZ28bOSNPG50zmXv/1mV97WmtLpBPM0CABQQ+pvbNLm+OQskqJht89QbvdCBTnxudPp+VqW2e2di4hd79Nqdy62s7OfCgBAsLkil8uKzMgE/cH8zylunmL83tb0+6b7ZygXRcNJuq0REeldqU9ytrOznwoAQLC5ws0vxPN+uAWwbmteJnF7W+MM/5tlb7/l+rbGMIyZX2v6nGUzKRw6+6la7Y6Uinn54M4qAQcANMO9fcIslQu+fxm7Hcrn5ram3zc9rWRwc9vkPCXNy01HWeesx5RjANAQwWYO056TSiXvbdnjliuLvv68203ebut4vAzjWyoXQt8D5aVYmJ1UAKAfgs0Vi8XZRa1hDahzO09mmsbR7FZyEXd1PF5ua0TsGUK5hdm3TVdrZLxwW99EqAEAPRFsriiV7NqMkouAE7Qg2tXd1te4qePxclvjZeKzac5fY+PmNkrEXa0UAEA9FA9fw1mz0O31pdE8ee/Wwu0vV69WfD5Dud3k7aaOp9Ppeb6tERExsuFmZbe7pvLc2ACAlgg2UxTyOfngzqqs316+CDj9vhnKRvAgiobdTDQWcVfHUz88dv1zx29r3DwB+dm35TZUunlSBACoh2DjQtYwpHqzItWbFWm1O643Znvht8VbRFzNrnFTx9Pp9DyFj3n3c3llWpbrUJnL8V9tANARn/4eOc9UQcrlsr4m8Yq4vwVxV1sz322Nw80sm37f9HxD5XaVhWEY1NgAgKYoHk6AIG5r3Jq1FyqI2xo3z1H9OYYcnro8Fx1RAKAvgk3AViqLnm903CyhDIKbvVBv95qevl+UNyNu2+wLBYINAOiKYBOwXC4rH9xZld/4eENu3Vya+Yvf7RLKIMyaNOwUR7vlp7Zmns4yt/Nv3MzSAQCoiWATEqfg+OOP7kydi7MScL3OJKVifuYTTVBza9xMX55n3YHbMMRTFADoi+LhCEyaixNE0bBbsyYNR3lbIyJieVyE6eWGJ6q/ptMcn3Qla2QScRYA0AnBJkJX5+LciKgl2c1eqLCmDE/idtCew23oSkI3VL9vypu3hyJin6d6syLlciGyJ0cA0BnBJgbOM1VU1lanD+SrH7Y93dbkclkxLWviL+pC3t8i0Ou43QiehGeo8ZDY75vyttYUwzBkqVyQtdVyIs4IAKoi2Ghg2qoG07Kk0Tz19P0ODo+l0TyVleWSrK2U37slyRqZmd+jP/DW7t3puAs2ca9SmLQ41LIsabU70mp3pFTMy8py8POQAAAEG+XNWtXQaJ7MtSLCsixpNE+k0TyRpXJBliuLnjaTe92Q7jYIhXFb5IWbJ73OmT0rqLbfkrXVRVmpLCbiCQ0AVECwUdy04X/z3NZc5/ikK8cnXcnlsrK2UpalctH39xxnWlYqamy8Lg61LEsODo+l0zmXe3dvhXgyANAHwSYl5tmaPavrat7bmkn6fVP26i3XKxk6nZ6rriG3qxRE4q2x8bKKYlwYS1UBQFe0aaREIZ9zPfTPMe22pt83A7mtuU7Qv6jdtnpPmhUUBa+rKMbNM6wQAHA9bmxS5Lot45N+mRqGMXVVQ/2wHftNgelylo3bX/xxPkPNe1sDAAgWwSalJg39cyxNmZsyqXMnat3euauCY9c7omJ6hmq1JwdMt7q9Pm3gABAAnqJSzhn6d/WZatpeKC/D+JyfESe3oSGuc3r963kdy6TOBgCCwI2NIsafqTqd3sRf8l5va5YrJfngzqp0Oj05Gs1hCYqbpZZe2sLzMWz19rqKYhK3z3IAgOkINgqa1mn0ttb09L2cCcmlUl5KpbxUb1bkqH0qjeap7xod05z9y9xtfY1hGJGvLDAtK5DbGhH3z3IAgOkINhrp9vqeakGu2wnl7D5yCpgbzZNQu3qSvEqh0TwJ5LYGABAcgo1GCvmc3PvwlusnpVn7rJwC5nmfqdyELDfPVSIipVK0E4eDGm7ocPvvEwAwHcFGM26flLxs8A7jmcrh9jYoqk3pjqCHG7p5lgMAzEZXlKacJ6Xf/HhDPriz+t5Tzjzbx8e/562bS67+zKynHLdPPVEuv/Q63NDNM1ncM4UAQBXc2OC9JyUR/8PuFot5OZDZQ+v6/cHEn9XpuK8HirLGxstwQ8Mw5NbNirx5ezj165g+DADBINjggvOkFIRcAE9D/UHyBvN5bZdfW12UrJEJ8UQAgHE8RSEUbm98pt1UuL3FiPIZykt7t2EYsrZadh3yuLUBAP+4sUGszClPOl2XW72j2hHV6fTmuK0xxO1idqYPA4B/3NggNIaLgXnWlIm7bm8wFiPa6u1l0aVzW+MF04cBwD+CDULjpvZl0q1Mv2+6LtANop5nlk6n52m4oXNb43Bzq+R2GCEAYDKCDRKp3x+4+jrDMCJ5ivJ7W5Nb4NUXAKJAsEFostnZ3UD9wfUB5jRBG71b7Y6v2xq3mD4MAP4RbBAaN91KkwbwuR3MV4hgo/c8nVBXublVYvowAPhHsEFoqjcrcu/DW3NtrXZ7e9HvD6Z2VvnVanc8LbqcdFvjJtgwfRgA/OPhH6Fyhv71+6Y0jk7kqNV57xd4p9N7bzCg246o45OuHH+zK8uVkqytlgN9mjItK5DbGreYYwMA/hFsEIlcLivr1WW5dXNJTk66Uj9sT7wJmecXfGu0XbyQz8naalmWKyW/R5ZG8ySQ2xqR6Jd0AoCu+LRFpLKG8c5uqsbRyXvzW/wU0XZ7fXlba0ptvyVrq4uyUlmcq2vKtCxPiy5n3dbkFtxPYo5yRQQAqIZgg9hM2k117rLVexrLsuTg8FgODo9luVKSlUrJ0x6sRvPEU83LvJ1QVzF9GAD8IdggcYJuex5/plqvLs8MOF5va0RkZqhxO0SQ6cMA4A9dUUicDz+4OXc31TTdXt9V/c7efstzh9JevSV/883uxNoh90tBmT4MAH5wY4NEctNNNY9Z9Sv9vulp0eU4v89fAAD/CDZINC/dVG7MChpe2runcZ6/crmsVG9WpFwuSC6XnXl2pg8DgD8EG6TCdd1UxyddT99j1nNQt9ef+7Zmkn7flLe1pqtN5yJMHwYAvwwReRb3IQAvSqW8fPjBTfn4ozuytlp2HRpmLaLc228FcbxrWZbl6imN6cMA4MuXxt/90X/eEpGPROQ/iUh4n+xAwJxnqo9/bV0+uLM680amVLox8V/rdHqeFl2GhenDAODZtoj8mYis/sFPf/bZO+uXv3rycEVEHojIZyJyL/qzAf5Me6b68IObEzuttl8fJCLYiIh89zc24z5CKHb2juI+AgC1vBSRp3/w0589Hf8nM9d+qYh89eTh98UOON8L8VBAKK7rpvro3u1ru6KOT7ry5u2h6+9tGEaoT0aTzpl2BBsAAXkmdqD58rp/cWKwcXz15OF9sQPOAxFZDvBgQOhMy7ropvr4ozvXfs0339Y8dVp9cGdVyuWCNJonnrd/u3Hvw1tKtokTbAD40BKRz8UONK+mfeHMYOMYPVM9EpEt4ZkKimi1O/K21nT99blc9r2A1Gp35KjVCewpa9qTWZoRbADMYVvsy5Xnf/DTn7n6EHEdbMZ99eThltgBh2cqpNo8tzWTNod3e/2LWxw/bt1ckurNiq/vkUQEGwAevBSRzyY9N00zV7BxfPXk4adi3+L80M/3AeLS6fTkaDRMb5brbmuuY1qWtFodaRydzPVMRbABoKmWiDwXO9C8mveb+Ao2jlEdzpbYIYc6HKROv2/KUftUGs3TiYXB025rJjk+6UqjeeLpmWqpXJAPP7jp6eekAcEGwATbIvJURD53+9w0TSDBZtzomeozoQ4HKdVqd6TRPHlnpozb25pJ+n1T6odtVzdDpWJe7t29NffPSiqCDYArrm3X9ivwYOMYtYs/EpEfhPUzgDCNP1PNc1tznf/3tzszv6aQz8lH9277/llJQ7ABMPJM7NuZn4fxzUMLNo7RM5XTTcUzFVKn3zdnTjV2y+0gQBWH9BFsAK25btf2K/Rg4xi1i2+JHXJ4poKWCDYANLMtdjHw06h+YGTBZtxXTx4+EDvg0C4OrbgNNipOHybYAFr5Quznpi+j/sGxBBsH7eLQTf2wLQeHxzO/TsXpwwQbQHmBtGv7FWuwcTDVGLpwG2xUnD5MsAGUtS2X9TOx/w89EcFm3Khd/JGIfBLzUYDAuQ02Kg7pI9gAygmlXduvxAUbx6hdfEt4poJCOp2ebL85mPl1BBsACRZqu7ZfiQ02DtrFoRK3wUbF6cMEGyDVnHbtQKYDhynxwcYxqsN5IEw1Roq5nUCs4vRhgg2QSl+LHWaexnwO11ITbMaNnqk+E9rFkVKzdlOpOH2YYAOkSmzt2n6lMtg4Rs9Un4l9k8MzFVLput1UIuoN6SPYAInXkstllK/iPcr8Uh1sHLSLQwXju6lECDYAIpOodm2/lAg240bt4lvCMxVSynmmWqksBrajKgkINkDivBT7duZ53AcJknLBxsFUYyBZCDZAYjyTmKcDh0nZYOMY1eFsiR1yqMMBYkKwAWK1LZf1M0r/j1H5YDNu9Ez1mVCHA0SOYAPEInXt2n5pFWwco3bxRyLyg5iPAmiDYANE6pnYxcBfxn2QqGkZbBy0iwPRIdgAoVOiXdsvrYONY9QuviX2LQ7PVEAICDZAaLbF/pv056rXz7hBsLniqycPH4gdcGgXBwJEsAECp2S7tl8EmwloFweCRbABAtESkeeicLu2XwSbGcamGtMuDvhAsAF80aZd2y+CjQejdvFHIvJJzEcBUodgA8zlpdjdTU9jPkdqEGzmMGoX3xKeqQDXCDaAJ9q2a/tFsPFh1C7uLN/kmQqYgmADzNSSy2WUr2I+S2oRbAIwqsN5IEw1BiYi2AAT0a4dIIJNwGgXB65HsAHe81Ls7qYv4z6ISgg2IWGqMfAugg0gIrRrh45gE7KxdvEt4ZkKGiPYQHPbclk/w/8YQkSwidCoXXxLeKaChgg20BTt2hEj2MSAdnHoiGADzTwTe5jez+M+iG4INjEa1eFsCVONoQGCDTRAu3YCEGwSYvRM9ZlQhwNFEWygsG2xi4GfxnwOCMEmcUbPVI9E5AcxHwUIFMEGCvpC7OemL+M+CC4RbBKKdnGohmADRdCunXAEm4QbtYtviX2LwzMVUotgg5SjXTslCDYpwlRjpBnBBin1UuznpudxHwTuEGxS6KsnDz8VO+DQLo7UINggZWjXTimCTYqNTTWmXRyJR7BBCjjt2p/z3JReBBtFjNrFH4nIJzEfBbgWwQYJ9rXYYeZpzOdAAAg2imGqMZKKYIMEol1bQQQbRY3axZ3lmzxTIXYEGyRES0Seih1oXsV7FISBYKO4UR3OA2GqMWJGsEHMaNfWBMFGI7SLI04EG8SEdm3NEGw0xFRjxIFgg4g9E6YDa4lgo7GxdvEt4ZkKISPYIALbclk/w3/hNEWwgYhctItvCc9UCAnBBiGiXRsXCDZ4B+3iCAvBBiF4JnYx8JdxHwTJQbDBtUZ1OFvCVGMEhGCDgNCujakINphp9Ez1mVCHAx8INvBpW+zPoefUz2Aagg1cGz1TPRKRH8R8FKQQwQZzol0bnhBs4Bnt4pgHwQYetETkudCujTkQbDC3Ubv4lti3ODxTYSqCDVygXRu+EWwQCKYaYxaCDaZ4KXZ309OYzwEFEGwQqK+ePPxU7IBDuzjeQbDBNWjXRuAINgjF2FRj2sUhIgQbXGjJ5TLKVzGfBQoi2CB0o3bxRyLyScxHQYwINtqjXRuRINggMkw11hvBRltfiF0M/GXcB4EeCDaI3Khd3Fm+yTOVJgg2WqFdG7Eh2CA2ozqcB8JUYy0QbLSwLZf1M/wHjlgQbJAItIurj2CjNNq1kRgEGyQKU43VRbBR0jOx62d+HvdBAAfBBok01i6+JTxTKYFgowzatZFoBBsk3qhdfEt4pko1gk3qbYtdDPw05nMAUxFskBq0i6cbwSa1aNdGqhBskDqjOpwtYapxqhBsUqUll8soX8V7FMAbgg1SbfRM9ZlQh5N4BJtUoF0bqUewgRJGz1SPROQHMR8FExBsEu2l2Lczz+M+COAXwQZKoV08uQg2iUS7NpRDsIGSRu3iW2Lf4vBMlQAEm8Rw2rU/57kJKiLYQHlMNU4Ggk3svhY7zDyN+RxAqAg20MZXTx5+KnbAoV08BgSb2NCuDa0QbKCdsanGtItHiGATKdq1oS2CDbQ2ahd/JCKfxHwU5RFsIrEtdvH8c+pnoCuCDSBMNY4CwSZUtGsDIwQbYMyoXdxZvskzVYAINqF4Jvb+pldxHwRICoINcI1RHc4DYapxYAg2gdmWy/oZ/qICVxBsgBloFw8GwcY32rUBFwg2gEtjU42pw5kDwWZuz8Te3fRl3AcB0oBgA3g01i6+JTxTuUaw8YR2bWBOBBvAh1G7+JbwTDUTwcYV2rUBnwg2QABoF5+NYDPVS7G7m76M+yBA2hFsgACN6nC2hKnG7yHYvKclIs+Fdm0gUAQbIAS0i7+PYHOBdm0gRAQbIGSjZ6pHIvKDmI8SK4KNvBS7u+lpzOcAlEawASIy1i7+QDR8ptI42NCuDUSIYANEbPRMtSX2LY42z1SaBZuWiHwudqB5FfNZAK0QbIAY6dQurkmwoV0biBnBBkiAr548/FTsGxxl28UVDzZfiF0M/GXcBwF0R7ABEmRsqrFy7eIKBhvatYEEItgACTV6pnokIp/EfJRAKBRstuWyfkaZf1OAKgg2QMKp0i6uQLChXRtIAYINkBKjdnFn+WbqnqlSHGyeiV0/8/O4DwJgNoINkDJpnWqcsmBDuzaQUgQbIMW+evLwgdi3OIlvF09JsNkWuxj4acznADAngg2ggLGpxoltF094sKFdG1AEwQZQyFi7+JYk7JkqgcGmJZfLKF/FexQAQSHYAIpK2lTjBAUb2rUBhRFsAMWN2sW3JOZnqgQEm5di3848j/sgAMJDsAE0MarD2ZKYphrHGGxo1wY0QrABNBNXu3jEwcZp1/6c5yZALwQbQGNRTjWOKNh8LXaYeRrFDwOQPAQbAOPt4g8kpGeqkIMN7doARIRgA2DM6JlqS+xbnECfqUIINrRrA3gPwQbAtYJuFw8w2GyLfbv0nPoZAFcRbABM9dWTh5+KfYPjq108gGBDuzaAmQg2AFwZm2o8V7u4j2DzTOz9Ta/m/QYA9EGwAeDZ6JnqkYh84vbPeAw223JZP8NzEwDXCDYA5ualXdxlsKFdG4AvBBsAvo3axZ3lm9c+U80INs/E3t30ZcBHA6AZgg2AwEybanxNsHGmAz+lfgZAUAg2AELx1ZOHD8S+xfmeyDvBhnZtAKEh2AAIlTPVeLfeumdZwz/juQlAmP4/LdaZBbyKT80AAAAASUVORK5CYII=;labelPosition=center;align=center;" vertex="1" parent="1">
          <mxGeometry x="247" y="370" width="99.95" height="80" as="geometry" />
        </mxCell>
        <mxCell id="9fN0THQdX7Je8e2T6aCW-13" style="edgeStyle=orthogonalEdgeStyle;rounded=0;orthogonalLoop=1;jettySize=auto;html=1;startArrow=classic;startFill=1;" edge="1" parent="1" source="9fN0THQdX7Je8e2T6aCW-10" target="9fN0THQdX7Je8e2T6aCW-11">
          <mxGeometry relative="1" as="geometry" />
        </mxCell>
        <mxCell id="9fN0THQdX7Je8e2T6aCW-10" value="Awala Internet Endpoint&#xa;(e.g., your-company.com)" style="shape=image;verticalLabelPosition=top;labelBackgroundColor=none;verticalAlign=bottom;aspect=fixed;imageAspect=0;image=data:image/png,iVBORw0KGgoAAAANSUhEUgAAAjYAAAHFCAYAAADhWLMfAAABjGlDQ1BHSU1QIGJ1aWx0LWluIHNSR0IAACiRfZE9SMNAHMVfU6UiFQU7iDhkqE4W/ELESatQhAqhVmjVweTSD6FJQ5Li4ii4Fhz8WKw6uDjr6uAqCIIfIG5uToouUuL/kkKLGA+O+/Hu3uPuHSDUSkyz2kYATbfNVCIuZrIrYugVQYTRg1FMy8wyZiUpCd/xdY8AX+9iPMv/3J+jS81ZDAiIxDPMMG3ideLJTdvgvE8cYUVZJT4nHjbpgsSPXFc8fuNccFngmREznZojjhCLhRZWWpgVTY14gjiqajrlCxmPVc5bnLVShTXuyV8YzunLS1ynOYAEFrAICSIUVLCBEmzEaNVJsZCi/biPv9/1S+RSyLUBRo55lKFBdv3gf/C7Wys/PuYlheNA+4vjfAwCoV2gXnWc72PHqZ8AwWfgSm/6yzVg6pP0alOLHgHd28DFdVNT9oDLHaDvyZBN2ZWCNIV8Hng/o2/KAr23QOeq11tjH6cPQJq6St4AB4fAUIGy13ze3dHa279nGv39AMUKcsiY8VKIAAAACXBIWXMAAC4jAAAuIwF4pT92AAATDHpUWHRSYXcgcHJvZmlsZSB0eXBlIGV4aWYAAGiB3ZprliwpjoT/s4pZAi8JWA4gOGd2MMufTx4RWffZdft0/erMmxlZ/sBBMpmZ8Arn//73hv/hS2LVUKV1HaqRrzrqyJM/enx9zed3ivX5/XytHfP76HfHw9eJzKHCZ3md6Pr6TJ/j7xs+n2nyl3wzUN/vE+v7E6O+PnP/YaD3g4rPyKdg74HGe6CSXyfSe4D5WlbU0dt3Szuvz/f9rzDwE/zX3Xn4MVmvcz/+d21Ez4TnlJxPSSXyO5f8mkDxnxTK5I/C78RFTLgofwvHZqklvWdCQH4Vp6+vZ0Y/ZOXrr/Sb4z8kpejreODA98HUr89fHk/y6+CHJ8TfPLnsryd/d7yVlH9czufnXuvh3vNa3axKSPW9qM9Snr+4kLDX8tymfDd+hL/b8z347gH0blJuccfF904jZdJyU02WZrrpPJ87baZY88mNz5w3ifJjvbQ88i4xkKfq3+nmVkax0knmJr2Fo/lrLul57nget1PnwZa4MicGSw6F4L/+ie/fDnSvQz6l2L9ixbyyB5xpeOb8N1eRkHQ/OJInwJ/vH788r4UMyhPmzgJnXK8hlqQ3thxH5Ul04UKIJb5qLTV7D0CIeLYwmVTIQNRUJGmKLeeWEnHs5GcyUM+l5kUKkkg2ZplrKUpyevZnc09Lz7VZ8uswnEUihGJqpGaUSa4qxAZ+Wu1gaEqRKiIqTboMmVq0qqhqUye/2UqrTZq21nobbfbSa5euvfUe+uhz5FEgRxk62uhjjDl56GTkyd2TC+ZceZVVlyxdbfU11tzAZ9ctW3fbPeyxp2UrBk+YWrNuw+ZJByideuToaaefceYFarfceuXqbbffcedX1lJ4pfWn7z/PWvpkLT+Z8gvbV9a4tbXPEMnpRDxnZCzXRMabZ8AJzHMWe6o1B0+d5yyOTFVIZpbiybHkGSOD9aQsN33l7q/MfZe3UOt/lLf8yVzw1P0TmQueut9k7ue8/SJr5mqzYwlPhrwMPaixUH5ccPrMfbqo/fFn+Hdv+G8eaM1h8VJDrY8iu0lJ0ou5G6m3FNt390msyx5wo9RN5vM81pHolpvWfgQQHHC4b292crGI8twytw8aIrp+bOuVcns8tZ2cF1AD/ZKl1Z0FUDfVVIV/iNCvpxv+swCN6xy5b8YfndSNiRSjGuso12s7qiSxegYmppgwXdG6gKm2tFq5ax/K7x7H6e0nL8vEqBS09sZuc25lzU2OWcerOKKl5majUrGXCjbFt3DpHWPV3B32tfVzCEWIZ65pda50KItm1M3Q0vfMbc9yplkkbLostSqXsm8D6WwcKZSsrNnchNoOPPZOPXgH0mZtoblxF70p78Zv5rKhs82DJnYBbYnU9+rkiaIlfbXMmSj/MG9fUsbliTuVk65heRbRGBwZm9Ur1oIi3Zt63cAoeqyPggnYTxvuYyjkT67NFDQ5xqzBH+dCZh1y4Lj25Ym4konNKfJkBMLpiwFbqrdq61OX3BDJyYz5ZmVhRI2M4i32gf1OuUZiKsYnkycmDqSlYk5AM8h0vtVdWbtYDMegmPKAXi60iIFPapF0kEnZG/dicfXtAc4dtkwMneYZXfPRdTIo0XFS0MwQjIMt6pO5LbEL63qwUAg7e8itZ8HMGXY/AlhOb6sZJcZAUBu8ltcNKZ6+0qo3VmQYgq+sEuSMls5dHhkZk4E057HvpPZkeMUysRYvfD/Ic5EV9tQ88GF9YtEEOM+RbifXBwinJ0OY/7//DF8HpqEFYzQAXk92H8gCj0rGFy7sIMJsLRnlwJl6OxhfdryqRNcAR1uxeoNTVNwAKphAJKQPq0QYTKMQaEO7cZZN6trl0gjGe5E7an4Ql8ERlatMxE1tIc+1EZU05m36ZHKDfyYA18AuuKbSqGmlNIAwZ6mzmPh3G5K9VupnTwFBeUM7RL9MaaWuVO3QhGBr04ae5jaiSeHeqJCBiowlcQ3YyixUV2uKvRkhAXupkxkwkKY1RLYQIOtTqOluvUIV7wvl8I+Zp7W1UfmBkKCjKp30wp2b4oSVD0iEU1F4K6NtZLpScpm5jOPaiCXQRmVN1PZGs7UDLmVRe32QjUsckp5V+9oLB8JC8u5QMGruJUbkpXcqUtKaqxbQTQ8Lz802AjkS3QYJDKG6FxcRBJsVyM6DHUIKLHvdzjRh8NPaggwGP551hm5XyVhgtqxkbdgU0okZ8VjxnEKoCqEiidlQFRwRjd7Z1xq6AajPLvBGgw6YCCUX4ip0o0//sbxuuLlwqVG8fEccRhqAi0EUY0L/IC8wQ2aPrsQEzwKSQJpB7MRGHNwL5Ob0vObZqze5tJeHIQdxHcBQ7YCLfPpoR2maJkwSaWsAYNjFa4s6dhbD3ODXKEZc1thgKLcFcctDfQ7T01MesszKVEzOAmSweN8XYsPcwLx3N1deKAk9ggOi938NLEAc4txMuzW91ij+vKssgdiZHGUIvOiqwu4YSHKCjhER9VAW5Mt5kbltUCltitdYhFERByfTwQLhQYiHFq60c04Nl8gwUIfVylnwpTJhLBzBMqWyAVUciXqgzxi7TW1MTDbZ5aGeqSnIW7w4f6LyiPDKP6vyMqxh8dLnw5Kz+Z194xOhzZ1ATMHGGyYkuOt1AwKUIBhEErKkBnC99yzCe7Ek7jYPqV54VWetjg02M9Qbt5t08JQYFpXAzeKS2LE4ffh2iMMUAoM304BNbqa2mQP20xQoNcmMHRFYZMMEQ3TDJFYJ8Srnwn49FRzwQhnA36GEEdLqPuNklgAMD9Tn+NPDcUpfsMyw90iBnPifSEe7/vAhzI+6xQrQEGDqSf88JJ2q0uSbQR26IKDCAm3PlDEMFE2gir33yzTodCKLsWsb0avtdMJD0AvUg3VuZYF4iUNtCsIPB3dQsw3xgTKxNUMrZGlEmjsXqg0OxG9qOIQxjWFYKY7f/x08YI/qYXNgOemQVWYVNlY/I+OXMjgR/FGuGKEJYE9UKIOhxiVLVD8cmEwnRA4Vgz5kATok9DQvoVgHFwTAaFOoNWY586bHaHctJr/npPpXJ8JZBqyE4wTJPAGijnUDnVp2OwFigqxqWbbaHjCpTrdg28MOan3voyopVvwJFtAJUJkza9KMkVorcwlgC8RGkVfLx8sEX2EssmyqNS2HjfdRxJ1qAeprkGq3GbDj3IJh9qYcqbkW8DK6lPqB4WGGw6MofU5Su+TxZHgT1alCvziwsVbaFrgdwzHHtnIGHoKKCuNpUQfCHMvEEDhH8iAlStc9BdOwRVmgA8DIO0caUmbqOg2FoZK4D+IZTK8yNQ5WCoqU01165Xema3KYRWV+TK+4oaRqUR9Xj9GA7YCbiEFNekOGzRG2tg79sRt/Zk6JCbbT0A5YPJ1F/eOyyeA6jUKuLS78X2WZPJV2G/8QhtPHfHUrMO5fPgWiopnEOO7j7Ewkn4E0//pMoDdNDji0NVPU+hqTrmRnqtURV26mu8TETwiFxoa+BwWl4lAinBZtwoEcQiLwrN1dH7aBqM69O5ivJJ2I0h5cCJGMkE0yCbng12FCuqbBP2j2IbsUMKtZYvnZguFscLasQWMfExp9eVwndWyK+D4gsowkHPI8dwB1BBSbcm/CdIEZgAgN3eWa5HaJEXDOzXcGoj57f3DMVipneOFQCwXYBkLFrdONCBVENrGdDTftkEArjDVAHBTJ3nDrvMuJG96eGCpEgkXi2y1X0r/Aa0IojLvzojVykLsRRSOo31kQYiYrG9bGXGzMkNJkxVy8CBcXZ2xPaIR08GR6UXoLmjgaFKRbveznRgFmF5okn9R6y/2ulBsQ+wCs+dzxkMhr9UYVscXc0c3R0YncgjjSgFI3m1ig1U8rimrs95++b4sgmG8i4Y9QB4It3OXj7i3fnPz+HL6p0AhQIBXmt9e4UOtr3OADfx5geSLrbcFqyDhzJm7NweCsDMthwOPTHcJPJCzPwWH4CTcBH7EgFAMve5RwilMEzRNg9b6C5KMOcxMtMOrWx50RMkjHZbkgb6635CYHWkqaSKHZwABrEmdmQQb6wvnhrbCLqCvKYdhfLOx+HLtjLlFd1/d+6P92D3hM77BOhMHBRkLPkVjuZYZIJ20Tbrivx/FB0ChdoqGgp6XO9mj0UHRKLDKkLNXLQjDAGJGJK8bPwitcEl37csapAWf4Govd48fxJU807uqd6vBXrt8E9B06HByvNDEH72efYcQo68+IGFVsq4blt7oQMIq8Bk2vUz+d2YLHQzVe6CroD+p6cbp66LKbQVD5SSd+EReRjRYW8uysclMzXbx/7uI7bBjzHEfdDNCv04Cz6ijoiYbszSuuIKk+XRHUSAnhNFxSMbBoE4hAYxnMp0Vmk4uKqku1+ZucdDGLwUAmdEunyzVgg46HpmJBNfQZcZOxWZ/txLgBUgR0GC5i/mXqSCQNn4aGvcJpZzjIWdPrgdVhWWEP8ohtEtosxvLtxk94M00T47rEm2eQ3ipgMG8Dy3MAgJzBE2bnF5s81K3zPVLmSceK8xsdGN6y0xuO4AfwOWNdpvERnJcSoGVk+j0Uvcf4xqS62ZTXvS+7Gcb8jN3nz6c/Z1Fu+rOBL6Rq65gD7UECyDUj40tbDOgCHgG5LBRXdRdA51/QOCrBgRwbldOA9ip0yyjZoVbRYoBuqLC/kqruLAPdLVwVCV6B191R4wOs4ri24oPg4IKvp3e+T1p1r4OVzhhG7BD0TYKX73dhj2nfcAic5DKNMIIwoQSutrgt2HRL198aFcQe/+TbHRlDhtQ1jkIiPK1oAJgZ1cRz0Z/R3FQaeR3UlrsHXw9Egn9S+jBwSqOERiM/eAgbtDjJN6UzzWJQcoPPmuKbN486end0H9L8Djv/+jOF9Gva/8mL/B0ZhG/ZIMmMrWPuaBR0T6gYxoN2jzsHuiHaRym++eDK4+l2V3cwkbQAYfmmV6ZvPYAXyXbadqcJU8811ZshiAA9xB+fTOMmdFoDJ2KkiTYOg5GzPB2kdFpFpv/0o7QuvlUJ1nhgrtV32VlppPQxcKjLGsAuPkoIK6Xi+34kWQLNhBcXmoNIDH+1xMSi1U81QEMGNVVm5HZVoWh/A8DnNfR3Q+nLd10CHYXiokgidqD5hj3Zx6sA/NQH9ZBcvGmUna7whWBnoHDP245WQD4LLaApEF9MPK4VpNHazILZp8RaY8RnphOH8QdwCI/IVt+aJdwv2cVBzeWeiD4qw2JK97oquH4KeAMSVgNAID3v8BCkk2NQTF8nMQemsqfRxzbn+5QFPLVhktf+ru8BYaP68C1ec2Kgfgomsxn9HLqWuB0+oGfZFfCDp47vHeZ70/nATIgrLO9NIPYIfyF1SKn0STJ9w/1tiYOU/LutvPKoMyFeT0d/sVx0l164dDNlZN/LxogmPGKboSgK7puuc2Fp4MrSDYeopwt98ym+JfDewN8efQiu5sSQqD9kQuuTnh0+2vUooGYVWZjEvRJulzEV9kjJNyhoDUDkVGVeWEa3AEtT87alpu0WGntAd+St4KU0zNF6+0KiSPyiZ+mPzSroJf5vXU8Wbmv79kM/Tp/PfinmqPlecEgEqty6aG4q3SjupbqVwjZRg6APGDY36t2N71HvTBNWxinr/T6iPvEOT1TT662Tecv1TcAnruTgtXxPrBy1SxAaUgzDXXLp24yAYBRcHTg6tgYETz/te/cT4wPoUeluVesqz/8WcbnhektxT8ZC0ADCtQZxXJrbar49Hzw+DEA1Az/zl3sjQ9VHhu/1gZp1hLwk8x100g5l03nAcG6SeTD4xEy0HZBrGg4aneL77tiMRosIT/q7B1IDUlyqpF04jiLYRB0qFWoSAulwh2/7kd5nRr4nftyO90ofwxoxZ+j/K5ZW92/e8vzB2yxcELb3mArKA75y9b1D31QBV/Sk8OPW7u970DSiOJKGWdI03+SiIpBkrb5tDbQeCYj05pT98C2zlDPWazi5eeXD6H1T4OZd0xI4mxp0HVmOF+JJFZnrLfp1R/P+FLi5mTvqwk7rAtRpVZC01ctaNyswuyO0JXQ3F2+gkS4brK470Ib72ijwNz/V3/dg0aVSOpcK3NAernpE8r6e/UIb4WmS0JoF0x8YFovvklK90OhhYShJDUiUycJYjPh2CCoKB61E8dFgcgafjSpBQdk5cVff3q3XX4FhrZEWQM2A3vI/9ipuhESZDIHGX46Mxj2OggkHBSDO9kW9Ez7+2jm9KJVwDvyXswQQoSQgGVTBN7whS3+XY7gXoNnjkB2uMYXiu3pNqm/8woiYNtBIsScUh7D7MqEjOMg6QdAG2ZWGsW5PioFsOUHdBfaBfy307Fjqg/ZgzQcrpUR9E7mywH62v1rBjmR88Evy67eaEv7Ia/zB52cgncf9QDXvS8k1HEgeFXFGMssi0wVYGiZfxd9V0kJS1pTp8rcB9O5hQn+Dvg5WWU2ft2DXhTrdPEFi9I2L5U/Lz/u4tJSsvnrOkn4xo39saf+1A4FlGziK/wcClVZO3A+2UQAAA8FpVFh0WE1MOmNvbS5hZG9iZS54bXAAAQBVVEYtOABYTUw6Y29tLmFkb2JlLnhtcABYhe1YzW7jNhC+5ykE7aVFQZH6tSRICdIk2zUQN0EctL1S1MhWo79KdCTn1XroI/UVSlJeR25Sbw9doAf75Jn55psZzgxpOLoYGsqegGsJrPIq1v/8/Q9dy9NY/9ldkEVzBev800sLy5cfH9nLEwtS/eL8LBrCoWxK4FQbyqLqwiHWaVonEIrvUo11TUH4U6z/srjXruoWNMdwDIJuhvzZ0s/PtKhNs/Dh+uOOQkixvua8CTHu+97obaNuV9gMggATC1sWEgjUbStOB1R1HyTFyHENHWvzhud1pUmZJvWGx7ou7NqOXFjZzcD3AaSs6Due4rkQHJGsAGCLEB8RC1kBnvoL62Kx9646Q1VrsLrEA22waRBclgceHb955sc9usdtA/gBunrTMrh5hop/mFI0xaabMmw6kCqVd5FmWCSleKY+P8wX9wfHuMrLRnlI9BSZsj2u2bSFwqQMQwGlSKQTzOYBnudZ9n490vImERHuePUKrM41vK7ZRgadX8e6zDdMa5anofoKVpaaAcmQl9gZcuwsQT7xLERm4Lg2eMSzvQnVvOo4rRhIKqExcsET2J6XEWIiL/Ud5GTUR4HrzxBYHvUS5niWl00o7tpcbAItpllJqlRQ+ZYZWBmkiCSWj5zAdVCSuAGiphsIKpsmzFVUsg/h5f081i2DvGruC8qzui1j/TavNsOr4TEvYcmpPDTTM13Xm/mO6fpi+v1X0E/QdmLIJadJDMtSlpSFHwUjFcOWl3QFuKlWyiDbIosRJVCu3MzPVYZXLVBet491XcS65NYkpVopLdotS3hbM+WowJAq47hx39MVHrH4GPgN03Jd99W/43mF7lkuW97X7dNde5f8Cowf53kPvGd6EHddx9vt/AtF/Q0XjQPySejqdjtxXcJvozSKRT4KmroEQsrG4+/oM6T6gYmtabUCcdviQ33+zhibmeOzwAE0M4kY48SxkZgPQG5mi7H0zcxm3iFLV2e8py1crsQMiD6LfVJ91r5R0/ftIbpfg0jyO0JCQnT89esRBdCE2AFyZkxsNnVdlDgWINMBNvNmDqQO/Nf1RHjargi/bWgkr9hwLjdpuWmaIof2sNGfZ+QfcBP/3ZJ9yX0KG72v6mYrLqE1v+uro+HfAY4MtzmDqjsaewoZj2XyjsrnGe/eZ/Hc4/17vxuLr/w5BTkFOQU5BTkFOQU5BflfBTmL9v8YQCV+6PX6xflf7RGCZHAyW8QAACAASURBVHic7d1dbFtpft/xPw9F80UU9WLTskZj2JPMJtmLZAboRQsUwS4KBCiCFmskN7kosLpo98Zoa6RBuotigQlawEXRANOLAoUvWhvIAr0qPC3g6/Hl3LQ7QdIi2cGOtbYsSpRIkZIoUuQ57MXhkWhZJM/heX+e7wdYJNiVpWdnd6nfPM//RQQAAAAA4E7txeNPay8er8R9DgDqy8R9AABqqr14fF9EHojIIxG5JyItEXkuIk/v/P5PvozvZABURrABEKjai8cPRGRLRH4w5cu2ReRzEXl+5/d/8iqCYwHQBMEGgG+j25lHYgeaZY9//AuxA87TYE8FQEcEGwBzGdXMOE9NnwTwLVsi8lTsp6qfB/D9AGiIYAPAk9qLx98X+2bmhyH+mK/lMuQchfhzACiGYANgptFT09boH/ci/vHPxH6qeh7xzwWQQgQbABPVXjzeEvu5aVohcFS2xe6q+pyCYwCTEGwAvKP24vGnYtfNPBDvhcBReSn2U9VznqoAjCPYAHAKgbdG/wiiEDgqzmyczyk4BiBCsAG05nLmTFowGwcAwQbQzdjMmQcSfSFwVL4Qu6OKgmNAMwQbQANjM2e2ROR78Z4mUszGATRDsAEUNjZzJsmFwFH5Wi6fqig4BhRFsAEUc83ySbyP2TiAogg2gCIUKwSOyrZcPlW9ivcoAIJAsAFSbDRzZkvmWz6JdzEbB1AAwQZImRCWT+JdzMYBUoxgA6TE6KnpgYS7fBLvcmbjsIwTSAmCDZBgMS+fxLuYjQOkAMEGSKDR8skt0WvmTFo4s3FYxgkkEMEGSIiULJ/Eu5iNAyQMwQaI0djySWbOpN8zsZ+qvoz7IIDOCDZADJg5ozRm4wAxItgAEdFk+STe9VLsgPM07oMAuiDYACFi5gxGmI0DRIRgA4SA5ZOYgtk4QIgINkBAmDmDOTAbBwgYwQbwaTRz5oFQCIz5bcvlU9WrmM8CpBrBBpgDyycRImbjAD4QbACXxmbObAmFwAifU3DMbBzAA4INMAPLJ5EAzMYBXCLYANegEBgJ9oXYz1RP4z4IkEQEG2BkbObMlrB8EsnHbBzgGgQbaI/lk1DA13L5VEXBMbRGsIGWRk9NzkRgnpqgEmbjQGsEG2iF5ZPQCLNxoCWCDZQ3tnxyS3hqgp5eiv1UxWwcKI9gAyWxfBK4FrNxoDyCDZQytnySmTPAdM4yzuc8VUElBBukHjNnAN+YjQNlEGyQWiyfBALXksu2cWbjIJUINkiVv/7ZT363fnj05/kbud/+8IPbhdxCNu4jAapiNg5SiWCDxKu9eLzyi1+++fOj9skfHjZa73Q1bW7cktu31mS9uhrX8QAdPBP7qYrZOEg8gg0S6+tnf/qj2v7hv64fHv3aYGBO/dpiIS+bG7dkc6MqxUI+ohMC2mE2DhKPYINE+T//7U9+5+T07D/u1RvfOzk9uzHP97h9a1XWq6uyuVEN+ngALjEbB4lEsEHsai8er/xy++2Pj1onW42j9vqs2xm3FhaysrlRlc2NqlTKpUC+J4D3sIwTiUKwQWz+93/9V3/UPun8cW3/8O90u+dGmD9rqVyS+3fvyO3qmlBwDISG2TiIHcEGkaq9eHz/F79889PW8ekfHRwexXKNsrlxSzbvVGVttRLHjwd0wTJOxIJgg0h4KQSOCgXHQCSYjYNIEWwQmr/+2U9+t9Fs/3T/oPkPjk86iX7/uX3LLjambRwI1ddy+VRFwTFCQbBBoJxC4Fb79J8dNltrSbmdccspOL5/9w63OEC4mI2DUBBsEIivn/3pj/bqjYeNZvt3ur3zuI8TCAqOgUhsy+VT1at4jwIVEGwwt9qLx/d/uf323zeOjv/xweFRqdsdiGUOZWHBkOyCIdmsGv/1WljI2nNxKDgGwsZsHPimxm8eROqv/uLHf7JbO3i0d9DcHH9qGg5FTNOSQd8SyxpKJpORXM6Q7EJGMhk1/qtWLOTl3t07srlR5RYHCA+zcTA3NX7bIHR//bOf/O5R6/hxbb/x99wUAg+HQ+n3LTEHlgyHItmsIQu5jGSzoY6riRQFx0AknNk4LOOEKwQbTFR78Xhl+03t3x21Tn5YPzwqz1sIPBhYMhhYYpn2Lc7CQkYWcoZStzi3q6sUHAPhYzYOZlLjNwsC9fWzP/3RQePojw8OW7951u0F9n2Hw6EM+pYMBkMZDodiZDOysGDIwoI6tzhrKxV74zgFx0CYnNk4LOPEewg2EJGLicBPWsenfz+KicB2Lc5QTNOSTEYku2BITqFbHKfg+N7dDfZUAeFiNg7eocZvEcyl9uLxys5u/V80W8f/vLbfuBXHzJnhcCjmwK7HGQ6HYhj2M1U2a4giGYeCYyA6z8R+qvoy7oMgPor86oAXf/Pf/80/Omi0fuy2EDgqpjkUc1SPk8k4BceGGIY6/zXd3Lglt2+tUXAMhIvZOBpT5zcGpqq9eHz/9dv9zxrN9h/u7h2W4z7PNMOhXAQcyxrd4oxm46h0i8OeKiASL8UOOE/jPgiiocivCUzyV3/x4z/Zqzf+adCFwFGxLLvg2DTttnHVhv+JXBYcb25U4z4KoDJm42hCnd8OuFB78fjTX/zyzX9oH59+v354lIv7PEHQYfgfBcdAZJiNozA1fiNAai8er4jI1tvawb/8v3/76n7alk96ocPwP/ZUAZFhNo5iCDYpV3vx+IGIPBCRHzr/XPukI9uvd2Wv3hSVA46I+sP/ROyCY/ZUAaHblsunqlcxnwU+qPPpr5Hai8f3RWRr9I970752Z7cuO7sH0jhqh3+wGOkw/I+CYyAyzMZJMYJNSoyemh6IHWa+5/XPn3V7FyEnjUXEXqg+/E/E3lO1Xl2l4BgIl1NwzGycFFHnk15RtRePPxWRR2KHmuUgvudevSk7u3XZP2gG8e0SS4fhfwsLWdncqLKnCggfs3FSQpGPd7WMnpoeiB1opj41+dEfmLKzW5ft1zUNbnHUH/5HwTEQmS/EfqZ6GvdB8D51PtUVMCoE3hKRH0T9sxvNtuzU6soXHOsw/M9pG6fgGAgds3ESSJGP8vQa3c48EjvQBPLU5Ed/YMp+vSGvXtfk+KQT93FCpcPwP2dP1Xp1lacqIFxfy+VTFQXHMVLnEzxFxgqBH4nIJzEfZ6L2SWdUcFxX/xZH8eF/InbB8eZGlT1VQPiYjRMjdT61U6D24vH3xb6Z+eH0r0yenV37mUqHgmPVh/9RcAxEhtk4MSDYhMzLzJk00KltXIfhf86eKgqOgdC9FPupitk4IVPnEzphai8eb8mcM2fSwr7BacjO7kHcRwmVDsP/2FMFRIbZOCEj2AQojJkzaaBX27j6w/+cguPNjSq3OEC4nGWcz3mqCo46n8YxcZZPjv6R2ELgqOiyp0qH4X8iFBwDEWI2TkAU+giOVpwzZ9JAp7ZxHYb/sacKiExLLtvGmY0zB3U+eSMwNnPmgShQCByVs25PXr2u6dE2rvjwP5HLgmP2VAGhYzbOHBT6uA2H3+WTeJcue6p0GP5HwTEQqWdiP1UxG2cGdT5lAzY2c0arQuCo6NI2rsvwv6VySTY3qhQcA+FjNs4M6nyyBiCq5ZN4l7OnSoe2cdWH/4mIPRfn1hoFx0D4mI1zDYKNXMyceSAUAsfKaRvf2a0rX3Csw/A/Co6ByDAbZ4w6n6IejWbObElClk/iXTq1jas+/E/Ebhtfr65ScAyET/vZOFoFm7Qsn8Qlp218Z/dAGkftuI8TKh2G/zl7qjY3qhQcA+HTchmnOp+YU4xmzjyQFC6fxCWnbXy/3lS84FiP4X9L5ZLcv3uHPVVA+LSajaPQx+S7VFs+iXfp0jauw/A/EbvgePNOVdZWK3EfBVDd13L5VKVkwbFan46S8uWTRk6ksimyuC5i9UXaOyKne3GfKtHOuj3ZqzeV31Oly/A/Z0/VenWVgmMgfErOxlHiIzH1yycX1y8DzVWDM5H2G5GjbTvsYCJd2sZ1GP4nwp4qIELbcvlU9Sreo/iX2k/CseWT6Zw5kyuKLN8XqXwoYiy4+zPHO3bIOWuEerS002VPlS7D/5yC4/t373CLA4Qv9bNxUvfpl+rlk0ZOpHzbDjR5H7UEvbZI65XIyT63ODPo1Dauw/A/Co6ByDizcT5PW8FxKoLN2PLJLUnrU1N5XWRpM9jvaw3sG5zWK5H+WbDfW0HOCgfV28Z1GP7n7Kmi4BiIRKpm4yT2ky71M2dyRTvIVD4UWSiG//POGiJHryg2dkGfPVV6DP9zCo7ZUwVEIvGzcRIXbFK9fNJ5alr6UKS4Fs8ZKDb2RJ+2cfWH/4lQcAxEyJmNk7hlnIn4VEv9zJnimn0zs7juvhA4ChQbu+bsqVK/bVyP4X/FQl5uV1cpOAaikajZOLF+lKV6+WSuaAeZlfvRPDX5QbGxJ07buOoFx7oM/1tbqdgbxyk4BqLwTGJexhn5J1jql08682aumzmTdBQbe6JV27gGw/+cguN7dzfYUwWEL7bZOJF8bI3NnNmSNBYC5yv2zUzSnpr8oNjYk/ZJZ1RwXFf6FkeX4X9L5dLFMk5ucYDQvRQ74DyN4oeF+mmV6uWTznqDpU1/M2eSjmJjz3Z27WcqlQuOdRn+J2Lvqbp9a42CYyB8kczGCfwTamzmzANJYyHwtPUGqqPY2BOd2sZ1GP5XLOTtZZwbVQqOgfA5s3GeBl1wHEiwGZs5syVpXD6Zr1zOnFHlqckPio09s29wGsrvqdJh+J/IZcHx5kY17qMAOgh0No6vT6NUL58Mar2Byig29kyntnEdhv85e6o2N6oUHAPhC2Q2judgM3pqciYCp/OpKYz1Bqqj2NgzXfZU6TL8jz1VQKTmno3j+pMn1csnnU3a5fXkz5xJOoqNPXPaxlXfU6XL8D8Ru+CYPVVAJJyCY9ezcaZ+3KR6+WQS1huojmJjz866PXn1uqZ827guw/8oOAYi5Wo2znufMqlfPpnU9QYqo9h4LjrsqdJl+J+IvadqvbpKwTEQjS/EfqZ6evVfuPhoGVs+mb6ZM1Fv0sb1KDaeiy5t47oM/3MKjtlTBUTivdk4mdf/89/+l9zCwj+UNBYCO37t97idSRqKjefi7KlSuW1cp+F/FBwDkfq6fXL6P7L/5Pd+53/JcJi5cePGMJPJ5OI+1VxWf10ko1abaerliiJLG5ezgXrHIkMr7lMlXrGYl/Xqmty7uyH5Gznpnffl/Fyt571MRi4KixdyhgzFno/T71tiWZf/ugrOz/uyf9CU1zt7cto5k9zCghSL3OIAQRuYZuv1br3yq529SuarJw+HIiKGYUipWDxbXV4+NwwjXYXCzlPUykfc3CQZxcZz0aVtXJfhf8VCXu7dvSPr1VWeqgCfOmfdvd39w8reQdOpQ3l5EWzGFfJ5WVtZ2cvlcunaK2DkRFbuUWuTdBQbz82pxVG9bVyH4X8idsHx5kaVPVWAR83W8eu3ewd3W8enV/+l64ONY2FhQVaXl/eKhUIlk8mkKylUNkXWvkPASTKKjefmtI3v15tKFxzrMvyvWMjL7eoqBcfAFMPh8Ozt3sF5rd5c7p2fT/qy6cHGYRiGLC8ttcqLi5ZhGOn6W4vimh1wmGWTbBQbz02PtnF9hv85e6ooOAZsA9Nsbb+p3ThstosDc+ZzvLtgM668uHhWKZfbqXumcubbsEoh2ZhsPLezbk/26k3l91TpMvxvYSEr69VVuXd3gz1V0FLnrLv37evd9Wuem6bxHmwchXxeKktLr4uFwt15/nxsckX7BocBfslHsfHctGkb12T4n1NwvLlR5RYHShsOh2fN1nH729e19SnPTdPMH2wcCwsLsrS42Foql2+kqg7HKTSmkyr5KDaem7On6tXrmhyfdOI+Tmh0Gf4nQsEx1GSaZrNWbxg7tYNlF89N0/gPNo7Utos7O6UoNE4+ayCy95fU4cypfdIZdVWpu6dKp+F/7KmCCq5p1/YruGAzLrXt4pVNlmYmXeMXIo1v4j5F6unSNt7vW2IO7FscuxYnI9msem3jTsExe6qQFlPatf0KJ9g4UtsuTidVcu3/pUh7J+5TKEOXPVW6DP+j4BhJ5rJd269wg40jte3iTqExnVTxsgb281PjF8y7CZEubeO6DP9bKpdkc6NKwTFi57Fd269ogs24VLaLs7IhHoMze7ZNe4ei4Qj1B6bs7NY1aBvXY/ifiNjPVHeqsrZaifso0Mic7dp+RR9sHKlsF2dlQzTOGiLHb3hySgCnbVzlPVU6Df+j4BhhC6Bd26/4go0jte3irGwI3vGOfUPTU7egNa10aRvXZfifiN02vl5dpeAYgQiwXduv+IPNuPLiYvraxSk09scaiBx9y6ThFHH2VCnfNq7J8L+FhexFLQ4Fx/Cqd94/eLO7vxhgu7ZfyQo2jkI+LyvLy6/zN26k55mKlQ3eOEP3eG5KtZ1d+5lK5YJjnYb/LZVLcv/uHfZUYaYQ27X9SmawcaSyXZyVDdOxJkFJOrSN6zT8T4SCY7xvOBye7R8enb7Zrd+KqX7GjWQHG4dhGLK0uNisLC0ZqXmmYmXDJWtgh5nWK9q1NWDf4DQU31Olz/A/Z0/VenWVgmNNRdyu7Vc6gs241LWL67yyYXBmz55hx5OWdGkb12X4nwh7qnTTOevu/ert/nrKJpSnL9g4buRyslyp7JWKxXQEHBF9VjacNezuJnY6YaR90pHt17vKt43rMvzPKTi+f/cOtzgKahy192Js1/YrvcHGkcp2cRU7qZgODBectnHV91TpNPyPgmM1JKhd26/0B5txqWsXV2Flw+DMrp+hXRse6dE2rs/wP/ZUpVMC27X9UivYOFLXLp7GlQ1MB0aAdNhTpdPwP6fgmD1VyZXgdm2/1Aw2jtS1i6dhZQPTgREibdrGNRn+J0LBcZKkpF3bL7WDjSOV7eJJWtngTAc+3qF+BpFx9lSp3Dau0/C/YiEvt6urFBzHIGXt2n7pEWzGpa5dPM5CY6ddm+cmxMhpG9/ZrSu7p0q34X9rKxXZ3LhFwXHIUtqu7Zd+wcaRunbxKFc2nO7Zz01MB0bC6NI2rsvwPwqOw9E4au+93t1fP+104z5KHPQNNo7UtYuHtbKB6cBIGacWR+W/G9Vp+N9SuXSxjJNbHO+Gw+HZ272DcwXatf0i2IxLVbt4UCsbBmf27Ux7h3ZtpJLTNr5fbypccKzP8D8Re0/V7VtrFBy7oGC7tl8Em+ukql183pUNTAeGgvRoG9dn+F+xkLeXcW5UKTi+4vi08/pXO3sqtmv7RbCZJnXt4m5WNhzvMB0Yyjvr9mSv3lR6T5VOw/9ELguONzeqcR8lNpq0a/tFsHEjde3iVzupmA4MjenQNq7T8D9nT9XmRlWbguOBabZ2agfWXr2xqnn9jBsEG69S1S6eK9rPU3Q3ARd7ql69rqndNq7R8D/V91Rp2q7tF8FmXqlrFwdwoX3SuZiNo2rbuE7D/0TsguPNO1VZW63EfRTfNG/X9otg41fq2sUBvEP1tnHdhv+lteCYdu3AEGyClKp2cQDv0GNPlT7D/0TSsaeKdu3AEWzCkKp2cQDv0aFtXKfhf07BcZL2VNGuHRqCTZhS1y4O4B3OnirV28Z1Gv4XZ8Ex7dqRINhEIXXt4gDeo8OeKp2G/zl7qqIoOKZdO1IEm6ilql0cwHv0aBvXa/hfsZCXe3fvyHp1NdCnqs5Zd293/7BC/UykCDZxoV0cSD9nT5XKbeM6Df8TCabgmHbtWBFs4ka7OKCGnd267NWbyhYc6zb8r1jIy+3qquuCY6ddu1ZvLlM/EyuCTZLQLg6knw5t47oN/3P2VF1XcDwwzdb2m9oNnpsSg2CTRLSLA2qwb3Aayu6p0m34n1NwfOf2TVlYyO683TvYpF07cQg2SUa7OKAGp218Z7eudMGxTsP/iqW85HILcR8D73vJfyoJNhgMpH54uE67OJBuuYWs3L97R+7fvaNs23gmk5EbN7IiN7IXw/96XUsyGUvJ4X8q/XtRDcEmBSzLktbx8Wrr+Jh2cSDlKuWS/PZ3f11+6zt227iKe6qcAX/jw//6/YHyw/+QDASblDk5PS2enJ4WaRcH0i03GvO/uVFVtm08k8lI7kZWcjcuh/+d90zpn5tKD/9DvAg2KXXe70v98HCddnEg/YqFvHz3O/fku9+5p+yeqmzWkGxWZDg0Lob/DfqDRA3/y2QyMhxSdpp2BJuUGwwG0my1lputFu3igALWq6uyXl1Vtm08k8nIQs4OM87wv/OeKZmMGdvwPyfQEGrUQLBRiPNMRbs4kH7FQl4+/uhD+fijD6XRbMtOra5c23g2m5FsNiu5G9mL4X/ds0Fkw/8INGoi2Cio2+tJbX//Lu3igBrWViuytlqR3/rOfSX3VGUyIgs5+7bGGf7X75tyfm6GOvyPQKMmgo3CaBcH1DJecKxq27hhZORGPivDYfZi+N+gO/A9/M8wMkPLGlKprAEG9GmGdnFAPU4tjmpt4w4/w//CKgguLRZk4cp6BSQCA/p0Q7s4oJ6rbeP79aZyBcdeh/9lMvbKB56b9MONjeZoFwfUpGrbuGN8+N9wOJSFnCH5/EJkQYYbm8TixkZ3tIsDahpvG9+rN2X7dU25Wxxn+J9lDmUo3M7ARrDBBdrFAfUUC/mLPVVO27gqBcdO/YwRQscU0otgg/fQLg6o6bJt3Ext2/h4MTA3NLgOwQYT0S4OqOlq27jdVZXsPVVOuzZhBrMQbDAT28UBdVXKJamM9lQlsW3cMAyxLEuYQQO3CDbwhHZxQF3jbeNx76lynpwsy4rl5yO9CDaYC9vFAXWN76mKsm3cnkUzZP4MfCHYwBfaxQG1OW3j/YEpO7v1UNrGs4YxNC2L+hkEgmCDwNAuDqgrt5C9aBsPak9VNmuIaVpiWhb1MwgMwQaBo10cUFulXJLf/u6vz9U2bhiZ4XAomeFwKKZJ/QyCR7BBaGgXB9Q23jbu7Kma1DZuGMZwOBxm6G5C2Ag2CB3t4oD6ioW8fHesbXyv3pT9g6Zks9mhaZoZi+cmRIRgg0jRLg6or1QqvM4Xcnfz+Zz0en0CDSJFsEEsaBcH1DIcDs/2D49O3+zWb/XOz2kcQGwINogV7eJAug1Ms7X9pnbjsNkuDkyTvzlB7Ag2SAzaxYH06Jx19371dn+9cdTmb0SQKAQbJA7t4kByNY7ae9++rq33zs9n1sfZk4SBaBFskFi0iwPJYJpms1ZvGDu1g+WBabou+DeyRpjHAq5FsEHi0S4OxKN33j94s7u/uHfQXI37LIBbBBukCu3iQPiOTzuvf7Wzd7d1fHor7rMAXhFskEq0iwPBol0bqiDYINVoFwf8GZhma6d2YO3VG6u0a0MFBBsog3ZxwL0o2rXpikIcCDZQDu3iwGSNo/be69399dNON/T6tCxdUYgBwQbKol0csA2Hw7O3ewfnXtu1gTQi2EB5tItDV2Pt2kUR4dYSWiDYQCu0i0MHtGtDZwQbaIl2caiGdm3ARrCB1q62iy9XKqcL2Sx/l4vUSHq7tmFkxLKGcR8DGiHYACO0iyNN0rJdO2MYIpYZ9zGgEYINcMV4u/jy0tLBYqm0yDMVkiLKdm0gjQg2wASDwUAOm81bzVaLdnHEinZtwD2CDTDDeLt4qViUlUplj3ZxRGFgmq3tN7UbtGsD7hFsAA86Z2fSOTtbp10cYRpr1+aGEPCIYAPMwWkXNwxDlpeWaBeHb8Ph8KzZOm5/+7q2rlK7tmFkhNJhRIlgA/hgWRbt4vAl6e3afhkswkTECDZAQGgXhxeds+7e7v5hZe+gyXMTECCCDRAw2sUxDe3aQLgINkBIaBeHw2nXrtWby73zcwINECKCDRAy2sX1Rbs2ED2CDRAh2sX1QLv2pWw2KyL9uI8BjRBsgBjQLq4eVdu1faMpChEj2AAxol08/VRv1wbShmADJATt4ulCuzaQTAQbIGFoF0+2Zuv49du9g7ut41Pqo4AEItgACUW7eHJcadfmJg1IMIINkHC0i8fHadc+bLaL1M/MJ5s14j4CNEOwAVKEdvFodM66e9++3l2nXdu/DLuiEDGCDZBCtIsH70q7NoERSCmCDZBitIv7Z5pms1ZvGDu1g2Wem4D0I9gAiqBd3Juxdu3VuM8CIDgEG0AxtItPR7s2oDaCDaAo2sUv0a4dr+xCVsyBGfcxoAmCDaA4ndvFadcG9EOwATSiS7s47dqAvgg2gIZUbBenXRt+5G4sSLGYl8HoycwyLRkOh2INh2JZQ5HhUEzTivmUcINgA2hMhXZx2rXhlxNqREQWFrL2P+n832sMBiYTlROMYANARNLXLt477x+82d1fpF0bfoyHGrcWpoQexI9gA+AdSW8XH2vXTtXNks4WskYiu6LmCTVIPoINgGslqV18OBye7R8enb7Zrd+iXRtBINSoi2ADYKo428Vp10YYsllDCoUbcR8DISHYAHAtqnbxzll371dv99cbR23atRGobNaQ0mKBreMKI9gA8CysdvHGUXuPdm2EhVCjB4INgLkF0S5+pV2bQKOgJAQJQo0+CDYAAuG1XZx2bX0YMc98MYwMoUYj2gYb07Lkm1/uSSGfk7XVsiyVC3EfCVDCrHZx2rURpUwmI8USoUYn2gabRvNELMuSzllPOmc9yeWyslwpydpqWbIGEyUBv662i/f6lrzZra/Sro2oZDL2TQ1TgvWiZbAxLUsazdN3/rl+35SDw2M5ODyW5UpJViolKZWYcQD45bSL7+wdxX0UaIRQoy8tg41zWzNJq92RVrsjuVxWqjcrUi4XuMUBgJQg1OhNu//Ur7utmaTfN+VtrSmN5knIpwIAdUVd31Is5Qk1GtPuxmbWbc11er1+SKcBAPVls4ZkxxZHhrk3qljMs6RSc1oFGy+3Ne/8OXMYwmkAQB+Li8F0npqmJcPh9Z/JmUyGmxroFWz29lueb2u8MC1LLHMouRx/twAA0X8sowAAG45JREFUYSC4YBZtgk2/b0qr3Znrz3bOeq6+rtfty/abA1kqF2RtpUxXFQAAEdMm2NQP25H9rOOTrhyfdCWXy8raSlmWl0t0VQEAEAEtgo2f2xqHaVmew0m/b8pevSX1w2P7Fme1LIV8ztc5AADAZFoEmyBua3rd/txPS5ZlXczGKeRz8uEHN6nDAQAgBMq/jwRxWxOkbq8v/f4g7mMAAKAk5YNNULU1pkXLNwAASad0sAnytqbbOw/k+wAAgPAoHWz26u6W7lHvAgCAGpQNNp1OT45Puq6+tnqzIqXi9MLgfj+8EeDTHJ90pdXuiBniYEEAAFShbFdU/fDY1dflcllZrpTkqDX9ycpNsAljIN/BYVu6vb4YhiFL5YJUb1a4YQIAYAIlg02n03M9Lbh6sxLyaebX7fWlO1rAOd4yXirmZWW5JMuVUswnBAAgWZQMNl5va5z/X84mf203wA3fuZy7v+yN5sm1/3znzA5utf2WrK0uykplkVscAABEwRqbeW9rZgWDIJdnugkhpmXNrBGyLEsODo/lm29riZrVAwBAXJQLNvPc1iTRyUnXU5g67bgLcwAAqEypYOOntsbNHqggn6NmmfQMNUlcXVsAACSJUsHG7W2NYRjv3da4WU5pmdG0XI8XDQMAAPeUCTZebmvWVhdDPo0/Xm9rAACATZlg83av6errDMOQtdXyXD/j1GVw8sNN0bBf3V5f3rw9DP3nAAAQNSXavVvtjusak7XVxWvrafKF2U9RUfBaNDyPVrsjxyddOT7pXhRR0zIOAFCBEsHG7Qbvabc1boqHrQg2fEfxDDU+ZbnfN+Xg8FgODo9HAacUygRlAACikPpgE8RtjVvdbrgFvVEUDR9PuRFyJhvnclmp3qxIuVzw9dcLAICopf63ltvbGpHZtzJGBL/Ep/2MKG5rjk+mjFce6fdNeVtrym7NXd0SAABJkepg4+W2RkRkr96Sv/lmV/bqrWv/3KyW7yBqXyb9jCiKhr3+jOVKsrvHAAC4KtVPUV5uaxyWZUmjeSKN5okslQuytlJ2XVMS5jNRFEXDXn5GLpeVpXIh1PMAABC01AYbr7c11xnvDKrerIQeLKZJyjOUI8nrJgAAmCS1wWae25pJnJoSt187rS06l8t6DlxRFA17fYbyMutn+/WB5HJZOqoAALFLZbCpH7Zj243U7w+mB5uFBc9ni+K2ptVyv/17uVJy3Q11MfH5zL5FK+RzsrZapqMKABCL1AUb07Kk0TyN+xiBcXuTMs9N0LhW232wWfHwDHV1P1e315e3taYYhiFL5YJUb1YY/AcAiEzq/pa60TyJtRYm6CcjNwW9dkgozv0z+n3T9bkL+Zzr56Rp+7ksy5JWuyPffFuT7dcHnoIVAADzSlWw8Xpbs1wpBT6bxgw4VLl5hloqF8QwMnP/jKO2+79mXmpr3G5T75z15G2tKd98W2NrOQAgVKl6ivJyW7NcKckHd1bFtCw5OenGWpczidui4bXVsqeOpqvc3pYYhiFlly3erXbH9TZ1R79vSqfTmzkvCACAeaUm2Hi9ranerIiIPW14uVKS5UpJOp2eNI5OfA3C63TORW7O/cclm728eXFzW1PI56SQz80dbLq9vutAt7Lsvmh43q60oG+8AAAYl5pg42W43HKldG3BaqmUl1IpL/2+KY2jEzlqdSKv18mPbivcFg17eRq6jpfalrUVdz/LzwyhKBaJAgD0lZpgs1wpSamYl/phe+oiR5HL25pJcrmsrFeX5dbNpdieqdwWDfsdlHfkss27VMy77l7yM0Mo7EWiAAC9pSbYiNiBxKmbabU60jg6eS+QTLqtuc48z1Re60omcfMMtbLsL9TMCoDj3N4MBTHxGQCAsKSqK8qRNQxZWy3Lxx/dkQ8/uCml4mV78qzbmklKpbx8+IGP4hkPXBcNjz0NFfI3PP8ct3U5bvdCmZYltf2W53OM6w8Gvv48AADTpOrG5jpL5YIslQt2x81Zz/cwuFIxP/NWxrQsX1N13dzWXH0aynps9/ayQsFtbU0QM4SCuO1xCpCZbAwAuEqZ3wy5XDayxY09H3UiljV0FTj8PkN5KrZ28bOSNPG50zmXv/1mV97WmtLpBPM0CABQQ+pvbNLm+OQskqJht89QbvdCBTnxudPp+VqW2e2di4hd79Nqdy62s7OfCgBAsLkil8uKzMgE/cH8zylunmL83tb0+6b7ZygXRcNJuq0REeldqU9ytrOznwoAQLC5ws0vxPN+uAWwbmteJnF7W+MM/5tlb7/l+rbGMIyZX2v6nGUzKRw6+6la7Y6Uinn54M4qAQcANMO9fcIslQu+fxm7Hcrn5ram3zc9rWRwc9vkPCXNy01HWeesx5RjANAQwWYO056TSiXvbdnjliuLvv68203ebut4vAzjWyoXQt8D5aVYmJ1UAKAfgs0Vi8XZRa1hDahzO09mmsbR7FZyEXd1PF5ua0TsGUK5hdm3TVdrZLxwW99EqAEAPRFsriiV7NqMkouAE7Qg2tXd1te4qePxclvjZeKzac5fY+PmNkrEXa0UAEA9FA9fw1mz0O31pdE8ee/Wwu0vV69WfD5Dud3k7aaOp9Ppeb6tERExsuFmZbe7pvLc2ACAlgg2UxTyOfngzqqs316+CDj9vhnKRvAgiobdTDQWcVfHUz88dv1zx29r3DwB+dm35TZUunlSBACoh2DjQtYwpHqzItWbFWm1O643Znvht8VbRFzNrnFTx9Pp9DyFj3n3c3llWpbrUJnL8V9tANARn/4eOc9UQcrlsr4m8Yq4vwVxV1sz322Nw80sm37f9HxD5XaVhWEY1NgAgKYoHk6AIG5r3Jq1FyqI2xo3z1H9OYYcnro8Fx1RAKAvgk3AViqLnm903CyhDIKbvVBv95qevl+UNyNu2+wLBYINAOiKYBOwXC4rH9xZld/4eENu3Vya+Yvf7RLKIMyaNOwUR7vlp7Zmns4yt/Nv3MzSAQCoiWATEqfg+OOP7kydi7MScL3OJKVifuYTTVBza9xMX55n3YHbMMRTFADoi+LhCEyaixNE0bBbsyYNR3lbIyJieVyE6eWGJ6q/ptMcn3Qla2QScRYA0AnBJkJX5+LciKgl2c1eqLCmDE/idtCew23oSkI3VL9vypu3hyJin6d6syLlciGyJ0cA0BnBJgbOM1VU1lanD+SrH7Y93dbkclkxLWviL+pC3t8i0Ou43QiehGeo8ZDY75vyttYUwzBkqVyQtdVyIs4IAKoi2Ghg2qoG07Kk0Tz19P0ODo+l0TyVleWSrK2U37slyRqZmd+jP/DW7t3puAs2ca9SmLQ41LIsabU70mp3pFTMy8py8POQAAAEG+XNWtXQaJ7MtSLCsixpNE+k0TyRpXJBliuLnjaTe92Q7jYIhXFb5IWbJ73OmT0rqLbfkrXVRVmpLCbiCQ0AVECwUdy04X/z3NZc5/ikK8cnXcnlsrK2UpalctH39xxnWlYqamy8Lg61LEsODo+l0zmXe3dvhXgyANAHwSYl5tmaPavrat7bmkn6fVP26i3XKxk6nZ6rriG3qxRE4q2x8bKKYlwYS1UBQFe0aaREIZ9zPfTPMe22pt83A7mtuU7Qv6jdtnpPmhUUBa+rKMbNM6wQAHA9bmxS5Lot45N+mRqGMXVVQ/2wHftNgelylo3bX/xxPkPNe1sDAAgWwSalJg39cyxNmZsyqXMnat3euauCY9c7omJ6hmq1JwdMt7q9Pm3gABAAnqJSzhn6d/WZatpeKC/D+JyfESe3oSGuc3r963kdy6TOBgCCwI2NIsafqTqd3sRf8l5va5YrJfngzqp0Oj05Gs1hCYqbpZZe2sLzMWz19rqKYhK3z3IAgOkINgqa1mn0ttb09L2cCcmlUl5KpbxUb1bkqH0qjeap7xod05z9y9xtfY1hGJGvLDAtK5DbGhH3z3IAgOkINhrp9vqeakGu2wnl7D5yCpgbzZNQu3qSvEqh0TwJ5LYGABAcgo1GCvmc3PvwlusnpVn7rJwC5nmfqdyELDfPVSIipVK0E4eDGm7ocPvvEwAwHcFGM26flLxs8A7jmcrh9jYoqk3pjqCHG7p5lgMAzEZXlKacJ6Xf/HhDPriz+t5Tzjzbx8e/562bS67+zKynHLdPPVEuv/Q63NDNM1ncM4UAQBXc2OC9JyUR/8PuFot5OZDZQ+v6/cHEn9XpuK8HirLGxstwQ8Mw5NbNirx5ezj165g+DADBINjggvOkFIRcAE9D/UHyBvN5bZdfW12UrJEJ8UQAgHE8RSEUbm98pt1UuL3FiPIZykt7t2EYsrZadh3yuLUBAP+4sUGszClPOl2XW72j2hHV6fTmuK0xxO1idqYPA4B/3NggNIaLgXnWlIm7bm8wFiPa6u1l0aVzW+MF04cBwD+CDULjpvZl0q1Mv2+6LtANop5nlk6n52m4oXNb43Bzq+R2GCEAYDKCDRKp3x+4+jrDMCJ5ivJ7W5Nb4NUXAKJAsEFostnZ3UD9wfUB5jRBG71b7Y6v2xq3mD4MAP4RbBAaN91KkwbwuR3MV4hgo/c8nVBXublVYvowAPhHsEFoqjcrcu/DW3NtrXZ7e9HvD6Z2VvnVanc8LbqcdFvjJtgwfRgA/OPhH6Fyhv71+6Y0jk7kqNV57xd4p9N7bzCg246o45OuHH+zK8uVkqytlgN9mjItK5DbGreYYwMA/hFsEIlcLivr1WW5dXNJTk66Uj9sT7wJmecXfGu0XbyQz8naalmWKyW/R5ZG8ySQ2xqR6Jd0AoCu+LRFpLKG8c5uqsbRyXvzW/wU0XZ7fXlba0ptvyVrq4uyUlmcq2vKtCxPiy5n3dbkFtxPYo5yRQQAqIZgg9hM2k117rLVexrLsuTg8FgODo9luVKSlUrJ0x6sRvPEU83LvJ1QVzF9GAD8IdggcYJuex5/plqvLs8MOF5va0RkZqhxO0SQ6cMA4A9dUUicDz+4OXc31TTdXt9V/c7efstzh9JevSV/883uxNoh90tBmT4MAH5wY4NEctNNNY9Z9Sv9vulp0eU4v89fAAD/CDZINC/dVG7MChpe2runcZ6/crmsVG9WpFwuSC6XnXl2pg8DgD8EG6TCdd1UxyddT99j1nNQt9ef+7Zmkn7flLe1pqtN5yJMHwYAvwwReRb3IQAvSqW8fPjBTfn4ozuytlp2HRpmLaLc228FcbxrWZbl6imN6cMA4MuXxt/90X/eEpGPROQ/iUh4n+xAwJxnqo9/bV0+uLM680amVLox8V/rdHqeFl2GhenDAODZtoj8mYis/sFPf/bZO+uXv3rycEVEHojIZyJyL/qzAf5Me6b68IObEzuttl8fJCLYiIh89zc24z5CKHb2juI+AgC1vBSRp3/w0589Hf8nM9d+qYh89eTh98UOON8L8VBAKK7rpvro3u1ru6KOT7ry5u2h6+9tGEaoT0aTzpl2BBsAAXkmdqD58rp/cWKwcXz15OF9sQPOAxFZDvBgQOhMy7ropvr4ozvXfs0339Y8dVp9cGdVyuWCNJonnrd/u3Hvw1tKtokTbAD40BKRz8UONK+mfeHMYOMYPVM9EpEt4ZkKimi1O/K21nT99blc9r2A1Gp35KjVCewpa9qTWZoRbADMYVvsy5Xnf/DTn7n6EHEdbMZ99eThltgBh2cqpNo8tzWTNod3e/2LWxw/bt1ckurNiq/vkUQEGwAevBSRzyY9N00zV7BxfPXk4adi3+L80M/3AeLS6fTkaDRMb5brbmuuY1qWtFodaRydzPVMRbABoKmWiDwXO9C8mveb+Ao2jlEdzpbYIYc6HKROv2/KUftUGs3TiYXB025rJjk+6UqjeeLpmWqpXJAPP7jp6eekAcEGwATbIvJURD53+9w0TSDBZtzomeozoQ4HKdVqd6TRPHlnpozb25pJ+n1T6odtVzdDpWJe7t29NffPSiqCDYArrm3X9ivwYOMYtYs/EpEfhPUzgDCNP1PNc1tznf/3tzszv6aQz8lH9277/llJQ7ABMPJM7NuZn4fxzUMLNo7RM5XTTcUzFVKn3zdnTjV2y+0gQBWH9BFsAK25btf2K/Rg4xi1i2+JHXJ4poKWCDYANLMtdjHw06h+YGTBZtxXTx4+EDvg0C4OrbgNNipOHybYAFr5Quznpi+j/sGxBBsH7eLQTf2wLQeHxzO/TsXpwwQbQHmBtGv7FWuwcTDVGLpwG2xUnD5MsAGUtS2X9TOx/w89EcFm3Khd/JGIfBLzUYDAuQ02Kg7pI9gAygmlXduvxAUbx6hdfEt4poJCOp2ebL85mPl1BBsACRZqu7ZfiQ02DtrFoRK3wUbF6cMEGyDVnHbtQKYDhynxwcYxqsN5IEw1Roq5nUCs4vRhgg2QSl+LHWaexnwO11ITbMaNnqk+E9rFkVKzdlOpOH2YYAOkSmzt2n6lMtg4Rs9Un4l9k8MzFVLput1UIuoN6SPYAInXkstllK/iPcr8Uh1sHLSLQwXju6lECDYAIpOodm2/lAg240bt4lvCMxVSynmmWqksBrajKgkINkDivBT7duZ53AcJknLBxsFUYyBZCDZAYjyTmKcDh0nZYOMY1eFsiR1yqMMBYkKwAWK1LZf1M0r/j1H5YDNu9Ez1mVCHA0SOYAPEInXt2n5pFWwco3bxRyLyg5iPAmiDYANE6pnYxcBfxn2QqGkZbBy0iwPRIdgAoVOiXdsvrYONY9QuviX2LQ7PVEAICDZAaLbF/pv056rXz7hBsLniqycPH4gdcGgXBwJEsAECp2S7tl8EmwloFweCRbABAtESkeeicLu2XwSbGcamGtMuDvhAsAF80aZd2y+CjQejdvFHIvJJzEcBUodgA8zlpdjdTU9jPkdqEGzmMGoX3xKeqQDXCDaAJ9q2a/tFsPFh1C7uLN/kmQqYgmADzNSSy2WUr2I+S2oRbAIwqsN5IEw1BiYi2AAT0a4dIIJNwGgXB65HsAHe81Ls7qYv4z6ISgg2IWGqMfAugg0gIrRrh45gE7KxdvEt4ZkKGiPYQHPbclk/w/8YQkSwidCoXXxLeKaChgg20BTt2hEj2MSAdnHoiGADzTwTe5jez+M+iG4INjEa1eFsCVONoQGCDTRAu3YCEGwSYvRM9ZlQhwNFEWygsG2xi4GfxnwOCMEmcUbPVI9E5AcxHwUIFMEGCvpC7OemL+M+CC4RbBKKdnGohmADRdCunXAEm4QbtYtviX2LwzMVUotgg5SjXTslCDYpwlRjpBnBBin1UuznpudxHwTuEGxS6KsnDz8VO+DQLo7UINggZWjXTimCTYqNTTWmXRyJR7BBCjjt2p/z3JReBBtFjNrFH4nIJzEfBbgWwQYJ9rXYYeZpzOdAAAg2imGqMZKKYIMEol1bQQQbRY3axZ3lmzxTIXYEGyRES0Seih1oXsV7FISBYKO4UR3OA2GqMWJGsEHMaNfWBMFGI7SLI04EG8SEdm3NEGw0xFRjxIFgg4g9E6YDa4lgo7GxdvEt4ZkKISPYIALbclk/w3/hNEWwgYhctItvCc9UCAnBBiGiXRsXCDZ4B+3iCAvBBiF4JnYx8JdxHwTJQbDBtUZ1OFvCVGMEhGCDgNCujakINphp9Ez1mVCHAx8INvBpW+zPoefUz2Aagg1cGz1TPRKRH8R8FKQQwQZzol0bnhBs4Bnt4pgHwQYetETkudCujTkQbDC3Ubv4lti3ODxTYSqCDVygXRu+EWwQCKYaYxaCDaZ4KXZ309OYzwEFEGwQqK+ePPxU7IBDuzjeQbDBNWjXRuAINgjF2FRj2sUhIgQbXGjJ5TLKVzGfBQoi2CB0o3bxRyLyScxHQYwINtqjXRuRINggMkw11hvBRltfiF0M/GXcB4EeCDaI3Khd3Fm+yTOVJgg2WqFdG7Eh2CA2ozqcB8JUYy0QbLSwLZf1M/wHjlgQbJAItIurj2CjNNq1kRgEGyQKU43VRbBR0jOx62d+HvdBAAfBBok01i6+JTxTKYFgowzatZFoBBsk3qhdfEt4pko1gk3qbYtdDPw05nMAUxFskBq0i6cbwSa1aNdGqhBskDqjOpwtYapxqhBsUqUll8soX8V7FMAbgg1SbfRM9ZlQh5N4BJtUoF0bqUewgRJGz1SPROQHMR8FExBsEu2l2Lczz+M+COAXwQZKoV08uQg2iUS7NpRDsIGSRu3iW2Lf4vBMlQAEm8Rw2rU/57kJKiLYQHlMNU4Ggk3svhY7zDyN+RxAqAg20MZXTx5+KnbAoV08BgSb2NCuDa0QbKCdsanGtItHiGATKdq1oS2CDbQ2ahd/JCKfxHwU5RFsIrEtdvH8c+pnoCuCDSBMNY4CwSZUtGsDIwQbYMyoXdxZvskzVYAINqF4Jvb+pldxHwRICoINcI1RHc4DYapxYAg2gdmWy/oZ/qICVxBsgBloFw8GwcY32rUBFwg2gEtjU42pw5kDwWZuz8Te3fRl3AcB0oBgA3g01i6+JTxTuUaw8YR2bWBOBBvAh1G7+JbwTDUTwcYV2rUBnwg2QABoF5+NYDPVS7G7m76M+yBA2hFsgACN6nC2hKnG7yHYvKclIs+Fdm0gUAQbIAS0i7+PYHOBdm0gRAQbIGSjZ6pHIvKDmI8SK4KNvBS7u+lpzOcAlEawASIy1i7+QDR8ptI42NCuDUSIYANEbPRMtSX2LY42z1SaBZuWiHwudqB5FfNZAK0QbIAY6dQurkmwoV0biBnBBkiAr548/FTsGxxl28UVDzZfiF0M/GXcBwF0R7ABEmRsqrFy7eIKBhvatYEEItgACTV6pnokIp/EfJRAKBRstuWyfkaZf1OAKgg2QMKp0i6uQLChXRtIAYINkBKjdnFn+WbqnqlSHGyeiV0/8/O4DwJgNoINkDJpnWqcsmBDuzaQUgQbIMW+evLwgdi3OIlvF09JsNkWuxj4acznADAngg2ggLGpxoltF094sKFdG1AEwQZQyFi7+JYk7JkqgcGmJZfLKF/FexQAQSHYAIpK2lTjBAUb2rUBhRFsAMWN2sW3JOZnqgQEm5di3848j/sgAMJDsAE0MarD2ZKYphrHGGxo1wY0QrABNBNXu3jEwcZp1/6c5yZALwQbQGNRTjWOKNh8LXaYeRrFDwOQPAQbAOPt4g8kpGeqkIMN7doARIRgA2DM6JlqS+xbnECfqUIINrRrA3gPwQbAtYJuFw8w2GyLfbv0nPoZAFcRbABM9dWTh5+KfYPjq108gGBDuzaAmQg2AFwZm2o8V7u4j2DzTOz9Ta/m/QYA9EGwAeDZ6JnqkYh84vbPeAw223JZP8NzEwDXCDYA5ualXdxlsKFdG4AvBBsAvo3axZ3lm9c+U80INs/E3t30ZcBHA6AZgg2AwEybanxNsHGmAz+lfgZAUAg2AELx1ZOHD8S+xfmeyDvBhnZtAKEh2AAIlTPVeLfeumdZwz/juQlAmP4/LdaZBbyKT80AAAAASUVORK5CYII=;labelPosition=center;align=center;" vertex="1" parent="1">
          <mxGeometry x="423" y="370" width="99.95" height="80" as="geometry" />
        </mxCell>
        <mxCell id="9fN0THQdX7Je8e2T6aCW-11" value="Your server-side&#xa;Awala Ping app" style="shape=image;verticalLabelPosition=top;labelBackgroundColor=none;verticalAlign=bottom;aspect=fixed;imageAspect=0;image=data:image/svg+xml,PHN2ZyB4bWw6c3BhY2U9InByZXNlcnZlIiBzdHlsZT0iZW5hYmxlLWJhY2tncm91bmQ6bmV3IDAgMCAxNzUgMTc1OyIgdmlld0JveD0iMCAwIDE3NSAxNzUiIHk9IjBweCIgeD0iMHB4IiB4bWxuczp4bGluaz0iaHR0cDovL3d3dy53My5vcmcvMTk5OS94bGluayIgeG1sbnM9Imh0dHA6Ly93d3cudzMub3JnLzIwMDAvc3ZnIiB2ZXJzaW9uPSIxLjEiPiYjeGE7PHN0eWxlIHR5cGU9InRleHQvY3NzIj4mI3hhOwkuc3Qwe2ZpbGw6I0UwRTBFMDt9JiN4YTsJLnN0MXtmaWxsOiNGRkZGRkY7ZmlsbC1vcGFjaXR5OjAuMjt9JiN4YTsJLnN0MntmaWxsOiMyMTIxMjE7ZmlsbC1vcGFjaXR5OjAuMTt9JiN4YTsJLnN0M3tmaWxsOiM2MTYxNjE7fSYjeGE7CS5zdDR7ZmlsbDojRkZGRkZGO2ZpbGwtb3BhY2l0eTowLjE7fSYjeGE7CS5zdDV7ZmlsbDojMjEyMTIxO2ZpbGwtb3BhY2l0eTowLjI7fSYjeGE7CS5zdDZ7ZmlsbDp1cmwoI1NWR0lEXzJfKTt9JiN4YTsJLnN0N3tmaWxsOm5vbmU7fSYjeGE7CS5zdDh7b3BhY2l0eTowLjE1O30mI3hhOwkuc3Q5e2NsaXAtcGF0aDp1cmwoI1NWR0lEXzNfKTt9JiN4YTsJLnN0MTB7ZmlsbDpub25lO3N0cm9rZTojMDAwMDAwO3N0cm9rZS13aWR0aDowLjI1O3N0cm9rZS1taXRlcmxpbWl0OjEwO30mI3hhOwkuc3QxMXtvcGFjaXR5OjAuNDt9JiN4YTsJLnN0MTJ7Y2xpcC1wYXRoOnVybCgjU1ZHSURfNV8pO30mI3hhOwkuc3QxM3tmaWxsOiMwMDc0RkY7fSYjeGE7CS5zdDE0e2ZpbGw6I0RCNDQzNztmaWxsLW9wYWNpdHk6MC40O30mI3hhOwkuc3QxNXtmaWxsOiNGRkZGRkY7fSYjeGE7CS5zdDE2e2ZpbGw6I0REQUU4MDt9JiN4YTsJLnN0MTd7ZmlsbDojQzY5Qjc3O30mI3hhOwkuc3QxOHtmaWxsOiNFOEI3OEI7fSYjeGE7CS5zdDE5e2ZpbGw6I0VERDdCRTt9JiN4YTsJLnN0MjB7ZmlsbDojRjRERUMzO30mI3hhOwkuc3QyMXtmaWxsOm5vbmU7c3Ryb2tlOiNGRkZGRkY7c3Ryb2tlLXdpZHRoOjIuMjtzdHJva2UtbGluZWNhcDpyb3VuZDtzdHJva2UtbGluZWpvaW46cm91bmQ7c3Ryb2tlLW1pdGVybGltaXQ6MTA7fSYjeGE7CS5zdDIye2ZpbGw6bm9uZTtzdHJva2U6I0ZGRkZGRjtzdHJva2Utd2lkdGg6MjtzdHJva2UtbWl0ZXJsaW1pdDoxMDt9JiN4YTsJLnN0MjN7ZmlsbDpub25lO3N0cm9rZTojRkZGRkZGO3N0cm9rZS13aWR0aDoyLjI7c3Ryb2tlLW1pdGVybGltaXQ6MTA7fSYjeGE7CS5zdDI0e2ZpbGw6IzI3MjY0RDtzdHJva2U6I0ZGRkZGRjtzdHJva2Utd2lkdGg6Mi4yO3N0cm9rZS1taXRlcmxpbWl0OjEwO30mI3hhOwkuc3QyNXtmaWxsOiMyRUExRkY7fSYjeGE7CS5zdDI2e2ZpbGw6IzU1QkFGRjt9JiN4YTsJLnN0Mjd7ZmlsbDojRkFGQUZDO30mI3hhOwkuc3QyOHtvcGFjaXR5OjAuOTI7ZmlsbDojRjJGMkYyO30mI3hhOwkuc3QyOXtmaWxsOiNGM0ZBRkY7fSYjeGE7CS5zdDMwe2ZpbGw6Izk3RDBGRjt9JiN4YTsJLnN0MzF7b3BhY2l0eTowLjY7ZmlsbDojQ0NFREZGO30mI3hhOwkuc3QzMntvcGFjaXR5OjAuODtmaWxsOiNDQ0VERkY7fSYjeGE7CS5zdDMze2ZpbGw6I0NDRURGRjt9JiN4YTsJLnN0MzR7ZmlsbDojNjE0NTgwO30mI3hhOwkuc3QzNXtmaWxsOiM1RTQyN0M7fSYjeGE7CS5zdDM2e2ZpbGw6IzYwNDQ3Rjt9JiN4YTsJLnN0Mzd7ZGlzcGxheTpub25lO2ZpbGw6IzdDNTYzNzt9JiN4YTsJLnN0Mzh7ZmlsbDojRkZGRkZGO3N0cm9rZTojMjcyNTRFO3N0cm9rZS13aWR0aDoyLjU7c3Ryb2tlLWxpbmVjYXA6cm91bmQ7c3Ryb2tlLWxpbmVqb2luOnJvdW5kO3N0cm9rZS1taXRlcmxpbWl0OjEwO30mI3hhOwkmI3hhOwkJLnN0Mzl7b3BhY2l0eTowLjk0O2ZpbGw6I0ZGRkZGRjtzdHJva2U6IzI3MjU0RTtzdHJva2Utd2lkdGg6Mi41O3N0cm9rZS1saW5lY2FwOnJvdW5kO3N0cm9rZS1saW5lam9pbjpyb3VuZDtzdHJva2UtbWl0ZXJsaW1pdDoxMDt9JiN4YTsJLnN0NDB7ZmlsbDojMjcyNTRFO30mI3hhOwkuc3Q0MXtmaWxsOiNGRkZGRkY7c3Ryb2tlOiMyQjI2NTg7c3Ryb2tlLW1pdGVybGltaXQ6MTA7fSYjeGE7CS5zdDQye2ZpbGw6bm9uZTtzdHJva2U6I0ZGRkZGRjtzdHJva2Utd2lkdGg6MjtzdHJva2UtbGluZWNhcDpyb3VuZDtzdHJva2UtbGluZWpvaW46cm91bmQ7c3Ryb2tlLW1pdGVybGltaXQ6MTA7fSYjeGE7CS5zdDQze2ZpbGw6I0ZGRkZGRjtzdHJva2U6IzJEMjk1NztzdHJva2Utd2lkdGg6MS43O3N0cm9rZS1taXRlcmxpbWl0OjEwO30mI3hhOwkuc3Q0NHtmaWxsOiMyQTI4NTc7fSYjeGE7CS5zdDQ1e2ZpbGw6IzJEMjk1NztzdHJva2U6I0ZGRkZGRjtzdHJva2Utd2lkdGg6MS42O3N0cm9rZS1taXRlcmxpbWl0OjEwO30mI3hhOwkuc3Q0NntmaWxsOiM2NDY0NjQ7c3Ryb2tlOiNGOUY5RkE7c3Ryb2tlLXdpZHRoOjIuNTtzdHJva2UtbGluZWNhcDpyb3VuZDtzdHJva2UtbGluZWpvaW46cm91bmQ7c3Ryb2tlLW1pdGVybGltaXQ6MTA7fSYjeGE7CSYjeGE7CQkuc3Q0N3tvcGFjaXR5OjAuOTQ7ZmlsbDojNjQ2NDY0O3N0cm9rZTojRjlGOUZBO3N0cm9rZS13aWR0aDoyLjU7c3Ryb2tlLWxpbmVjYXA6cm91bmQ7c3Ryb2tlLWxpbmVqb2luOnJvdW5kO3N0cm9rZS1taXRlcmxpbWl0OjEwO30mI3hhOwkuc3Q0OHtmaWxsOiNGOUY5RkE7fSYjeGE7CS5zdDQ5e2ZpbGw6IzY0NjQ2NDt9JiN4YTsJLnN0NTB7ZmlsbDojNjQ2NDY0O3N0cm9rZTojRjlGOUZBO3N0cm9rZS1taXRlcmxpbWl0OjEwO30mI3hhOwkuc3Q1MXtmaWxsOm5vbmU7c3Ryb2tlOiM2NDY0NjQ7c3Ryb2tlLXdpZHRoOjI7c3Ryb2tlLWxpbmVjYXA6cm91bmQ7c3Ryb2tlLWxpbmVqb2luOnJvdW5kO3N0cm9rZS1taXRlcmxpbWl0OjEwO30mI3hhOwkuc3Q1MntmaWxsOiM2NDY0NjQ7c3Ryb2tlOiNGOUY5RkE7c3Ryb2tlLXdpZHRoOjEuNztzdHJva2UtbWl0ZXJsaW1pdDoxMDt9JiN4YTsJLnN0NTN7ZmlsbDojNjQ2NDY0O3N0cm9rZTojRjlGOUZBO3N0cm9rZS13aWR0aDoxLjY7c3Ryb2tlLW1pdGVybGltaXQ6MTA7fSYjeGE7CS5zdDU0e2ZpbGw6I0Y0RUZFOTt9JiN4YTsJLnN0NTV7ZmlsbDojRjEzNjRCO30mI3hhOwkuc3Q1NntmaWxsOiNFM0JDNzk7fSYjeGE7CS5zdDU3e2ZpbGw6I0QzMkY0Nzt9JiN4YTsJLnN0NTh7ZmlsbDojRjFDQTg5O30mI3hhOwkuc3Q1OXtmaWxsOiNFRUYwRUY7fSYjeGE7CS5zdDYwe2ZpbGw6I0ZGRkZGRjtzdHJva2U6IzJEMjk1NztzdHJva2Utd2lkdGg6MS42O3N0cm9rZS1taXRlcmxpbWl0OjEwO30mI3hhOwkuc3Q2MXtmaWxsOiNDOTlBNkI7fSYjeGE7CS5zdDYye2ZpbGw6I0FFODM1Qjt9JiN4YTsJLnN0NjN7ZmlsbDojRThCNjg3O30mI3hhOwkuc3Q2NHtmaWxsOiNBMDc0NTA7fSYjeGE7CS5zdDY1e29wYWNpdHk6MC44O2ZpbGw6I0U4RTNFMjt9JiN4YTsJLnN0NjZ7ZmlsbDpub25lO3N0cm9rZTojOTY2OTRCO3N0cm9rZS13aWR0aDowLjM7c3Ryb2tlLWxpbmVjYXA6cm91bmQ7c3Ryb2tlLWxpbmVqb2luOnJvdW5kO3N0cm9rZS1taXRlcmxpbWl0OjEwO30mI3hhOwkuc3Q2N3tmaWxsOiM1RTVFN0M7fSYjeGE7CS5zdDY4e2ZpbGw6I0Y3RjhGQTt9JiN4YTsJLnN0Njl7ZmlsbDojQTU3RTU4O30mI3hhOwkuc3Q3MHtmaWxsOiNCMjg5NjA7fSYjeGE7CS5zdDcxe29wYWNpdHk6MC45NDtmaWxsOiNCQzkzNkY7fSYjeGE7CS5zdDcye29wYWNpdHk6MC45O2ZpbGw6Izg0NjQ0RTt9JiN4YTsJLnN0NzN7b3BhY2l0eTowLjk0O2ZpbGw6I0U4RTNFMjt9JiN4YTsJLnN0NzR7ZmlsbDpub25lO3N0cm9rZTojODQ1QzQxO3N0cm9rZS13aWR0aDowLjE1O3N0cm9rZS1saW5lY2FwOnJvdW5kO3N0cm9rZS1saW5lam9pbjpyb3VuZDtzdHJva2UtbWl0ZXJsaW1pdDoxMDt9JiN4YTsJLnN0NzV7ZmlsbDpub25lO3N0cm9rZTojQUE5MzgzO3N0cm9rZS13aWR0aDowLjU7c3Ryb2tlLWxpbmVjYXA6cm91bmQ7c3Ryb2tlLWxpbmVqb2luOnJvdW5kO3N0cm9rZS1taXRlcmxpbWl0OjEwO30mI3hhOwkuc3Q3NntmaWxsOiMwMjY1QUY7fSYjeGE7CS5zdDc3e2ZpbGw6IzAwNEQ3Nzt9JiN4YTsJLnN0Nzh7ZmlsbDojNEQyMzkzO30mI3hhOwkuc3Q3OXtmaWxsOiM1RjQyN0M7fSYjeGE7CS5zdDgwe2ZpbGw6IzYyNDQ4MDt9JiN4YTsJLnN0ODF7ZmlsbDojRTFCNzg1O30mI3hhOwkuc3Q4MntvcGFjaXR5OjAuOTtmaWxsOiM4NDYyNDk7fSYjeGE7CS5zdDgze29wYWNpdHk6MC45NjtmaWxsOiNGN0Y4RkE7fSYjeGE7CS5zdDg0e2ZpbGw6I0Q4QUU3Qzt9JiN4YTsJLnN0ODV7ZmlsbDojRjJERUQxO30mI3hhOwkuc3Q4NntmaWxsOm5vbmU7c3Ryb2tlOiM4OTY1NEQ7c3Ryb2tlLXdpZHRoOjEuMjtzdHJva2UtbWl0ZXJsaW1pdDoxMDt9JiN4YTsJLnN0ODd7ZmlsbDpub25lO3N0cm9rZTojNUU1RTdDO3N0cm9rZS13aWR0aDo1LjU7c3Ryb2tlLWxpbmVjYXA6cm91bmQ7c3Ryb2tlLWxpbmVqb2luOnJvdW5kO3N0cm9rZS1taXRlcmxpbWl0OjEwO30mI3hhOwkuc3Q4OHtmaWxsOiNBM0EzQjI7fSYjeGE7CS5zdDg5e2ZpbGw6bm9uZTtzdHJva2U6IzFBNzNFODtzdHJva2UtbWl0ZXJsaW1pdDoxMDt9JiN4YTsJLnN0OTB7ZmlsbDojRDdBNTY4O30mI3hhOwkuc3Q5MXtmaWxsOm5vbmU7c3Ryb2tlOiM5MzlDQTM7c3Ryb2tlLXdpZHRoOjUuNTtzdHJva2UtbGluZWNhcDpyb3VuZDtzdHJva2UtbGluZWpvaW46cm91bmQ7c3Ryb2tlLW1pdGVybGltaXQ6MTA7fSYjeGE7CS5zdDkye2ZpbGw6IzFBNzNFODt9JiN4YTsJLnN0OTN7ZmlsbDpub25lO3N0cm9rZTojNDI4NUY0O3N0cm9rZS13aWR0aDoxLjI7c3Ryb2tlLW1pdGVybGltaXQ6MTA7fSYjeGE7CS5zdDk0e2ZpbGw6bm9uZTtzdHJva2U6I0ZGRkZGRjtzdHJva2Utd2lkdGg6NS41O3N0cm9rZS1saW5lY2FwOnJvdW5kO3N0cm9rZS1saW5lam9pbjpyb3VuZDtzdHJva2UtbWl0ZXJsaW1pdDoxMDt9JiN4YTsJLnN0OTV7ZmlsbDojRkZGRkZGO3N0cm9rZTojNDI4NUY0O3N0cm9rZS13aWR0aDoxLjU7c3Ryb2tlLW1pdGVybGltaXQ6MTA7fSYjeGE7CS5zdDk2e2ZpbGw6bm9uZTtzdHJva2U6IzFBNzNFODtzdHJva2Utd2lkdGg6MS44O3N0cm9rZS1taXRlcmxpbWl0OjEwO30mI3hhOwkuc3Q5N3tmaWxsOiNGRkZGRkY7c3Ryb2tlOiMxQTczRTg7c3Ryb2tlLXdpZHRoOjM7c3Ryb2tlLW1pdGVybGltaXQ6MTA7fSYjeGE7CS5zdDk4e2ZpbGw6bm9uZTtzdHJva2U6Izc3NzY3NztzdHJva2Utd2lkdGg6MjtzdHJva2UtbGluZWNhcDpyb3VuZDtzdHJva2UtbGluZWpvaW46cm91bmQ7c3Ryb2tlLW1pdGVybGltaXQ6MTA7fSYjeGE7CS5zdDk5e2ZpbGw6bm9uZTtzdHJva2U6I0E3OTZBODtzdHJva2Utd2lkdGg6MjtzdHJva2UtbGluZWNhcDpyb3VuZDtzdHJva2UtbGluZWpvaW46cm91bmQ7c3Ryb2tlLW1pdGVybGltaXQ6MTA7fSYjeGE7CS5zdDEwMHtmaWxsOm5vbmU7c3Ryb2tlOiM2NDY0NjQ7c3Ryb2tlLXdpZHRoOjI7c3Ryb2tlLW1pdGVybGltaXQ6MTA7fSYjeGE7CS5zdDEwMXtkaXNwbGF5Om5vbmU7fSYjeGE7CS5zdDEwMntkaXNwbGF5OmlubGluZTt9JiN4YTs8L3N0eWxlPiYjeGE7PGcgaWQ9ImJhY2siPiYjeGE7PC9nPiYjeGE7PGcgaWQ9ImJhY2tfeDJDX19lZGdlIj4mI3hhOzwvZz4mI3hhOzxnIGlkPSJmcm9udCI+JiN4YTs8L2c+JiN4YTs8ZyBpZD0iZnJvbnRfeDJDX19lZGdlIj4mI3hhOzwvZz4mI3hhOzxnIGlkPSJmaW5pc2giPiYjeGE7PC9nPiYjeGE7PGcgaWQ9ImJvcmRlciI+JiN4YTs8L2c+JiN4YTs8ZyBpZD0iZ3JpZCI+JiN4YTs8L2c+JiN4YTs8ZyBpZD0ia2V5bGluZXMiPiYjeGE7PC9nPiYjeGE7PGcgaWQ9InRyaW1fYXJlYSI+JiN4YTsJPHBhdGggZD0iTTE2Mi42LDEwNS4xbDE0LjUtNS4zdjE2LjdsLTMuOS0wLjVsLTQuMSwzLjhsLTYuNS0wLjNWMTA1LjF6IE0xNjIuNiwxMDUuMSIgY2xhc3M9InN0MzciLz4mI3hhOwk8Y2lyY2xlIHI9Ijg3LjUiIGN5PSI4Ny41IiBjeD0iODcuNSIgY2xhc3M9InN0NzYiLz4mI3hhOwk8cGF0aCBkPSJNMTE1LjIsOTMuNWMtMC4yLDEuMS0xLjYsOC43LDEuMSwxMS40YzYsNiwxNC4zLDExLjYsMTcuMiwxNC41YzIuOSwyLjksMS44LDcuMy0yLjMsMTEuMyYjeEE7JiM5OyYjOTtjLTQsNC04LjMsNS4zLTExLjMsMi4zYy0zLTMtOC41LTExLjItMTQuNS0xNy4yYy0yLjYtMi42LTkuNS0xLjUtMTEuMi0xLjJjLTQuMywxLjctOC44LDIuNS0xMy4zLDIuNmwzNi43LTM2LjcmI3hBOyYjOTsmIzk7QzExNy42LDg0LjgsMTE2LjgsODkuMywxMTUuMiw5My41eiIgY2xhc3M9InN0NTYiLz4mI3hhOwk8cGF0aCBkPSJNNTMuOCwxMDYuM2M1LjQsNS40LDEyLjEsOC44LDE5LDEwLjJMMTE3LDcyLjNjLTEuNC03LTQuOC0xMy42LTEwLjItMTljLTE0LjYtMTQuNi0zOC4xLTIwLjktNTYtMyYjeEE7JiM5OyYjOTtDMzIuOSw2OC4yLDM5LjIsOTEuNiw1My44LDEwNi4zeiIgY2xhc3M9InN0NTUiLz4mI3hhOwk8cGF0aCBkPSJNMTE3LjYsODAuNGMwLjEtMi0wLjctOC0wLjctOGwtNDQuMSw0NC4xYzAsMCw2LDAuNyw4LDAuN0wxMTcuNiw4MC40eiIgY2xhc3M9InN0NTUiLz4mI3hhOwk8Y2lyY2xlIHI9IjguMyIgY3k9IjEyNi4xIiBjeD0iNDcuMSIgY2xhc3M9InN0NzciLz4mI3hhOwk8Y2lyY2xlIHI9IjguMyIgY3k9IjEyMy40IiBjeD0iNDUiIGNsYXNzPSJzdDE1Ii8+JiN4YTsJPHBhdGggZD0iTTQ1LjUsMTMwLjJjLTQuNC0zLTUuNS04LjktMi41LTEzLjNjMC41LTAuNywxLTEuMywxLjYtMS44Yy0yLjUsMC4xLTQuOSwxLjQtNi40LDMuNiYjeEE7JiM5OyYjOTtjLTIuNiwzLjgtMS42LDksMi4yLDExLjZjMi4yLDEuNSw0LjksMS44LDcuMywxQzQ2LjksMTMxLDQ2LjIsMTMwLjYsNDUuNSwxMzAuMnoiIGNsYXNzPSJzdDU5Ii8+JiN4YTsJPHBhdGggZD0iTTk5LjEsOTguOWwzMS45LDMxLjljMC4xLDAsMC4xLTAuMSwwLjItMC4xYzQtNCw1LjItOC40LDIuMy0xMS4zYy0yLjktMi45LTExLjItOC41LTE3LjItMTQuNSYjeEE7JiM5OyYjOTtjLTIuOC0yLjgtMS4zLTEwLjQtMS4xLTExLjRjMS42LTQuMiwyLjQtOC42LDIuNS0xMy4xTDk5LjEsOTguOXoiIGNsYXNzPSJzdDU4Ii8+JiN4YTs8L2c+JiN4YTs8L3N2Zz4=;labelPosition=center;align=center;" vertex="1" parent="1">
          <mxGeometry x="610" y="370" width="80" height="80" as="geometry" />
        </mxCell>
      </root>
    </mxGraphModel>
  </diagram>
</mxfile>
